<svg xmlns="http://www.w3.org/2000/svg" xmlns:xlink="http://www.w3.org/1999/xlink" xmlns:lucid="lucid" width="1121" height="697.77"><g transform="translate(-378.99999996362004 -211.1145234627802)" lucid:page-tab-id="0_0"><path d="M380 386a6 6 0 0 1 6-6h108a6 6 0 0 1 6 6v108a6 6 0 0 1-6 6H386a6 6 0 0 1-6-6z" stroke="#3a414a" stroke-width="2" fill="#fff"/><use xlink:href="#a" transform="matrix(1,0,0,1,385,385) translate(47.822265625 62.77777777777778)"/><path d="M520 386a6 6 0 0 1 6-6h108a6 6 0 0 1 6 6v108a6 6 0 0 1-6 6H526a6 6 0 0 1-6-6z" stroke="#3a414a" stroke-width="2" fill="#f2f3f5"/><use xlink:href="#b" transform="matrix(1,0,0,1,525,385) translate(48.136935763888886 62.77777777777778)"/><path d="M660 386a6 6 0 0 1 6-6h108a6 6 0 0 1 6 6v108a6 6 0 0 1-6 6H666a6 6 0 0 1-6-6z" stroke="#3a414a" stroke-width="2" fill="#dfe3e8"/><use xlink:href="#c" transform="matrix(1,0,0,1,665,385) translate(48.22374131944444 62.77777777777778)"/><path d="M800 386a6 6 0 0 1 6-6h108a6 6 0 0 1 6 6v108a6 6 0 0 1-6 6H806a6 6 0 0 1-6-6z" stroke="#3a414a" stroke-width="2" fill="#979ea8"/><use xlink:href="#d" transform="matrix(1,0,0,1,805,385) translate(50.480685763888886 62.77777777777778)"/><path d="M940 386a6 6 0 0 1 6-6h108a6 6 0 0 1 6 6v108a6 6 0 0 1-6 6H946a6 6 0 0 1-6-6z" stroke="#3a414a" stroke-width="2" fill="#fff"/><use xlink:href="#e" transform="matrix(1,0,0,1,945,385) translate(48.12608506944444 62.77777777777778)"/><path d="M1080 386a6 6 0 0 1 6-6h108a6 6 0 0 1 6 6v108a6 6 0 0 1-6 6h-108a6 6 0 0 1-6-6z" stroke="#3a414a" stroke-width="2" fill="#f2f3f5"/><use xlink:href="#f" transform="matrix(1,0,0,1,1085,385) translate(48.71202256944444 62.77777777777778)"/><path d="M1220 386a6 6 0 0 1 6-6h108a6 6 0 0 1 6 6v108a6 6 0 0 1-6 6h-108a6 6 0 0 1-6-6z" stroke="#3a414a" stroke-width="2" fill="#dfe3e8"/><use xlink:href="#g" transform="matrix(1,0,0,1,1225,385) translate(48.10980902777778 62.77777777777778)"/><path d="M1360 386a6 6 0 0 1 6-6h108a6 6 0 0 1 6 6v108a6 6 0 0 1-6 6h-108a6 6 0 0 1-6-6z" stroke="#3a414a" stroke-width="2" fill="#979ea8"/><use xlink:href="#h" transform="matrix(1,0,0,1,1365,385) translate(48.245442708333336 62.77777777777778)"/><path d="M380 626a6 6 0 0 1 6-6h108a6 6 0 0 1 6 6v108a6 6 0 0 1-6 6H386a6 6 0 0 1-6-6z" stroke="#3a414a" stroke-width="2" fill="#fff"/><use xlink:href="#i" transform="matrix(1,0,0,1,385,625) translate(43.704427083333336 62.77777777777778)"/><path d="M520 626a6 6 0 0 1 6-6h108a6 6 0 0 1 6 6v108a6 6 0 0 1-6 6H526a6 6 0 0 1-6-6z" stroke="#3a414a" stroke-width="2" fill="#f2f3f5"/><use xlink:href="#j" transform="matrix(1,0,0,1,525,625) translate(45.96137152777778 62.77777777777778)"/><path d="M660 626a6 6 0 0 1 6-6h108a6 6 0 0 1 6 6v108a6 6 0 0 1-6 6H666a6 6 0 0 1-6-6z" stroke="#3a414a" stroke-width="2" fill="#dfe3e8"/><use xlink:href="#k" transform="matrix(1,0,0,1,665,625) translate(43.47113715277778 62.77777777777778)"/><path d="M800 626a6 6 0 0 1 6-6h108a6 6 0 0 1 6 6v108a6 6 0 0 1-6 6H806a6 6 0 0 1-6-6z" stroke="#3a414a" stroke-width="2" fill="#979ea8"/><use xlink:href="#l" transform="matrix(1,0,0,1,805,625) translate(48.10980902777778 62.77777777777778)"/><path d="M940 626a6 6 0 0 1 6-6h108a6 6 0 0 1 6 6v108a6 6 0 0 1-6 6H946a6 6 0 0 1-6-6z" stroke="#3a414a" stroke-width="2" fill="#fff"/><use xlink:href="#m" transform="matrix(1,0,0,1,945,625) translate(43.59049479166667 62.77777777777778)"/><path d="M1080 626a6 6 0 0 1 6-6h108a6 6 0 0 1 6 6v108a6 6 0 0 1-6 6h-108a6 6 0 0 1-6-6z" stroke="#3a414a" stroke-width="2" fill="#f2f3f5"/><use xlink:href="#n" transform="matrix(1,0,0,1,1085,625) translate(43.72612847222222 62.77777777777778)"/><path d="M1220 626a6 6 0 0 1 6-6h108a6 6 0 0 1 6 6v108a6 6 0 0 1-6 6h-108a6 6 0 0 1-6-6z" stroke="#3a414a" stroke-width="2" fill="#dfe3e8"/><use xlink:href="#o" transform="matrix(1,0,0,1,1225,625) translate(43.302951388888886 62.77777777777778)"/><path d="M1360 626a6 6 0 0 1 6-6h108a6 6 0 0 1 6 6v108a6 6 0 0 1-6 6h-108a6 6 0 0 1-6-6z" stroke="#3a414a" stroke-width="2" fill="#979ea8"/><use xlink:href="#p" transform="matrix(1,0,0,1,1365,625) translate(43.61762152777778 62.77777777777778)"/><path d="M380 326a6 6 0 0 1 6-6h1108a6 6 0 0 1 6 6v24.9a6 6 0 0 1-6 6H386a6 6 0 0 1-6-6z" fill="none"/><use xlink:href="#q" transform="matrix(1,0,0,1,385,325) translate(0 21.58376736111111)"/><use xlink:href="#r" transform="matrix(1,0,0,1,385,325) translate(36.83810763888889 21.58376736111111)"/><use xlink:href="#s" transform="matrix(1,0,0,1,385,325) translate(172.8515625 21.58376736111111)"/><use xlink:href="#t" transform="matrix(1,0,0,1,385,325) translate(308.74565972222223 21.58376736111111)"/><use xlink:href="#u" transform="matrix(1,0,0,1,385,325) translate(449.0451388888889 21.58376736111111)"/><use xlink:href="#v" transform="matrix(1,0,0,1,385,325) translate(579.1666666666667 21.58376736111111)"/><use xlink:href="#w" transform="matrix(1,0,0,1,385,325) translate(715.2452256944446 21.58376736111111)"/><use xlink:href="#x" transform="matrix(1,0,0,1,385,325) translate(845.2148437500001 21.58376736111111)"/><use xlink:href="#y" transform="matrix(1,0,0,1,385,325) translate(985.9375000000001 21.58376736111111)"/><path d="M380 586a6 6 0 0 1 6-6h1068a6 6 0 0 1 6 6v28a6 6 0 0 1-6 6H386a6 6 0 0 1-6-6z" fill="none"/><use xlink:href="#z" transform="matrix(1,0,0,1,385,585) translate(0 23.08376736111111)"/><use xlink:href="#A" transform="matrix(1,0,0,1,385,585) translate(15.787760416666666 23.08376736111111)"/><use xlink:href="#B" transform="matrix(1,0,0,1,385,585) translate(167.0681423611111 23.08376736111111)"/><use xlink:href="#C" transform="matrix(1,0,0,1,385,585) translate(292.00303819444446 23.08376736111111)"/><use xlink:href="#D" transform="matrix(1,0,0,1,385,585) translate(432.3459201388889 23.08376736111111)"/><use xlink:href="#E" transform="matrix(1,0,0,1,385,585) translate(598.8823784722222 23.08376736111111)"/><use xlink:href="#F" transform="matrix(1,0,0,1,385,585) translate(738.2486979166666 23.08376736111111)"/><use xlink:href="#G" transform="matrix(1,0,0,1,385,585) translate(877.9622395833333 23.08376736111111)"/><use xlink:href="#H" transform="matrix(1,0,0,1,385,585) translate(1018.3702256944443 23.08376736111111)"/><path d="M440.02 378l.1-4.55.33-5.37.55-5.23.76-5.1.95-5 1.16-4.9 1.35-4.83 1.56-4.76 1.75-4.7 1.97-4.7 2.2-4.64 2.4-4.63 2.7-4.64 2.93-4.63 3.23-4.64 3.54-4.68 3.9-4.7 4.26-4.74 4.68-4.78 5.16-4.83 5.65-4.88 6.24-4.94 6.87-5 7.6-5.02 8.35-5.06 9.26-5.1 10.24-5.06 11.3-5.03 12.5-4.95 13.75-4.8 15.1-4.54 16.47-4.22 17.85-3.78 19.15-3.24 20.3-2.56 21.2-1.78 21.77-.9H731l21.8.9 21.18 1.8 20.3 2.55 19.14 3.23 17.85 3.8 16.48 4.22 15.1 4.56 13.75 4.78 12.48 4.94 11.3 5.03 10.24 5.07 9.25 5.1 8.36 5.05 7.58 5.03 6.87 5 6.23 4.92 5.66 4.88 5.14 4.83 4.68 4.8 4.27 4.73 3.9 4.7 3.53 4.67 3.23 4.64 2.95 4.63 2.67 4.63 2.42 4.63 2.2 4.65 1.96 4.68 1.75 4.7 1.55 4.77 1.34 4.83 1.15 4.9.95 5 .4 2.8" stroke="#3a414a" stroke-width="2" stroke-linejoin="round" fill="none"/><path d="M441 378l-.02 1h-1.96l.03-1.05z" stroke="#3a414a" stroke-width=".05" fill="#3a414a"/><path d="M999.76 375.77l-5.65-13.9 9.25-.66z" stroke="#3a414a" stroke-width="2" fill="#3a414a"/><path d="M580.02 378l.1-4.55.33-5.37.55-5.23.76-5.1.95-5 1.16-4.9 1.35-4.83 1.56-4.76 1.75-4.7 1.97-4.7 2.2-4.64 2.42-4.63 2.66-4.64 2.94-4.63 3.23-4.64 3.54-4.68 3.9-4.7 4.26-4.74 4.68-4.78 5.16-4.83 5.65-4.88 6.24-4.94 6.87-5 7.58-5.02 8.38-5.06 9.25-5.1 10.24-5.06 11.3-5.03 12.5-4.95 13.75-4.8 15.1-4.54 16.47-4.22 17.85-3.78 19.15-3.24 20.3-2.56 21.2-1.78 21.77-.9H871l21.8.9 21.18 1.8 20.3 2.55 19.14 3.23 17.85 3.8 16.48 4.22 15.1 4.56 13.75 4.78 12.48 4.94 11.3 5.03 10.24 5.07 9.25 5.1 8.36 5.05 7.58 5.03 6.87 5 6.23 4.92 5.66 4.88 5.14 4.83 4.68 4.8 4.27 4.73 3.9 4.7 3.53 4.67 3.23 4.64 2.95 4.63 2.67 4.63 2.42 4.63 2.2 4.65 1.96 4.68 1.75 4.7 1.55 4.77 1.34 4.83 1.15 4.9.94 5 .42 2.8" stroke="#3a414a" stroke-width="2" stroke-linejoin="round" fill="none"/><path d="M581 378l-.02 1H579l.03-1.05z" stroke="#3a414a" stroke-width=".05" fill="#3a414a"/><path d="M1139.77 375.77l-5.66-13.9 9.25-.66z" stroke="#3a414a" stroke-width="2" fill="#3a414a"/><path d="M720.02 378l.1-4.55.33-5.37.55-5.23.76-5.1.95-5 1.16-4.9 1.35-4.83 1.56-4.76 1.75-4.7 1.97-4.7 2.2-4.64 2.42-4.63 2.66-4.64 2.94-4.63 3.23-4.64 3.54-4.68 3.9-4.7 4.26-4.74 4.68-4.78 5.16-4.83 5.65-4.88 6.24-4.94 6.87-5 7.58-5.02 8.38-5.06 9.25-5.1 10.24-5.06 11.3-5.03 12.5-4.95 11.8-4.1c-.85-2.64.6-5.45 3.23-6.3 2.63-.84 5.45.6 6.3 3.24 0 .02 0 .04.02.07l7.5-2.26 16.47-4.22 17.85-3.78 19.15-3.24 20.3-2.56 21.2-1.78 21.77-.9H1011l21.8.9 21.18 1.8 20.3 2.55 19.14 3.23 17.85 3.8 16.48 4.22 15.1 4.56 13.75 4.78 12.48 4.94 11.3 5.03 10.24 5.07 9.25 5.1 8.36 5.05 7.58 5.03 6.87 5 6.23 4.92 5.66 4.88 5.14 4.83 4.68 4.8 4.27 4.73 3.9 4.7 3.53 4.67 3.23 4.64 2.95 4.63 2.67 4.63 2.42 4.63 2.2 4.65 1.96 4.68 1.75 4.7 1.55 4.77 1.34 4.83 1.15 4.9.94 5 .42 2.8" stroke="#3a414a" stroke-width="2" stroke-linejoin="round" fill="none"/><path d="M721 378l-.02 1H719l.03-1.05z" stroke="#3a414a" stroke-width=".05" fill="#3a414a"/><path d="M1279.77 375.77l-5.66-13.9 9.25-.66z" stroke="#3a414a" stroke-width="2" fill="#3a414a"/><path d="M860.02 378l.1-4.55.33-5.37.55-5.23.76-5.1.95-5 1.16-4.9 1.35-4.83 1.56-4.76 1.75-4.7 1.97-4.7 2.2-4.64 2.42-4.63 2.66-4.64 2.94-4.63 3.23-4.64 3.54-4.68 3.9-4.7 4.26-4.74 4.68-4.78 5.16-4.83 5.65-4.88 6.24-4.94 6.87-5 1.63-1.07c-1.52-2.3-.9-5.4 1.4-6.94 2.3-1.53 5.4-.9 6.94 1.4l.06.1 5.92-3.58 9.26-5.1 10.24-5.06 11.3-5.03 12.5-4.95 11.8-4.1c-.85-2.64.6-5.45 3.23-6.3 2.63-.84 5.45.6 6.3 3.24 0 .02 0 .04.02.07l7.5-2.26 16.47-4.22 17.85-3.78 19.15-3.24 20.3-2.56 21.2-1.78 21.77-.9H1151l21.8.9 21.18 1.8 20.3 2.55 19.14 3.23 17.85 3.8 16.48 4.22 15.1 4.56 13.75 4.78 12.48 4.94 11.3 5.03 10.24 5.07 9.25 5.1 8.36 5.05 7.58 5.03 6.87 5 6.23 4.92 5.66 4.88 5.14 4.83 4.68 4.8 4.27 4.73 3.9 4.7 3.53 4.67 3.23 4.64 2.95 4.63 2.67 4.63 2.42 4.63 2.2 4.65 1.96 4.68 1.75 4.7 1.55 4.77 1.34 4.83 1.15 4.9.94 5 .42 2.8" stroke="#3a414a" stroke-width="2" stroke-linejoin="round" fill="none"/><path d="M861 378l-.02 1H859l.03-1.05z" stroke="#3a414a" stroke-width=".05" fill="#3a414a"/><path d="M1419.77 375.77l-5.66-13.9 9.25-.66z" stroke="#3a414a" stroke-width="2" fill="#3a414a"/><path d="M440.02 742l.1 4.55.33 5.37.55 5.23.76 5.1.95 5 1.16 4.9 1.35 4.83 1.56 4.76 1.75 4.7 1.97 4.7 2.2 4.64 2.4 4.63 2.7 4.64 2.93 4.63 3.23 4.65 3.54 4.66 3.9 4.7 4.26 4.74 4.68 4.78 5.16 4.83 5.65 4.88 6.24 4.94 6.87 5 7.6 5.02 8.35 5.06 9.26 5.1 10.24 5.06 11.3 5.03 12.5 4.95 13.75 4.8 15.1 4.54 16.47 4.22 17.85 3.78 19.15 3.24 20.3 2.56 21.2 1.77 21.77.9H731l21.8-.9 21.18-1.78 20.3-2.57 19.14-3.23 17.85-3.8 16.48-4.22 15.1-4.55 13.75-4.8 12.48-4.93 11.3-5.03 10.24-5.08 9.25-5.1 8.36-5.05 7.58-5.03 6.87-5 6.23-4.92 5.66-4.88 5.14-4.83 4.68-4.8 4.27-4.73 3.9-4.7 3.53-4.67 3.23-4.64 2.95-4.63 2.67-4.63 2.42-4.63 2.2-4.65 1.96-4.68 1.75-4.7 1.55-4.77 1.34-4.83 1.15-4.9.95-5 .4-2.8" stroke="#3a414a" stroke-width="2" stroke-linejoin="round" fill="none"/><path d="M441 742l-1.95.05-.03-1.05h1.96z" stroke="#3a414a" stroke-width=".05" fill="#3a414a"/><path d="M999.76 744.23l3.6 14.56-9.25-.68z" stroke="#3a414a" stroke-width="2" fill="#3a414a"/><path d="M580.02 742l.1 4.55.33 5.37.55 5.23.76 5.1.95 5 1.16 4.9 1.35 4.83 1.56 4.76 1.75 4.7 1.97 4.7 2.2 4.64 2.42 4.63 2.66 4.64 2.94 4.63 3.23 4.65 3.54 4.66 3.9 4.7 4.26 4.74 4.68 4.78 5.16 4.83 5.65 4.88 6.24 4.94 6.87 5 7.58 5.02 8.38 5.06 9.25 5.1 10.24 5.06 11.3 5.03 12.5 4.95 13.75 4.8 15.1 4.54 16.47 4.22 17.85 3.78 19.15 3.24 20.3 2.56 21.2 1.77 21.77.9H871l21.8-.9 21.18-1.78 20.3-2.57 19.14-3.23 17.85-3.8 16.48-4.22 15.1-4.55 13.75-4.8 12.48-4.93 11.3-5.03 10.24-5.08 9.25-5.1 8.36-5.05 7.58-5.03 6.87-5 6.23-4.92 5.66-4.88 5.14-4.83 4.68-4.8 4.27-4.73 3.9-4.7 3.53-4.67 3.23-4.64 2.95-4.63 2.67-4.63 2.42-4.63 2.2-4.65 1.96-4.68 1.75-4.7 1.55-4.77 1.34-4.83 1.15-4.9.94-5 .42-2.8" stroke="#3a414a" stroke-width="2" stroke-linejoin="round" fill="none"/><path d="M581 742l-1.95.05-.02-1.05h1.95z" stroke="#3a414a" stroke-width=".05" fill="#3a414a"/><path d="M1139.77 744.23l3.58 14.56-9.24-.68z" stroke="#3a414a" stroke-width="2" fill="#3a414a"/><path d="M720.02 742l.1 4.55.33 5.37.55 5.23.76 5.1.95 5 1.16 4.9 1.35 4.83 1.56 4.76 1.75 4.7 1.97 4.7 2.2 4.64 2.42 4.63 2.66 4.64 2.94 4.63 3.23 4.65 3.54 4.66 3.9 4.7 4.26 4.74 4.68 4.78 5.16 4.83 5.65 4.88 6.24 4.94 6.87 5 7.58 5.02 8.38 5.06 9.25 5.1 10.24 5.06 11.3 5.03 12.5 4.95 11.8 4.1c.84-2.62 3.66-4.07 6.28-3.23 2.6.84 4.06 3.6 3.27 6.2l7.5 2.27 16.47 4.22 17.85 3.78 19.15 3.24 20.3 2.56 21.2 1.77 21.77.9H1011l21.8-.9 21.18-1.78 20.3-2.57 19.14-3.23 17.85-3.8 16.48-4.22 15.1-4.55 13.75-4.8 12.48-4.93 11.3-5.03 10.24-5.08 9.25-5.1 8.36-5.05 7.58-5.03 6.87-5 6.23-4.92 5.66-4.88 5.14-4.83 4.68-4.8 4.27-4.73 3.9-4.7 3.53-4.67 3.23-4.64 2.95-4.63 2.67-4.63 2.42-4.63 2.2-4.65 1.96-4.68 1.75-4.7 1.55-4.77 1.34-4.83 1.15-4.9.94-5 .42-2.8" stroke="#3a414a" stroke-width="2" stroke-linejoin="round" fill="none"/><path d="M721 742l-1.95.05-.02-1.05h1.95z" stroke="#3a414a" stroke-width=".05" fill="#3a414a"/><path d="M1279.77 744.23l3.58 14.56-9.24-.68z" stroke="#3a414a" stroke-width="2" fill="#3a414a"/><path d="M860.02 742l.1 4.55.33 5.37.55 5.23.76 5.1.95 5 1.16 4.9 1.35 4.83 1.56 4.76 1.75 4.7 1.97 4.7 2.2 4.64 2.42 4.63 2.66 4.64 2.94 4.63 3.23 4.65 3.54 4.66 3.9 4.7 4.26 4.74 4.68 4.78 5.16 4.83 5.65 4.88 6.24 4.94 6.87 5 1.63 1.07c1.53-2.3 4.63-2.92 6.94-1.4 2.26 1.5 2.9 4.54 1.46 6.84l5.92 3.58 9.26 5.1 10.24 5.06 11.3 5.03 12.5 4.95 11.8 4.1c.84-2.62 3.66-4.07 6.28-3.23 2.6.84 4.06 3.6 3.27 6.2l7.5 2.27 16.47 4.22 17.85 3.78 19.15 3.24 20.3 2.56 21.2 1.77 21.77.9H1151l21.8-.9 21.18-1.78 20.3-2.57 19.14-3.23 17.85-3.8 16.48-4.22 15.1-4.55 13.75-4.8 12.48-4.93 11.3-5.03 10.24-5.08 9.25-5.1 8.36-5.05 7.58-5.03 6.87-5 6.23-4.92 5.66-4.88 5.14-4.83 4.68-4.8 4.27-4.73 3.9-4.7 3.53-4.67 3.23-4.64 2.95-4.63 2.67-4.63 2.42-4.63 2.2-4.65 1.96-4.68 1.75-4.7 1.55-4.77 1.34-4.83 1.15-4.9.94-5 .42-2.8" stroke="#3a414a" stroke-width="2" stroke-linejoin="round" fill="none"/><path d="M861 742l-1.95.05-.02-1.05h1.95z" stroke="#3a414a" stroke-width=".05" fill="#3a414a"/><path d="M1419.77 744.23l3.58 14.56-9.24-.68z" stroke="#3a414a" stroke-width="2" fill="#3a414a"/><path d="M451.2 605.3l.07-.03 2.2-1.2 2.78-1.4 3.6-1.58 4.73-1.88 6.46-2.25 9.17-2.75 13.75-3.5 22.3-4.7 41.85-6.96 365.64-45.08 22.3-4.7 13.75-3.5 9.16-2.75 6.46-2.25 4.74-1.87 3.6-1.58 2.77-1.38 2.2-1.2 1.78-1.08 1.46-.96 1.2-.88 1-.8.86-.73.73-.7.62-.62.53-.6.46-.55.4-.53.36-.5.3-.5.27-.45.22-.45.2-.43.2-.42.14-.42.13-.4.1-.4.1-.4.07-.38.06-.4V502" stroke="#3a414a" stroke-width="2" stroke-linejoin="round" fill="none"/><path d="M442.05 616.5l5.44-13.98 7.17 5.87z" stroke="#3a414a" stroke-width="2" fill="#3a414a"/><path d="M1000.98 502.03H999V501h1.96z" stroke="#3a414a" stroke-width=".05" fill="#3a414a"/><path d="M591.2 605.3l.07-.03 2.2-1.2 2.78-1.4 3.6-1.58 4.73-1.88 6.46-2.25 9.17-2.75 13.75-3.5 22.3-4.7 41.85-6.96 365.64-45.08 22.3-4.7 13.75-3.5 9.16-2.75 6.46-2.25 4.74-1.87 3.58-1.58 2.8-1.38 2.2-1.2 1.77-1.08 1.46-.96 1.2-.88 1-.8.86-.73.72-.7.63-.62.53-.6.46-.55.4-.53.36-.5.3-.5.27-.45.22-.45.2-.43.2-.42.14-.42.13-.4.1-.4.1-.4.07-.38.06-.4V502" stroke="#3a414a" stroke-width="2" stroke-linejoin="round" fill="none"/><path d="M582.05 616.5l5.45-13.98 7.17 5.87z" stroke="#3a414a" stroke-width="2" fill="#3a414a"/><path d="M1140.97 502.03h-1.94V501h1.94z" stroke="#3a414a" stroke-width=".05" fill="#3a414a"/><path d="M731.2 605.3l.07-.03 2.2-1.2 2.78-1.4 3.6-1.58 4.73-1.88 6.46-2.25 9.17-2.75 13.75-3.5 22.3-4.7 41.85-6.96 365.64-45.08 22.3-4.7 13.75-3.5 9.16-2.75 6.46-2.25 4.74-1.87 3.58-1.58 2.8-1.38 2.2-1.2 1.77-1.08 1.46-.96 1.2-.88 1-.8.86-.73.72-.7.63-.62.53-.6.46-.55.4-.53.36-.5.3-.5.27-.45.22-.45.2-.43.2-.42.14-.42.13-.4.1-.4.1-.4.07-.38.06-.4V502" stroke="#3a414a" stroke-width="2" stroke-linejoin="round" fill="none"/><path d="M722.05 616.5l5.45-13.98 7.17 5.87z" stroke="#3a414a" stroke-width="2" fill="#3a414a"/><path d="M1280.97 502.03h-1.94V501h1.94z" stroke="#3a414a" stroke-width=".05" fill="#3a414a"/><path d="M871.2 605.3l.07-.03 2.2-1.2 2.78-1.4 3.6-1.58 4.73-1.88 6.46-2.25 9.17-2.75 13.75-3.5 22.3-4.7 41.85-6.96 365.64-45.08 22.3-4.7 13.75-3.5 9.16-2.75 6.46-2.25 4.74-1.87 3.58-1.58 2.8-1.38 2.2-1.2 1.77-1.08 1.46-.96 1.2-.88 1-.8.86-.73.72-.7.63-.62.53-.6.46-.55.4-.53.36-.5.3-.5.27-.45.22-.45.2-.43.2-.42.14-.42.13-.4.1-.4.1-.4.07-.38.06-.4V502" stroke="#3a414a" stroke-width="2" stroke-linejoin="round" fill="none"/><path d="M862.05 616.5l5.45-13.98 7.17 5.87z" stroke="#3a414a" stroke-width="2" fill="#3a414a"/><path d="M1420.97 502.03h-1.94V501h1.94z" stroke="#3a414a" stroke-width=".05" fill="#3a414a"/><defs><path d="M120-303v-155l652-1032h231v1020h202v167h-202V0H821v-303H120zm702-167v-782h-12L323-482v12h499" id="I"/><use transform="matrix(0.010850694444444444,0,0,0.010850694444444444,0,0)" xlink:href="#I" id="a"/><path d="M635 20c-292 0-500-160-510-396h192c11 142 145 229 315 229 187 0 323-105 323-260 0-161-125-274-346-274H488v-165h121c174 0 294-100 294-254 0-148-104-245-266-245-152 0-291 85-297 230H157c8-234 222-395 484-395 278 0 448 188 448 400 0 168-95 291-247 336v12c190 31 301 169 301 357 0 244-216 425-508 425" id="J"/><use transform="matrix(0.010850694444444444,0,0,0.010850694444444444,0,0)" xlink:href="#J" id="b"/><path d="M154 0v-137l495-537c165-179 249-281 249-418 0-156-121-253-280-253-170 0-278 110-278 278H158c0-264 200-443 465-443 266 0 455 183 455 416 0 161-73 288-336 568L416-179v12h687V0H154" id="K"/><use transform="matrix(0.010850694444444444,0,0,0.010850694444444444,0,0)" xlink:href="#K" id="c"/><path d="M653-1490V0H466v-1314h-10L96-1047v-204l324-239h233" id="L"/><use transform="matrix(0.010850694444444444,0,0,0.010850694444444444,0,0)" xlink:href="#L" id="d"/><path d="M633 20c-303 0-511-173-511-416 0-188 124-348 291-378v-8c-145-37-237-174-237-332 0-227 192-396 457-396 261 0 456 169 456 396 0 158-94 295-235 332v8c162 30 291 190 291 378 0 243-212 416-512 416zm0-165c197 0 322-103 322-261 0-165-138-283-322-283-188 0-324 118-324 283 0 158 123 261 324 261zm0-703c157 0 272-101 272-252 0-149-110-246-272-246-165 0-273 97-273 246 0 151 112 252 273 252" id="M"/><use transform="matrix(0.010850694444444444,0,0,0.010850694444444444,0,0)" xlink:href="#M" id="e"/><path d="M200 0l662-1311v-12H98v-167h963v177L400 0H200" id="N"/><use transform="matrix(0.010850694444444444,0,0,0.010850694444444444,0,0)" xlink:href="#N" id="f"/><path d="M646 20c-249 0-524-159-524-708 0-524 209-822 547-822 250 0 431 161 467 395H950c-33-129-126-227-281-227-229 0-367 208-367 566h12c80-124 212-198 367-198 255 0 467 205 467 493 0 278-198 501-502 501zm0-167c179 0 318-148 318-334 0-182-133-328-313-328-181 0-322 156-322 330 0 176 134 332 317 332" id="O"/><use transform="matrix(0.010850694444444444,0,0,0.010850694444444444,0,0)" xlink:href="#O" id="g"/><path d="M626 20c-262 0-458-168-468-396h184c12 133 134 229 284 229 180 0 311-137 311-326 0-192-136-335-323-335-92 0-196 33-255 78l-178-22 88-738h784v167H429l-51 435h8c61-51 160-87 263-87 273 0 474 211 474 499 0 286-210 496-497 496" id="P"/><use transform="matrix(0.010850694444444444,0,0,0.010850694444444444,0,0)" xlink:href="#P" id="h"/><g id="i"><use transform="matrix(0.010850694444444444,0,0,0.010850694444444444,0,0)" xlink:href="#L"/><use transform="matrix(0.010850694444444444,0,0,0.010850694444444444,9.038628472222221,0)" xlink:href="#K"/></g><g id="j"><use transform="matrix(0.010850694444444444,0,0,0.010850694444444444,0,0)" xlink:href="#L"/><use transform="matrix(0.010850694444444444,0,0,0.010850694444444444,9.038628472222221,0)" xlink:href="#L"/></g><path d="M646 20c-332 0-524-278-524-764 0-483 194-766 524-766s524 283 524 766c0 485-191 764-524 764zm0-166c218 0 341-220 341-598 0-380-123-601-341-601s-341 222-341 601c0 378 123 598 341 598" id="Q"/><g id="k"><use transform="matrix(0.010850694444444444,0,0,0.010850694444444444,0,0)" xlink:href="#L"/><use transform="matrix(0.010850694444444444,0,0,0.010850694444444444,9.038628472222221,0)" xlink:href="#Q"/></g><path d="M603 20c-253 0-434-161-469-399h188c31 132 124 231 281 231 227 0 367-207 367-568h-12c-80 122-211 199-367 199-257 0-469-206-469-493 0-278 200-505 506-500 245 4 520 158 520 706 0 527-208 824-545 824zm16-703c181 0 324-157 324-332 0-171-135-328-318-328-180 0-317 148-317 332 0 183 131 328 311 328" id="R"/><use transform="matrix(0.010850694444444444,0,0,0.010850694444444444,0,0)" xlink:href="#R" id="l"/><g id="m"><use transform="matrix(0.010850694444444444,0,0,0.010850694444444444,0,0)" xlink:href="#L"/><use transform="matrix(0.010850694444444444,0,0,0.010850694444444444,9.038628472222221,0)" xlink:href="#O"/></g><g id="n"><use transform="matrix(0.010850694444444444,0,0,0.010850694444444444,0,0)" xlink:href="#L"/><use transform="matrix(0.010850694444444444,0,0,0.010850694444444444,9.038628472222221,0)" xlink:href="#P"/></g><g id="o"><use transform="matrix(0.010850694444444444,0,0,0.010850694444444444,0,0)" xlink:href="#L"/><use transform="matrix(0.010850694444444444,0,0,0.010850694444444444,9.038628472222221,0)" xlink:href="#I"/></g><g id="p"><use transform="matrix(0.010850694444444444,0,0,0.010850694444444444,0,0)" xlink:href="#L"/><use transform="matrix(0.010850694444444444,0,0,0.010850694444444444,9.038628472222221,0)" xlink:href="#J"/></g><path fill="#6f7681" d="M595 20C218 20 45-261 124-744c80-483 349-766 724-766 374 0 549 282 470 765-80 485-346 765-723 765zm41-253c185 0 317-186 371-512 53-325-16-513-201-513-181 0-316 183-371 514-53 326 17 511 201 511" id="S"/><use transform="matrix(0.010850694444444444,0,0,0.010850694444444444,0,0)" xlink:href="#S" id="r"/><path fill="#6f7681" d="M903-1490L656 0H352l203-1221h-10L163-980l46-279 368-231h326" id="T"/><use transform="matrix(0.010850694444444444,0,0,0.010850694444444444,0,0)" xlink:href="#T" id="s"/><path fill="#6f7681" d="M31 0l37-220 609-495c159-133 252-221 271-342 22-133-58-209-189-209-139 0-255 88-279 233H189c48-290 275-477 585-477 316 0 511 183 468 441-28 168-124 307-472 585L507-262l-2 11h622L1086 0H31" id="U"/><use transform="matrix(0.010850694444444444,0,0,0.010850694444444444,0,0)" xlink:href="#U" id="t"/><path fill="#6f7681" d="M572 20C248 20 37-159 76-418h307c-13 112 82 185 223 185 146 0 264-82 284-203 21-124-71-210-243-210H509l38-227h138c143 0 258-80 278-200 19-115-54-193-183-193-132 0-250 74-272 189H214c46-255 298-433 600-433 305 0 487 185 448 418-27 168-161 285-332 317l-1 11c213 29 306 163 275 347-42 255-302 437-632 437" id="V"/><use transform="matrix(0.010850694444444444,0,0,0.010850694444444444,0,0)" xlink:href="#V" id="u"/><path fill="#6f7681" d="M53-265l39-241 787-984h383l-162 979h186l-41 246h-186L1015 0H722l44-265H53zm759-246l107-643h-12L403-523l-2 12h411" id="W"/><use transform="matrix(0.010850694444444444,0,0,0.010850694444444444,0,0)" xlink:href="#W" id="v"/><path fill="#6f7681" d="M577 20C271 20 69-163 105-418h298c-14 116 68 196 196 196 148 0 282-107 308-267s-58-269-208-269c-88 0-193 38-249 98l-266-48 202-782h902l-42 252H597L496-861h8c65-72 177-124 305-124 269 0 443 204 395 490-50 300-300 515-627 515" id="X"/><use transform="matrix(0.010850694444444444,0,0,0.010850694444444444,0,0)" xlink:href="#X" id="w"/><path fill="#6f7681" d="M608 20C305 20 28-164 118-710c83-502 348-800 713-800 293 0 485 188 475 433h-301c-7-108-75-170-189-170-197 0-339 183-388 476h10c91-132 228-208 388-208 264 0 446 202 399 482-50 302-289 517-617 517zm8-242c147 0 286-115 311-267 26-150-54-267-203-267-151 0-288 120-313 268-23 147 58 266 205 266" id="Y"/><use transform="matrix(0.010850694444444444,0,0,0.010850694444444444,0,0)" xlink:href="#Y" id="x"/><path fill="#6f7681" d="M76 0l823-1228 2-10H188l42-252h1040l-42 256L402 0H76" id="Z"/><use transform="matrix(0.010850694444444444,0,0,0.010850694444444444,0,0)" xlink:href="#Z" id="y"/><path fill="#6f7681" d="M587 20C253 20 27-158 67-401c31-187 195-339 381-369l1-9c-152-33-238-168-211-330 38-232 270-401 568-401s507 170 469 400c-27 164-161 298-321 331l-1 9c172 30 291 183 259 371-41 242-293 419-625 419zm16-226c151 0 274-88 295-219 21-130-67-225-214-225-145 0-273 91-296 224-22 129 60 220 215 220zm111-668c128 0 238-85 257-204 20-119-55-199-183-199s-236 78-257 199c-20 120 55 204 183 204" id="aa"/><use transform="matrix(0.010850694444444444,0,0,0.010850694444444444,0,0)" xlink:href="#aa" id="A"/><path fill="#6f7681" d="M573 22C279 22 73-168 85-415h301c7 108 76 174 193 174 196 0 335-183 385-479h-10c-91 131-244 209-405 209-267 0-430-204-384-483 50-296 291-520 625-518 303 2 572 189 482 731-83 501-333 803-699 803zm102-757c145 0 279-118 304-266 25-145-64-267-214-267-145 0-277 115-302 268-24 148 62 265 212 265" id="ab"/><use transform="matrix(0.010850694444444444,0,0,0.010850694444444444,0,0)" xlink:href="#ab" id="B"/><g id="C"><use transform="matrix(0.010850694444444444,0,0,0.010850694444444444,0,0)" xlink:href="#T"/><use transform="matrix(0.010850694444444444,0,0,0.010850694444444444,9.59201388888889,0)" xlink:href="#S"/></g><g id="D"><use transform="matrix(0.010850694444444444,0,0,0.010850694444444444,0,0)" xlink:href="#T"/><use transform="matrix(0.010850694444444444,0,0,0.010850694444444444,9.59201388888889,0)" xlink:href="#T"/></g><g id="E"><use transform="matrix(0.010850694444444444,0,0,0.010850694444444444,0,0)" xlink:href="#T"/><use transform="matrix(0.010850694444444444,0,0,0.010850694444444444,9.59201388888889,0)" xlink:href="#U"/></g><g id="F"><use transform="matrix(0.010850694444444444,0,0,0.010850694444444444,0,0)" xlink:href="#T"/><use transform="matrix(0.010850694444444444,0,0,0.010850694444444444,9.59201388888889,0)" xlink:href="#V"/></g><g id="G"><use transform="matrix(0.010850694444444444,0,0,0.010850694444444444,0,0)" xlink:href="#T"/><use transform="matrix(0.010850694444444444,0,0,0.010850694444444444,9.59201388888889,0)" xlink:href="#W"/></g><g id="H"><use transform="matrix(0.010850694444444444,0,0,0.010850694444444444,0,0)" xlink:href="#T"/><use transform="matrix(0.010850694444444444,0,0,0.010850694444444444,9.59201388888889,0)" xlink:href="#X"/></g></defs></g></svg>