<svg xmlns="http://www.w3.org/2000/svg" xmlns:xlink="http://www.w3.org/1999/xlink" xmlns:lucid="lucid" width="1121" height="401"><g transform="translate(-378.99999996362004 -340)" lucid:page-tab-id="0_0"><path d="M380 386a6 6 0 0 1 6-6h108a6 6 0 0 1 6 6v108a6 6 0 0 1-6 6H386a6 6 0 0 1-6-6z" stroke="#3a414a" stroke-width="2" fill="#fff"/><use xlink:href="#a" transform="matrix(1,0,0,1,385,385) translate(43.59049479166667 62.77777777777778)"/><path d="M520 386a6 6 0 0 1 6-6h108a6 6 0 0 1 6 6v108a6 6 0 0 1-6 6H526a6 6 0 0 1-6-6z" stroke="#3a414a" stroke-width="2" fill="#fff"/><use xlink:href="#b" transform="matrix(1,0,0,1,525,385) translate(43.72612847222222 62.77777777777778)"/><path d="M660 386a6 6 0 0 1 6-6h108a6 6 0 0 1 6 6v108a6 6 0 0 1-6 6H666a6 6 0 0 1-6-6z" stroke="#3a414a" stroke-width="2" fill="#fff"/><use xlink:href="#c" transform="matrix(1,0,0,1,665,385) translate(43.302951388888886 62.77777777777778)"/><path d="M800 386a6 6 0 0 1 6-6h108a6 6 0 0 1 6 6v108a6 6 0 0 1-6 6H806a6 6 0 0 1-6-6z" stroke="#3a414a" stroke-width="2" fill="#fff"/><use xlink:href="#d" transform="matrix(1,0,0,1,805,385) translate(43.61762152777778 62.77777777777778)"/><path d="M940 386a6 6 0 0 1 6-6h108a6 6 0 0 1 6 6v108a6 6 0 0 1-6 6H946a6 6 0 0 1-6-6z" stroke="#3a414a" stroke-width="2" fill="#fff"/><use xlink:href="#e" transform="matrix(1,0,0,1,945,385) translate(43.704427083333336 62.77777777777778)"/><path d="M1080 386a6 6 0 0 1 6-6h108a6 6 0 0 1 6 6v108a6 6 0 0 1-6 6h-108a6 6 0 0 1-6-6z" stroke="#3a414a" stroke-width="2" fill="#fff"/><use xlink:href="#f" transform="matrix(1,0,0,1,1085,385) translate(45.96137152777778 62.77777777777778)"/><path d="M1220 386a6 6 0 0 1 6-6h108a6 6 0 0 1 6 6v108a6 6 0 0 1-6 6h-108a6 6 0 0 1-6-6z" stroke="#3a414a" stroke-width="2" fill="#fff"/><use xlink:href="#g" transform="matrix(1,0,0,1,1225,385) translate(43.47113715277778 62.77777777777778)"/><path d="M1360 386a6 6 0 0 1 6-6h108a6 6 0 0 1 6 6v108a6 6 0 0 1-6 6h-108a6 6 0 0 1-6-6z" stroke="#3a414a" stroke-width="2" fill="#fff"/><use xlink:href="#h" transform="matrix(1,0,0,1,1365,385) translate(48.10980902777778 62.77777777777778)"/><path d="M380 626a6 6 0 0 1 6-6h108a6 6 0 0 1 6 6v108a6 6 0 0 1-6 6H386a6 6 0 0 1-6-6z" stroke="#3a414a" stroke-width="2" fill="#fff"/><use xlink:href="#i" transform="matrix(1,0,0,1,385,625) translate(48.12608506944444 62.77777777777778)"/><path d="M520 626a6 6 0 0 1 6-6h108a6 6 0 0 1 6 6v108a6 6 0 0 1-6 6H526a6 6 0 0 1-6-6z" stroke="#3a414a" stroke-width="2" fill="#fff"/><use xlink:href="#j" transform="matrix(1,0,0,1,525,625) translate(48.71202256944444 62.77777777777778)"/><path d="M660 626a6 6 0 0 1 6-6h108a6 6 0 0 1 6 6v108a6 6 0 0 1-6 6H666a6 6 0 0 1-6-6z" stroke="#3a414a" stroke-width="2" fill="#fff"/><use xlink:href="#k" transform="matrix(1,0,0,1,665,625) translate(48.10980902777778 62.77777777777778)"/><path d="M800 626a6 6 0 0 1 6-6h108a6 6 0 0 1 6 6v108a6 6 0 0 1-6 6H806a6 6 0 0 1-6-6z" stroke="#3a414a" stroke-width="2" fill="#fff"/><use xlink:href="#l" transform="matrix(1,0,0,1,805,625) translate(48.245442708333336 62.77777777777778)"/><path d="M940 626a6 6 0 0 1 6-6h108a6 6 0 0 1 6 6v108a6 6 0 0 1-6 6H946a6 6 0 0 1-6-6z" stroke="#3a414a" stroke-width="2" fill="#fff"/><use xlink:href="#m" transform="matrix(1,0,0,1,945,625) translate(47.822265625 62.77777777777778)"/><path d="M1080 626a6 6 0 0 1 6-6h108a6 6 0 0 1 6 6v108a6 6 0 0 1-6 6h-108a6 6 0 0 1-6-6z" stroke="#3a414a" stroke-width="2" fill="#fff"/><use xlink:href="#n" transform="matrix(1,0,0,1,1085,625) translate(48.136935763888886 62.77777777777778)"/><path d="M1220 626a6 6 0 0 1 6-6h108a6 6 0 0 1 6 6v108a6 6 0 0 1-6 6h-108a6 6 0 0 1-6-6z" stroke="#3a414a" stroke-width="2" fill="#fff"/><use xlink:href="#o" transform="matrix(1,0,0,1,1225,625) translate(48.22374131944444 62.77777777777778)"/><path d="M1360 626a6 6 0 0 1 6-6h108a6 6 0 0 1 6 6v108a6 6 0 0 1-6 6h-108a6 6 0 0 1-6-6z" stroke="#3a414a" stroke-width="2" fill="#fff"/><use xlink:href="#p" transform="matrix(1,0,0,1,1365,625) translate(50.480685763888886 62.77777777777778)"/><path d="M380 346a6 6 0 0 1 6-6h1108a6 6 0 0 1 6 6v24.9a6 6 0 0 1-6 6H386a6 6 0 0 1-6-6z" fill="none"/><use xlink:href="#q" transform="matrix(1,0,0,1,385,345) translate(0 21.58376736111111)"/><use xlink:href="#r" transform="matrix(1,0,0,1,385,345) translate(36.83810763888889 21.58376736111111)"/><use xlink:href="#s" transform="matrix(1,0,0,1,385,345) translate(172.8515625 21.58376736111111)"/><use xlink:href="#t" transform="matrix(1,0,0,1,385,345) translate(324.53342013888886 21.58376736111111)"/><use xlink:href="#u" transform="matrix(1,0,0,1,385,345) translate(464.83289930555554 21.58376736111111)"/><use xlink:href="#v" transform="matrix(1,0,0,1,385,345) translate(605.4796006944445 21.58376736111111)"/><use xlink:href="#w" transform="matrix(1,0,0,1,385,345) translate(741.5581597222223 21.58376736111111)"/><use xlink:href="#x" transform="matrix(1,0,0,1,385,345) translate(887.3155381944445 21.58376736111111)"/><use xlink:href="#y" transform="matrix(1,0,0,1,385,345) translate(1028.0381944444443 21.58376736111111)"/><path d="M380 586a6 6 0 0 1 6-6h1068a6 6 0 0 1 6 6v28a6 6 0 0 1-6 6H386a6 6 0 0 1-6-6z" fill="none"/><g><use xlink:href="#z" transform="matrix(1,0,0,1,385,585) translate(0 23.08376736111111)"/><use xlink:href="#A" transform="matrix(1,0,0,1,385,585) translate(47.36328125000001 23.08376736111111)"/><use xlink:href="#B" transform="matrix(1,0,0,1,385,585) translate(182.8559027777778 23.08376736111111)"/><use xlink:href="#C" transform="matrix(1,0,0,1,385,585) translate(318.3159722222223 23.08376736111111)"/><use xlink:href="#D" transform="matrix(1,0,0,1,385,585) translate(458.65885416666674 23.08376736111111)"/><use xlink:href="#E" transform="matrix(1,0,0,1,385,585) translate(604.1449652777778 23.08376736111111)"/><use xlink:href="#F" transform="matrix(1,0,0,1,385,585) translate(743.5112847222223 23.08376736111111)"/><use xlink:href="#G" transform="matrix(1,0,0,1,385,585) translate(883.2248263888889 23.08376736111111)"/><use xlink:href="#H" transform="matrix(1,0,0,1,385,585) translate(1023.6328125 23.08376736111111)"/></g><defs><path d="M653-1490V0H466v-1314h-10L96-1047v-204l324-239h233" id="I"/><path d="M646 20c-249 0-524-159-524-708 0-524 209-822 547-822 250 0 431 161 467 395H950c-33-129-126-227-281-227-229 0-367 208-367 566h12c80-124 212-198 367-198 255 0 467 205 467 493 0 278-198 501-502 501zm0-167c179 0 318-148 318-334 0-182-133-328-313-328-181 0-322 156-322 330 0 176 134 332 317 332" id="J"/><g id="a"><use transform="matrix(0.010850694444444444,0,0,0.010850694444444444,0,0)" xlink:href="#I"/><use transform="matrix(0.010850694444444444,0,0,0.010850694444444444,9.038628472222221,0)" xlink:href="#J"/></g><path d="M626 20c-262 0-458-168-468-396h184c12 133 134 229 284 229 180 0 311-137 311-326 0-192-136-335-323-335-92 0-196 33-255 78l-178-22 88-738h784v167H429l-51 435h8c61-51 160-87 263-87 273 0 474 211 474 499 0 286-210 496-497 496" id="K"/><g id="b"><use transform="matrix(0.010850694444444444,0,0,0.010850694444444444,0,0)" xlink:href="#I"/><use transform="matrix(0.010850694444444444,0,0,0.010850694444444444,9.038628472222221,0)" xlink:href="#K"/></g><path d="M120-303v-155l652-1032h231v1020h202v167h-202V0H821v-303H120zm702-167v-782h-12L323-482v12h499" id="L"/><g id="c"><use transform="matrix(0.010850694444444444,0,0,0.010850694444444444,0,0)" xlink:href="#I"/><use transform="matrix(0.010850694444444444,0,0,0.010850694444444444,9.038628472222221,0)" xlink:href="#L"/></g><path d="M635 20c-292 0-500-160-510-396h192c11 142 145 229 315 229 187 0 323-105 323-260 0-161-125-274-346-274H488v-165h121c174 0 294-100 294-254 0-148-104-245-266-245-152 0-291 85-297 230H157c8-234 222-395 484-395 278 0 448 188 448 400 0 168-95 291-247 336v12c190 31 301 169 301 357 0 244-216 425-508 425" id="M"/><g id="d"><use transform="matrix(0.010850694444444444,0,0,0.010850694444444444,0,0)" xlink:href="#I"/><use transform="matrix(0.010850694444444444,0,0,0.010850694444444444,9.038628472222221,0)" xlink:href="#M"/></g><path d="M154 0v-137l495-537c165-179 249-281 249-418 0-156-121-253-280-253-170 0-278 110-278 278H158c0-264 200-443 465-443 266 0 455 183 455 416 0 161-73 288-336 568L416-179v12h687V0H154" id="N"/><g id="e"><use transform="matrix(0.010850694444444444,0,0,0.010850694444444444,0,0)" xlink:href="#I"/><use transform="matrix(0.010850694444444444,0,0,0.010850694444444444,9.038628472222221,0)" xlink:href="#N"/></g><g id="f"><use transform="matrix(0.010850694444444444,0,0,0.010850694444444444,0,0)" xlink:href="#I"/><use transform="matrix(0.010850694444444444,0,0,0.010850694444444444,9.038628472222221,0)" xlink:href="#I"/></g><path d="M646 20c-332 0-524-278-524-764 0-483 194-766 524-766s524 283 524 766c0 485-191 764-524 764zm0-166c218 0 341-220 341-598 0-380-123-601-341-601s-341 222-341 601c0 378 123 598 341 598" id="O"/><g id="g"><use transform="matrix(0.010850694444444444,0,0,0.010850694444444444,0,0)" xlink:href="#I"/><use transform="matrix(0.010850694444444444,0,0,0.010850694444444444,9.038628472222221,0)" xlink:href="#O"/></g><path d="M603 20c-253 0-434-161-469-399h188c31 132 124 231 281 231 227 0 367-207 367-568h-12c-80 122-211 199-367 199-257 0-469-206-469-493 0-278 200-505 506-500 245 4 520 158 520 706 0 527-208 824-545 824zm16-703c181 0 324-157 324-332 0-171-135-328-318-328-180 0-317 148-317 332 0 183 131 328 311 328" id="P"/><use transform="matrix(0.010850694444444444,0,0,0.010850694444444444,0,0)" xlink:href="#P" id="h"/><path d="M633 20c-303 0-511-173-511-416 0-188 124-348 291-378v-8c-145-37-237-174-237-332 0-227 192-396 457-396 261 0 456 169 456 396 0 158-94 295-235 332v8c162 30 291 190 291 378 0 243-212 416-512 416zm0-165c197 0 322-103 322-261 0-165-138-283-322-283-188 0-324 118-324 283 0 158 123 261 324 261zm0-703c157 0 272-101 272-252 0-149-110-246-272-246-165 0-273 97-273 246 0 151 112 252 273 252" id="Q"/><use transform="matrix(0.010850694444444444,0,0,0.010850694444444444,0,0)" xlink:href="#Q" id="i"/><path d="M200 0l662-1311v-12H98v-167h963v177L400 0H200" id="R"/><use transform="matrix(0.010850694444444444,0,0,0.010850694444444444,0,0)" xlink:href="#R" id="j"/><use transform="matrix(0.010850694444444444,0,0,0.010850694444444444,0,0)" xlink:href="#J" id="k"/><use transform="matrix(0.010850694444444444,0,0,0.010850694444444444,0,0)" xlink:href="#K" id="l"/><use transform="matrix(0.010850694444444444,0,0,0.010850694444444444,0,0)" xlink:href="#L" id="m"/><use transform="matrix(0.010850694444444444,0,0,0.010850694444444444,0,0)" xlink:href="#M" id="n"/><use transform="matrix(0.010850694444444444,0,0,0.010850694444444444,0,0)" xlink:href="#N" id="o"/><use transform="matrix(0.010850694444444444,0,0,0.010850694444444444,0,0)" xlink:href="#I" id="p"/><path fill="#6f7681" d="M595 20C218 20 45-261 124-744c80-483 349-766 724-766 374 0 549 282 470 765-80 485-346 765-723 765zm41-253c185 0 317-186 371-512 53-325-16-513-201-513-181 0-316 183-371 514-53 326 17 511 201 511" id="S"/><use transform="matrix(0.010850694444444444,0,0,0.010850694444444444,0,0)" xlink:href="#S" id="r"/><path fill="#6f7681" d="M903-1490L656 0H352l203-1221h-10L163-980l46-279 368-231h326" id="T"/><use transform="matrix(0.010850694444444444,0,0,0.010850694444444444,0,0)" xlink:href="#T" id="s"/><path fill="#6f7681" d="M31 0l37-220 609-495c159-133 252-221 271-342 22-133-58-209-189-209-139 0-255 88-279 233H189c48-290 275-477 585-477 316 0 511 183 468 441-28 168-124 307-472 585L507-262l-2 11h622L1086 0H31" id="U"/><use transform="matrix(0.010850694444444444,0,0,0.010850694444444444,0,0)" xlink:href="#U" id="t"/><path fill="#6f7681" d="M572 20C248 20 37-159 76-418h307c-13 112 82 185 223 185 146 0 264-82 284-203 21-124-71-210-243-210H509l38-227h138c143 0 258-80 278-200 19-115-54-193-183-193-132 0-250 74-272 189H214c46-255 298-433 600-433 305 0 487 185 448 418-27 168-161 285-332 317l-1 11c213 29 306 163 275 347-42 255-302 437-632 437" id="V"/><use transform="matrix(0.010850694444444444,0,0,0.010850694444444444,0,0)" xlink:href="#V" id="u"/><path fill="#6f7681" d="M53-265l39-241 787-984h383l-162 979h186l-41 246h-186L1015 0H722l44-265H53zm759-246l107-643h-12L403-523l-2 12h411" id="W"/><use transform="matrix(0.010850694444444444,0,0,0.010850694444444444,0,0)" xlink:href="#W" id="v"/><path fill="#6f7681" d="M577 20C271 20 69-163 105-418h298c-14 116 68 196 196 196 148 0 282-107 308-267s-58-269-208-269c-88 0-193 38-249 98l-266-48 202-782h902l-42 252H597L496-861h8c65-72 177-124 305-124 269 0 443 204 395 490-50 300-300 515-627 515" id="X"/><use transform="matrix(0.010850694444444444,0,0,0.010850694444444444,0,0)" xlink:href="#X" id="w"/><path fill="#6f7681" d="M608 20C305 20 28-164 118-710c83-502 348-800 713-800 293 0 485 188 475 433h-301c-7-108-75-170-189-170-197 0-339 183-388 476h10c91-132 228-208 388-208 264 0 446 202 399 482-50 302-289 517-617 517zm8-242c147 0 286-115 311-267 26-150-54-267-203-267-151 0-288 120-313 268-23 147 58 266 205 266" id="Y"/><use transform="matrix(0.010850694444444444,0,0,0.010850694444444444,0,0)" xlink:href="#Y" id="x"/><path fill="#6f7681" d="M76 0l823-1228 2-10H188l42-252h1040l-42 256L402 0H76" id="Z"/><use transform="matrix(0.010850694444444444,0,0,0.010850694444444444,0,0)" xlink:href="#Z" id="y"/><path fill="#6f7681" d="M587 20C253 20 27-158 67-401c31-187 195-339 381-369l1-9c-152-33-238-168-211-330 38-232 270-401 568-401s507 170 469 400c-27 164-161 298-321 331l-1 9c172 30 291 183 259 371-41 242-293 419-625 419zm16-226c151 0 274-88 295-219 21-130-67-225-214-225-145 0-273 91-296 224-22 129 60 220 215 220zm111-668c128 0 238-85 257-204 20-119-55-199-183-199s-236 78-257 199c-20 120 55 204 183 204" id="aa"/><use transform="matrix(0.010850694444444444,0,0,0.010850694444444444,0,0)" xlink:href="#aa" id="A"/><path fill="#6f7681" d="M573 22C279 22 73-168 85-415h301c7 108 76 174 193 174 196 0 335-183 385-479h-10c-91 131-244 209-405 209-267 0-430-204-384-483 50-296 291-520 625-518 303 2 572 189 482 731-83 501-333 803-699 803zm102-757c145 0 279-118 304-266 25-145-64-267-214-267-145 0-277 115-302 268-24 148 62 265 212 265" id="ab"/><use transform="matrix(0.010850694444444444,0,0,0.010850694444444444,0,0)" xlink:href="#ab" id="B"/><g id="C"><use transform="matrix(0.010850694444444444,0,0,0.010850694444444444,0,0)" xlink:href="#T"/><use transform="matrix(0.010850694444444444,0,0,0.010850694444444444,9.59201388888889,0)" xlink:href="#S"/></g><g id="D"><use transform="matrix(0.010850694444444444,0,0,0.010850694444444444,0,0)" xlink:href="#T"/><use transform="matrix(0.010850694444444444,0,0,0.010850694444444444,9.59201388888889,0)" xlink:href="#T"/></g><g id="E"><use transform="matrix(0.010850694444444444,0,0,0.010850694444444444,0,0)" xlink:href="#T"/><use transform="matrix(0.010850694444444444,0,0,0.010850694444444444,9.59201388888889,0)" xlink:href="#U"/></g><g id="F"><use transform="matrix(0.010850694444444444,0,0,0.010850694444444444,0,0)" xlink:href="#T"/><use transform="matrix(0.010850694444444444,0,0,0.010850694444444444,9.59201388888889,0)" xlink:href="#V"/></g><g id="G"><use transform="matrix(0.010850694444444444,0,0,0.010850694444444444,0,0)" xlink:href="#T"/><use transform="matrix(0.010850694444444444,0,0,0.010850694444444444,9.59201388888889,0)" xlink:href="#W"/></g><g id="H"><use transform="matrix(0.010850694444444444,0,0,0.010850694444444444,0,0)" xlink:href="#T"/><use transform="matrix(0.010850694444444444,0,0,0.010850694444444444,9.59201388888889,0)" xlink:href="#X"/></g></defs></g></svg>