<svg xmlns="http://www.w3.org/2000/svg" xmlns:xlink="http://www.w3.org/1999/xlink" xmlns:lucid="lucid" width="1180" height="940"><g transform="translate(-340 -320)" lucid:page-tab-id="0_0"><path d="M340 326a6 6 0 0 1 6-6h1168a6 6 0 0 1 6 6v928a6 6 0 0 1-6 6H346a6 6 0 0 1-6-6z" stroke="#000" stroke-opacity="0" stroke-width="2" fill="#fff"/><path d="M380 386a6 6 0 0 1 6-6h108a6 6 0 0 1 6 6v108a6 6 0 0 1-6 6H386a6 6 0 0 1-6-6z" stroke="#3a414a" stroke-width="2" fill="#fff"/><use xlink:href="#a" transform="matrix(1,0,0,1,385,385) translate(50.480685763888886 62.77777777777778)"/><path d="M520 386a6 6 0 0 1 6-6h108a6 6 0 0 1 6 6v108a6 6 0 0 1-6 6H526a6 6 0 0 1-6-6z" stroke="#3a414a" stroke-width="2" fill="#fff"/><use xlink:href="#b" transform="matrix(1,0,0,1,525,385) translate(48.10980902777778 62.77777777777778)"/><path d="M660 386a6 6 0 0 1 6-6h108a6 6 0 0 1 6 6v108a6 6 0 0 1-6 6H666a6 6 0 0 1-6-6z" stroke="#3a414a" stroke-width="2" fill="#fff"/><use xlink:href="#c" transform="matrix(1,0,0,1,665,385) translate(48.22374131944444 62.77777777777778)"/><path d="M800 386a6 6 0 0 1 6-6h108a6 6 0 0 1 6 6v108a6 6 0 0 1-6 6H806a6 6 0 0 1-6-6z" stroke="#3a414a" stroke-width="2" fill="#fff"/><use xlink:href="#d" transform="matrix(1,0,0,1,805,385) translate(43.47113715277778 62.77777777777778)"/><path d="M940 386a6 6 0 0 1 6-6h108a6 6 0 0 1 6 6v108a6 6 0 0 1-6 6H946a6 6 0 0 1-6-6z" stroke="#3a414a" stroke-width="2" fill="#fff"/><use xlink:href="#e" transform="matrix(1,0,0,1,945,385) translate(48.136935763888886 62.77777777777778)"/><path d="M1080 386a6 6 0 0 1 6-6h108a6 6 0 0 1 6 6v108a6 6 0 0 1-6 6h-108a6 6 0 0 1-6-6z" stroke="#3a414a" stroke-width="2" fill="#fff"/><use xlink:href="#f" transform="matrix(1,0,0,1,1085,385) translate(45.96137152777778 62.77777777777778)"/><path d="M1220 386a6 6 0 0 1 6-6h108a6 6 0 0 1 6 6v108a6 6 0 0 1-6 6h-108a6 6 0 0 1-6-6z" stroke="#3a414a" stroke-width="2" fill="#fff"/><use xlink:href="#g" transform="matrix(1,0,0,1,1225,385) translate(47.822265625 62.77777777777778)"/><path d="M1360 386a6 6 0 0 1 6-6h108a6 6 0 0 1 6 6v108a6 6 0 0 1-6 6h-108a6 6 0 0 1-6-6z" stroke="#3a414a" stroke-width="2" fill="#fff"/><use xlink:href="#h" transform="matrix(1,0,0,1,1365,385) translate(43.704427083333336 62.77777777777778)"/><path d="M380 905a6 6 0 0 1 6-6h108a6 6 0 0 1 6 6v108a6 6 0 0 1-6 6H386a6 6 0 0 1-6-6z" stroke="#3a414a" stroke-width="2" fill="#fff"/><use xlink:href="#i" transform="matrix(1,0,0,1,385,904.0000499999996) translate(48.245442708333336 62.77777777777778)"/><path d="M520 905a6 6 0 0 1 6-6h108a6 6 0 0 1 6 6v108a6 6 0 0 1-6 6H526a6 6 0 0 1-6-6z" stroke="#3a414a" stroke-width="2" fill="#fff"/><use xlink:href="#j" transform="matrix(1,0,0,1,525,904.0000499999996) translate(43.61762152777778 62.77777777777778)"/><path d="M660 905a6 6 0 0 1 6-6h108a6 6 0 0 1 6 6v108a6 6 0 0 1-6 6H666a6 6 0 0 1-6-6z" stroke="#3a414a" stroke-width="2" fill="#fff"/><use xlink:href="#k" transform="matrix(1,0,0,1,665,904.0000499999996) translate(48.10980902777778 62.77777777777778)"/><path d="M800 905a6 6 0 0 1 6-6h108a6 6 0 0 1 6 6v108a6 6 0 0 1-6 6H806a6 6 0 0 1-6-6z" stroke="#3a414a" stroke-width="2" fill="#fff"/><use xlink:href="#l" transform="matrix(1,0,0,1,805,904.0000499999996) translate(43.302951388888886 62.77777777777778)"/><path d="M940 905a6 6 0 0 1 6-6h108a6 6 0 0 1 6 6v108a6 6 0 0 1-6 6H946a6 6 0 0 1-6-6z" stroke="#3a414a" stroke-width="2" fill="#fff"/><use xlink:href="#m" transform="matrix(1,0,0,1,945,904.0000499999996) translate(48.71202256944444 62.77777777777778)"/><path d="M1080 905a6 6 0 0 1 6-6h108a6 6 0 0 1 6 6v108a6 6 0 0 1-6 6h-108a6 6 0 0 1-6-6z" stroke="#3a414a" stroke-width="2" fill="#fff"/><use xlink:href="#n" transform="matrix(1,0,0,1,1085,904.0000499999996) translate(43.72612847222222 62.77777777777778)"/><path d="M1220 905a6 6 0 0 1 6-6h108a6 6 0 0 1 6 6v108a6 6 0 0 1-6 6h-108a6 6 0 0 1-6-6z" stroke="#3a414a" stroke-width="2" fill="#fff"/><use xlink:href="#o" transform="matrix(1,0,0,1,1225,904.0000499999996) translate(48.12608506944444 62.77777777777778)"/><path d="M1360 905a6 6 0 0 1 6-6h108a6 6 0 0 1 6 6v108a6 6 0 0 1-6 6h-108a6 6 0 0 1-6-6z" stroke="#3a414a" stroke-width="2" fill="#fff"/><use xlink:href="#p" transform="matrix(1,0,0,1,1365,904.0000499999996) translate(43.59049479166667 62.77777777777778)"/><path d="M380 346a6 6 0 0 1 6-6h1108a6 6 0 0 1 6 6v24.9a6 6 0 0 1-6 6H386a6 6 0 0 1-6-6z" fill="none"/><use xlink:href="#q" transform="matrix(1,0,0,1,385,345) translate(0 21.58376736111111)"/><use xlink:href="#r" transform="matrix(1,0,0,1,385,345) translate(36.83810763888889 21.58376736111111)"/><use xlink:href="#s" transform="matrix(1,0,0,1,385,345) translate(172.8515625 21.58376736111111)"/><use xlink:href="#t" transform="matrix(1,0,0,1,385,345) translate(324.53342013888886 21.58376736111111)"/><use xlink:href="#u" transform="matrix(1,0,0,1,385,345) translate(464.83289930555554 21.58376736111111)"/><use xlink:href="#v" transform="matrix(1,0,0,1,385,345) translate(605.4796006944445 21.58376736111111)"/><use xlink:href="#w" transform="matrix(1,0,0,1,385,345) translate(741.5581597222223 21.58376736111111)"/><use xlink:href="#x" transform="matrix(1,0,0,1,385,345) translate(887.3155381944445 21.58376736111111)"/><use xlink:href="#y" transform="matrix(1,0,0,1,385,345) translate(1028.0381944444443 21.58376736111111)"/><path d="M380 865a6 6 0 0 1 6-6h1068a6 6 0 0 1 6 6v28a6 6 0 0 1-6 6H386a6 6 0 0 1-6-6z" fill="none"/><use xlink:href="#z" transform="matrix(1,0,0,1,385,864.0000499999996) translate(0 23.08376736111111)"/><use xlink:href="#A" transform="matrix(1,0,0,1,385,864.0000499999996) translate(21.05034722222222 23.08376736111111)"/><use xlink:href="#B" transform="matrix(1,0,0,1,385,864.0000499999996) translate(182.85590277777774 23.08376736111111)"/><use xlink:href="#C" transform="matrix(1,0,0,1,385,864.0000499999996) translate(318.3159722222222 23.08376736111111)"/><use xlink:href="#D" transform="matrix(1,0,0,1,385,864.0000499999996) translate(458.65885416666663 23.08376736111111)"/><use xlink:href="#E" transform="matrix(1,0,0,1,385,864.0000499999996) translate(604.1449652777777 23.08376736111111)"/><use xlink:href="#F" transform="matrix(1,0,0,1,385,864.0000499999996) translate(743.5112847222222 23.08376736111111)"/><use xlink:href="#G" transform="matrix(1,0,0,1,385,864.0000499999996) translate(883.2248263888888 23.08376736111111)"/><use xlink:href="#H" transform="matrix(1,0,0,1,385,864.0000499999996) translate(1023.6328124999999 23.08376736111111)"/><path d="M580 502v33a6 6 0 0 0 6 6h128a6 6 0 0 0 6-6v-33" stroke="#3a414a" stroke-width="2" fill="none"/><path d="M580.98 502.03H579V501H581zM720.98 502.03H719V501H721z" stroke="#3a414a" stroke-width=".05" fill="#3a414a"/><path d="M860 502v33a6 6 0 0 0 6 6h128a6 6 0 0 0 6-6v-33" stroke="#3a414a" stroke-width="2" fill="none"/><path d="M860.98 502.03H859V501H861zM1000.98 502.03H999V501h1.96z" stroke="#3a414a" stroke-width=".05" fill="#3a414a"/><path d="M1140 502v33a6 6 0 0 0 6 6h128a6 6 0 0 0 6-6v-33" stroke="#3a414a" stroke-width="2" fill="none"/><path d="M1140.97 502.03h-1.94V501h1.94zM1280.97 502.03h-1.94V501h1.94zM1420.97 794.04l-.08 1.05-.26 1.06-.42 1-.58.94-.7.83-.84.72-.93.57-1 .42-1.08.25-1.06.08h-968l-.83.06-.75.18-.73.3-.67.42-.6.5-.5.6-.43.68-.3.73-.18.76-.06.84V897h-1.96v-91.04l.1-1.05.24-1.06.42-1 .58-.94.7-.83.84-.72.93-.57 1-.42 1.08-.25 1.06-.08h968l.83-.06.75-.18.73-.3.67-.42.6-.5.5-.6.42-.68.3-.73.2-.76.06-.84V502h1.94z" stroke="#3a414a" stroke-width=".05" fill="#3a414a"/><path d="M1420.97 502.03h-1.94V501h1.94z" fill="#3a414a"/><path stroke="#3a414a" stroke-width=".05" fill="#3a414a"/><path d="M440.98 898h-1.96v-1.03h1.96z" fill="#3a414a"/><path stroke="#3a414a" stroke-width=".05" fill="#3a414a"/><path d="M580 1021v33a6 6 0 0 0 6 6h128a6 6 0 0 0 6-6v-33" stroke="#3a414a" stroke-width="2" fill="none"/><path d="M580.98 1021.03H579V1020H581zM720.98 1021.03H719V1020H721z" stroke="#3a414a" stroke-width=".05" fill="#3a414a"/><path d="M860 1021v33a6 6 0 0 0 6 6h128a6 6 0 0 0 6-6v-33" stroke="#3a414a" stroke-width="2" fill="none"/><path d="M860.98 1021.03H859V1020H861zM1000.98 1021.03H999V1020h1.96z" stroke="#3a414a" stroke-width=".05" fill="#3a414a"/><path d="M1140 1021v33a6 6 0 0 0 6 6h128a6 6 0 0 0 6-6v-33" stroke="#3a414a" stroke-width="2" fill="none"/><path d="M1140.97 1021.03h-1.94V1020h1.94zM1280.97 1021.03h-1.94V1020h1.94z" stroke="#3a414a" stroke-width=".05" fill="#3a414a"/><path d="M612.13 573.96l.06.83.17.75.3.73.42.67.5.6.6.5.67.43.73.3.77.18.82.06h23.38V581H617.1l-1.04-.1-1.06-.24-1.02-.42-.93-.58-.83-.7-.7-.84-.6-.93-.4-1-.26-1.08-.08-1.06V559.5h1.95zm93.3.08l-.08 1.05-.25 1.06-.42 1-.57.94-.7.83-.84.72-.93.57-1 .42-1.08.25-1.05.08h-50.26V579h50.18l.83-.06.76-.18.74-.3.67-.42.6-.5.52-.6.42-.68.3-.73.18-.76.07-.84V542h1.94z" stroke="#979ea8" stroke-width=".05" fill="#979ea8"/><path d="M705.44 542.03h-1.95V541h1.94z" stroke="#979ea8" stroke-width=".05" fill="#979ea8"/><path d="M615.8 558.5h-9.28l4.63-14.26z" fill="#979ea8"/><path d="M617.13 559.48h-11.96l5.98-18.4zm-9.27-1.95h6.6l-3.3-10.14z" stroke="#979ea8" stroke-width=".05" fill="#979ea8"/><use xlink:href="#I" transform="matrix(1,0,0,1,640.5761547483899,569.2447916666666) translate(0 17.22222222222222)"/><path d="M673.43 613.96l.07.83.18.75.3.73.42.67.5.6.6.5.68.43.73.3.77.18.83.06h123.07V621H678.42l-1.05-.1-1.07-.24-1-.42-.94-.58-.84-.7-.7-.84-.58-.93-.42-1-.25-1.08-.1-1.06V598.5h1.96zm308.66.08l-.1 1.05-.25 1.06-.42 1-.57.94-.7.83-.84.72-.94.57-1 .42-1.07.25-1.05.08H812.77V619h162.3l.83-.06.77-.18.73-.3.67-.42.6-.5.5-.6.42-.68.3-.73.18-.76.06-.84V542h1.95z" stroke="#979ea8" stroke-width=".05" fill="#979ea8"/><path d="M982.1 542.03h-1.96V541h1.95z" stroke="#979ea8" stroke-width=".05" fill="#979ea8"/><path d="M677.1 597.5h-9.28l4.64-14.26z" fill="#979ea8"/><path d="M678.44 598.48h-11.96l5.98-18.4zm-9.28-1.95h6.6l-3.3-10.14z" stroke="#979ea8" stroke-width=".05" fill="#979ea8"/><use xlink:href="#J" transform="matrix(1,0,0,1,801.5723196730123,609.2447916666666) translate(0 17.22222222222222)"/><path d="M851.27 663.96l.07.83.18.75.3.73.4.67.53.6.6.5.67.43.73.3.76.18.84.06h182.93V671h-183l-1.06-.1-1.06-.24-1-.42-.94-.58-.84-.7-.7-.84-.58-.93-.42-1-.25-1.08-.08-1.06V638.5h1.95zm409.1.08l-.07 1.05-.25 1.06-.42 1-.58.94-.7.83-.84.72-.92.57-1 .42-1.08.25-1.05.08h-202.7V669h202.62l.83-.06.76-.18.73-.3.66-.42.6-.5.5-.6.42-.68.3-.73.2-.76.05-.84V542h1.95z" stroke="#979ea8" stroke-width=".05" fill="#979ea8"/><path d="M1260.38 542.03h-1.95V541h1.95z" stroke="#979ea8" stroke-width=".05" fill="#979ea8"/><path d="M854.93 637.5h-9.27l4.64-14.26z" fill="#979ea8"/><path d="M856.27 638.48h-11.95l5.98-18.4zm-9.27-1.95h6.6l-3.3-10.14z" stroke="#979ea8" stroke-width=".05" fill="#979ea8"/><use xlink:href="#K" transform="matrix(1,0,0,1,1039.2737079717922,659.2447916666666) translate(0 17.22222222222222)"/><path d="M1235.83 729.04l-.08 1.05-.26 1.06-.43 1-.57.94-.7.83-.85.72-.93.57-1 .42-1.08.25-1.05.08H463.3l-.8.06-.78.18-.73.3-.68.42-.6.5-.5.6-.42.68-.3.73-.2.76-.05.84V799h-1.95v-58.04l.08-1.05.26-1.06.42-1 .57-.94.7-.83.84-.72.93-.57 1.02-.42 1.06-.25 1.05-.08h765.6l.8-.06.78-.18.73-.3.68-.42.6-.5.52-.6.4-.68.3-.73.2-.76.06-.84V688.5h1.95z" stroke="#979ea8" stroke-width=".05" fill="#979ea8"/><path d="M458.25 800h-1.95v-1.03h1.95z" stroke="#979ea8" stroke-width=".05" fill="#979ea8"/><path d="M1239.5 687.5h-9.28l4.63-14.26z" fill="#979ea8"/><path d="M1240.83 688.48h-11.95l5.97-18.4zm-9.27-1.95h6.6l-3.3-10.14z" stroke="#979ea8" stroke-width=".05" fill="#979ea8"/><use xlink:href="#L" transform="matrix(1,0,0,1,814.6582224568201,709.4895833333334) translate(0 17.22222222222222)"/><path d="M509.66 689.1l1.06.26 1.02.42.93.58.83.7.7.84.58.93.42 1 .26 1.08.08 1.06v20.54h-1.95v-20.46l-.07-.83-.2-.75-.3-.73-.4-.67-.5-.6-.6-.5-.68-.43-.73-.3-.77-.18-.82-.06h-142.5l-.82.06-.75.18-.73.3-.67.42-.6.5-.5.6-.43.68-.3.73-.18.76-.06.84v387.92l.06.83.18.75.3.73.42.67.5.6.6.5.68.42.73.3.76.2.84.06h99.75v1.94h-99.84l-1.05-.08-1.06-.26-1-.42-.94-.58-.83-.7-.7-.84-.6-.93-.4-1-.26-1.08-.08-1.06V695.96l.1-1.05.24-1.06.42-1 .58-.94.7-.83.84-.72.93-.57 1-.42 1.08-.25 1.06-.08H508.6zm187.6 394.94l-.1 1.05-.25 1.06-.4 1-.58.94-.7.83-.84.7-.94.6-1 .4-1.07.26-1.05.07H477.15v-1.94h213.1l.8-.07.78-.18.73-.3.67-.42.6-.5.5-.6.42-.68.3-.73.2-.76.05-.84V1061h1.95z" stroke="#979ea8" stroke-width=".05" fill="#979ea8"/><path d="M697.25 1061.03h-1.95V1060h1.95z" stroke="#979ea8" stroke-width=".05" fill="#979ea8"/><path d="M514.57 731.76l-4.64-14.26h9.27z" fill="#979ea8"/><path d="M514.57 734.92l-5.98-18.4h11.94zm-3.3-16.45l3.3 10.14 3.3-10.13z" stroke="#979ea8" stroke-width=".05" fill="#979ea8"/><g><use xlink:href="#M" transform="matrix(1,0,0,1,465.7885133064833,1079.2447916666667) translate(0 17.22222222222222)"/></g><path d="M589.6 1163.96l.06.83.2.75.3.73.4.67.5.6.6.5.68.42.73.3.77.2.82.06h156.16v1.94H594.58l-1.05-.08-1.06-.26-1.02-.42-.93-.58-.83-.7-.72-.84-.58-.93-.4-1-.27-1.08-.08-1.06v-55.54h1.95zm387.58.08l-.08 1.05-.26 1.06-.42 1-.57.94-.7.83-.84.7-.93.6-1 .4-1.07.26-1.06.07H762.36v-1.94h207.8l.83-.07.76-.18.73-.3.66-.42.6-.5.5-.6.42-.68.3-.73.2-.76.05-.84V1061h1.95z" stroke="#979ea8" stroke-width=".05" fill="#979ea8"/><path d="M977.18 1061.03h-1.95V1060h1.95z" stroke="#979ea8" stroke-width=".05" fill="#979ea8"/><path d="M593.26 1107.5H584l4.62-14.26z" fill="#979ea8"/><path d="M594.6 1108.48h-11.96l5.98-18.4zm-9.27-1.95h6.58l-3.28-10.14z" stroke="#979ea8" stroke-width=".05" fill="#979ea8"/><g><use xlink:href="#N" transform="matrix(1,0,0,1,750.8184969496809,1159.2447916666667) translate(0 17.22222222222222)"/></g><path d="M886.95 1243.96l.07.83.18.75.3.73.4.67.53.6.6.5.67.42.72.3.77.2.8.06h190.23v1.94h-190.3l-1.04-.08-1.08-.26-1-.42-.95-.58-.83-.7-.7-.84-.58-.93-.42-1-.25-1.08-.1-1.06v-55.54h1.95zm394.02.08l-.08 1.05-.26 1.06-.42 1-.58.94-.7.83-.84.7-.93.6-1 .4-1.08.26-1.06.07h-181.47v-1.94h181.4l.82-.07.75-.18.73-.3.67-.42.6-.5.5-.6.42-.68.3-.73.2-.76.06-.84V1021h1.94z" stroke="#979ea8" stroke-width=".05" fill="#979ea8"/><path d="M1280.97 1021.03h-1.94V1020h1.94z" fill="#979ea8"/><path stroke="#979ea8" stroke-width=".05" fill="#979ea8"/><path d="M890.6 1187.5h-9.26l4.64-14.26z" fill="#979ea8"/><path d="M891.95 1188.48H880l5.98-18.4zm-9.27-1.95h6.6l-3.3-10.14z" stroke="#979ea8" stroke-width=".05" fill="#979ea8"/><g><use xlink:href="#O" transform="matrix(1,0,0,1,1082.23534175174,1239.2447916666667) translate(0 17.22222222222222)"/></g><defs><path d="M653-1490V0H466v-1314h-10L96-1047v-204l324-239h233" id="P"/><use transform="matrix(0.010850694444444444,0,0,0.010850694444444444,0,0)" xlink:href="#P" id="a"/><path d="M603 20c-253 0-434-161-469-399h188c31 132 124 231 281 231 227 0 367-207 367-568h-12c-80 122-211 199-367 199-257 0-469-206-469-493 0-278 200-505 506-500 245 4 520 158 520 706 0 527-208 824-545 824zm16-703c181 0 324-157 324-332 0-171-135-328-318-328-180 0-317 148-317 332 0 183 131 328 311 328" id="Q"/><use transform="matrix(0.010850694444444444,0,0,0.010850694444444444,0,0)" xlink:href="#Q" id="b"/><path d="M154 0v-137l495-537c165-179 249-281 249-418 0-156-121-253-280-253-170 0-278 110-278 278H158c0-264 200-443 465-443 266 0 455 183 455 416 0 161-73 288-336 568L416-179v12h687V0H154" id="R"/><use transform="matrix(0.010850694444444444,0,0,0.010850694444444444,0,0)" xlink:href="#R" id="c"/><path d="M646 20c-332 0-524-278-524-764 0-483 194-766 524-766s524 283 524 766c0 485-191 764-524 764zm0-166c218 0 341-220 341-598 0-380-123-601-341-601s-341 222-341 601c0 378 123 598 341 598" id="S"/><g id="d"><use transform="matrix(0.010850694444444444,0,0,0.010850694444444444,0,0)" xlink:href="#P"/><use transform="matrix(0.010850694444444444,0,0,0.010850694444444444,9.038628472222221,0)" xlink:href="#S"/></g><path d="M635 20c-292 0-500-160-510-396h192c11 142 145 229 315 229 187 0 323-105 323-260 0-161-125-274-346-274H488v-165h121c174 0 294-100 294-254 0-148-104-245-266-245-152 0-291 85-297 230H157c8-234 222-395 484-395 278 0 448 188 448 400 0 168-95 291-247 336v12c190 31 301 169 301 357 0 244-216 425-508 425" id="T"/><use transform="matrix(0.010850694444444444,0,0,0.010850694444444444,0,0)" xlink:href="#T" id="e"/><g id="f"><use transform="matrix(0.010850694444444444,0,0,0.010850694444444444,0,0)" xlink:href="#P"/><use transform="matrix(0.010850694444444444,0,0,0.010850694444444444,9.038628472222221,0)" xlink:href="#P"/></g><path d="M120-303v-155l652-1032h231v1020h202v167h-202V0H821v-303H120zm702-167v-782h-12L323-482v12h499" id="U"/><use transform="matrix(0.010850694444444444,0,0,0.010850694444444444,0,0)" xlink:href="#U" id="g"/><g id="h"><use transform="matrix(0.010850694444444444,0,0,0.010850694444444444,0,0)" xlink:href="#P"/><use transform="matrix(0.010850694444444444,0,0,0.010850694444444444,9.038628472222221,0)" xlink:href="#R"/></g><path d="M626 20c-262 0-458-168-468-396h184c12 133 134 229 284 229 180 0 311-137 311-326 0-192-136-335-323-335-92 0-196 33-255 78l-178-22 88-738h784v167H429l-51 435h8c61-51 160-87 263-87 273 0 474 211 474 499 0 286-210 496-497 496" id="V"/><use transform="matrix(0.010850694444444444,0,0,0.010850694444444444,0,0)" xlink:href="#V" id="i"/><g id="j"><use transform="matrix(0.010850694444444444,0,0,0.010850694444444444,0,0)" xlink:href="#P"/><use transform="matrix(0.010850694444444444,0,0,0.010850694444444444,9.038628472222221,0)" xlink:href="#T"/></g><path d="M646 20c-249 0-524-159-524-708 0-524 209-822 547-822 250 0 431 161 467 395H950c-33-129-126-227-281-227-229 0-367 208-367 566h12c80-124 212-198 367-198 255 0 467 205 467 493 0 278-198 501-502 501zm0-167c179 0 318-148 318-334 0-182-133-328-313-328-181 0-322 156-322 330 0 176 134 332 317 332" id="W"/><use transform="matrix(0.010850694444444444,0,0,0.010850694444444444,0,0)" xlink:href="#W" id="k"/><g id="l"><use transform="matrix(0.010850694444444444,0,0,0.010850694444444444,0,0)" xlink:href="#P"/><use transform="matrix(0.010850694444444444,0,0,0.010850694444444444,9.038628472222221,0)" xlink:href="#U"/></g><path d="M200 0l662-1311v-12H98v-167h963v177L400 0H200" id="X"/><use transform="matrix(0.010850694444444444,0,0,0.010850694444444444,0,0)" xlink:href="#X" id="m"/><g id="n"><use transform="matrix(0.010850694444444444,0,0,0.010850694444444444,0,0)" xlink:href="#P"/><use transform="matrix(0.010850694444444444,0,0,0.010850694444444444,9.038628472222221,0)" xlink:href="#V"/></g><path d="M633 20c-303 0-511-173-511-416 0-188 124-348 291-378v-8c-145-37-237-174-237-332 0-227 192-396 457-396 261 0 456 169 456 396 0 158-94 295-235 332v8c162 30 291 190 291 378 0 243-212 416-512 416zm0-165c197 0 322-103 322-261 0-165-138-283-322-283-188 0-324 118-324 283 0 158 123 261 324 261zm0-703c157 0 272-101 272-252 0-149-110-246-272-246-165 0-273 97-273 246 0 151 112 252 273 252" id="Y"/><use transform="matrix(0.010850694444444444,0,0,0.010850694444444444,0,0)" xlink:href="#Y" id="o"/><g id="p"><use transform="matrix(0.010850694444444444,0,0,0.010850694444444444,0,0)" xlink:href="#P"/><use transform="matrix(0.010850694444444444,0,0,0.010850694444444444,9.038628472222221,0)" xlink:href="#W"/></g><path fill="#6f7681" d="M595 20C218 20 45-261 124-744c80-483 349-766 724-766 374 0 549 282 470 765-80 485-346 765-723 765zm41-253c185 0 317-186 371-512 53-325-16-513-201-513-181 0-316 183-371 514-53 326 17 511 201 511" id="Z"/><use transform="matrix(0.010850694444444444,0,0,0.010850694444444444,0,0)" xlink:href="#Z" id="r"/><path fill="#6f7681" d="M903-1490L656 0H352l203-1221h-10L163-980l46-279 368-231h326" id="aa"/><use transform="matrix(0.010850694444444444,0,0,0.010850694444444444,0,0)" xlink:href="#aa" id="s"/><path fill="#6f7681" d="M31 0l37-220 609-495c159-133 252-221 271-342 22-133-58-209-189-209-139 0-255 88-279 233H189c48-290 275-477 585-477 316 0 511 183 468 441-28 168-124 307-472 585L507-262l-2 11h622L1086 0H31" id="ab"/><use transform="matrix(0.010850694444444444,0,0,0.010850694444444444,0,0)" xlink:href="#ab" id="t"/><path fill="#6f7681" d="M572 20C248 20 37-159 76-418h307c-13 112 82 185 223 185 146 0 264-82 284-203 21-124-71-210-243-210H509l38-227h138c143 0 258-80 278-200 19-115-54-193-183-193-132 0-250 74-272 189H214c46-255 298-433 600-433 305 0 487 185 448 418-27 168-161 285-332 317l-1 11c213 29 306 163 275 347-42 255-302 437-632 437" id="ac"/><use transform="matrix(0.010850694444444444,0,0,0.010850694444444444,0,0)" xlink:href="#ac" id="u"/><path fill="#6f7681" d="M53-265l39-241 787-984h383l-162 979h186l-41 246h-186L1015 0H722l44-265H53zm759-246l107-643h-12L403-523l-2 12h411" id="ad"/><use transform="matrix(0.010850694444444444,0,0,0.010850694444444444,0,0)" xlink:href="#ad" id="v"/><path fill="#6f7681" d="M577 20C271 20 69-163 105-418h298c-14 116 68 196 196 196 148 0 282-107 308-267s-58-269-208-269c-88 0-193 38-249 98l-266-48 202-782h902l-42 252H597L496-861h8c65-72 177-124 305-124 269 0 443 204 395 490-50 300-300 515-627 515" id="ae"/><use transform="matrix(0.010850694444444444,0,0,0.010850694444444444,0,0)" xlink:href="#ae" id="w"/><path fill="#6f7681" d="M608 20C305 20 28-164 118-710c83-502 348-800 713-800 293 0 485 188 475 433h-301c-7-108-75-170-189-170-197 0-339 183-388 476h10c91-132 228-208 388-208 264 0 446 202 399 482-50 302-289 517-617 517zm8-242c147 0 286-115 311-267 26-150-54-267-203-267-151 0-288 120-313 268-23 147 58 266 205 266" id="af"/><use transform="matrix(0.010850694444444444,0,0,0.010850694444444444,0,0)" xlink:href="#af" id="x"/><path fill="#6f7681" d="M76 0l823-1228 2-10H188l42-252h1040l-42 256L402 0H76" id="ag"/><use transform="matrix(0.010850694444444444,0,0,0.010850694444444444,0,0)" xlink:href="#ag" id="y"/><path fill="#6f7681" d="M587 20C253 20 27-158 67-401c31-187 195-339 381-369l1-9c-152-33-238-168-211-330 38-232 270-401 568-401s507 170 469 400c-27 164-161 298-321 331l-1 9c172 30 291 183 259 371-41 242-293 419-625 419zm16-226c151 0 274-88 295-219 21-130-67-225-214-225-145 0-273 91-296 224-22 129 60 220 215 220zm111-668c128 0 238-85 257-204 20-119-55-199-183-199s-236 78-257 199c-20 120 55 204 183 204" id="ah"/><use transform="matrix(0.010850694444444444,0,0,0.010850694444444444,0,0)" xlink:href="#ah" id="A"/><path fill="#6f7681" d="M573 22C279 22 73-168 85-415h301c7 108 76 174 193 174 196 0 335-183 385-479h-10c-91 131-244 209-405 209-267 0-430-204-384-483 50-296 291-520 625-518 303 2 572 189 482 731-83 501-333 803-699 803zm102-757c145 0 279-118 304-266 25-145-64-267-214-267-145 0-277 115-302 268-24 148 62 265 212 265" id="ai"/><use transform="matrix(0.010850694444444444,0,0,0.010850694444444444,0,0)" xlink:href="#ai" id="B"/><g id="C"><use transform="matrix(0.010850694444444444,0,0,0.010850694444444444,0,0)" xlink:href="#aa"/><use transform="matrix(0.010850694444444444,0,0,0.010850694444444444,9.59201388888889,0)" xlink:href="#Z"/></g><g id="D"><use transform="matrix(0.010850694444444444,0,0,0.010850694444444444,0,0)" xlink:href="#aa"/><use transform="matrix(0.010850694444444444,0,0,0.010850694444444444,9.59201388888889,0)" xlink:href="#aa"/></g><g id="E"><use transform="matrix(0.010850694444444444,0,0,0.010850694444444444,0,0)" xlink:href="#aa"/><use transform="matrix(0.010850694444444444,0,0,0.010850694444444444,9.59201388888889,0)" xlink:href="#ab"/></g><g id="F"><use transform="matrix(0.010850694444444444,0,0,0.010850694444444444,0,0)" xlink:href="#aa"/><use transform="matrix(0.010850694444444444,0,0,0.010850694444444444,9.59201388888889,0)" xlink:href="#ac"/></g><g id="G"><use transform="matrix(0.010850694444444444,0,0,0.010850694444444444,0,0)" xlink:href="#aa"/><use transform="matrix(0.010850694444444444,0,0,0.010850694444444444,9.59201388888889,0)" xlink:href="#ad"/></g><g id="H"><use transform="matrix(0.010850694444444444,0,0,0.010850694444444444,0,0)" xlink:href="#aa"/><use transform="matrix(0.010850694444444444,0,0,0.010850694444444444,9.59201388888889,0)" xlink:href="#ae"/></g><path fill="#333" d="M749-1490V0H444v-1221h-10L93-980v-279l329-231h327" id="aj"/><use transform="matrix(0.008680555555555556,0,0,0.008680555555555556,0,0)" xlink:href="#aj" id="I"/><path fill="#333" d="M124 0v-220l528-495c135-132 210-216 210-336 0-133-98-215-231-215-139 0-229 88-229 233H110c0-290 214-477 523-477 315 0 525 182 525 440 0 167-80 305-385 586L548-262v11h630V0H124" id="ak"/><use transform="matrix(0.008680555555555556,0,0,0.008680555555555556,0,0)" xlink:href="#ak" id="J"/><path fill="#333" d="M659 20C335 20 103-159 99-418h307c5 112 113 185 254 185 147 0 250-83 250-204 0-123-105-209-278-209H494v-227h138c145 0 246-81 246-200 0-115-87-193-216-193-130 0-237 73-240 189H128c4-255 233-433 536-433 306 0 510 185 510 418 0 167-114 285-279 317v11c217 29 333 162 333 347 0 254-237 437-569 437" id="al"/><use transform="matrix(0.008680555555555556,0,0,0.008680555555555556,0,0)" xlink:href="#al" id="K"/><path fill="#333" d="M101-265v-241l623-984h383v979h186v246h-186V0H814v-265H101zm719-246v-643h-12L409-523v12h411" id="am"/><use transform="matrix(0.008680555555555556,0,0,0.008680555555555556,0,0)" xlink:href="#am" id="L"/><path fill="#333" d="M664 20c-306 0-529-183-535-438h297c6 117 110 196 238 196 149 0 255-108 255-266 0-159-108-270-261-270-89 0-178 39-224 98l-274-48 72-782h901v252H485l-39 377h8c53-72 165-124 294-124 269 0 467 204 467 490 0 300-224 515-551 515" id="an"/><use transform="matrix(0.008680555555555556,0,0,0.008680555555555556,0,0)" xlink:href="#an" id="M"/><path fill="#333" d="M684 20C381 20 94-164 94-710c0-501 235-800 601-800 293 0 496 188 526 433H921c-25-105-108-170-226-170-197 0-301 182-301 476h10c67-130 211-208 374-208 263 0 459 201 459 481 0 301-224 518-553 518zm-2-242c147 0 258-116 258-268 0-150-108-266-256-266-146 0-259 121-259 267 0 147 109 267 257 267" id="ao"/><use transform="matrix(0.008680555555555556,0,0,0.008680555555555556,0,0)" xlink:href="#ao" id="N"/><path fill="#333" d="M177 0l620-1228v-10H75v-252h1041v256L494 0H177" id="ap"/><use transform="matrix(0.008680555555555556,0,0,0.008680555555555556,0,0)" xlink:href="#ap" id="O"/></defs></g></svg>