<svg xmlns="http://www.w3.org/2000/svg" xmlns:xlink="http://www.w3.org/1999/xlink" xmlns:lucid="lucid" width="640.5" height="521.83"><g transform="translate(-700 -140)" lucid:page-tab-id="0_0"><path d="M900 206a6 6 0 0 1 6-6h76a6 6 0 0 1 6 6v49.33a6 6 0 0 1-6 6h-76a6 6 0 0 1-6-6z" stroke="#3a414a" fill="#fff0f0"/><use xlink:href="#a" transform="matrix(1,0,0,1,905,204.9999999999999) translate(32.82716049382716 30.77777777777778)"/><path d="M988 206a6 6 0 0 1 6-6h76a6 6 0 0 1 6 6v49.33a6 6 0 0 1-6 6h-76a6 6 0 0 1-6-6z" stroke="#3a414a" fill="#fff0f0"/><use xlink:href="#b" transform="matrix(1,0,0,1,993,204.99999999999983) translate(32.82716049382716 30.77777777777778)"/><path d="M1076 206a6 6 0 0 1 6-6h76a6 6 0 0 1 6 6v49.33a6 6 0 0 1-6 6h-76a6 6 0 0 1-6-6z" stroke="#3a414a" fill="#fff0f0"/><use xlink:href="#c" transform="matrix(1,0,0,1,1081,204.99999999999983) translate(32.82716049382716 30.77777777777778)"/><path d="M1164 206a6 6 0 0 1 6-6h76a6 6 0 0 1 6 6v49.33a6 6 0 0 1-6 6h-76a6 6 0 0 1-6-6z" stroke="#3a414a" fill="#fff0f0"/><use xlink:href="#d" transform="matrix(1,0,0,1,1169,204.99999999999983) translate(32.82716049382716 30.77777777777778)"/><path d="M1252 206a6 6 0 0 1 6-6h76a6 6 0 0 1 6 6v49.33a6 6 0 0 1-6 6h-76a6 6 0 0 1-6-6z" stroke="#3a414a" fill="#fff0f0"/><use xlink:href="#e" transform="matrix(1,0,0,1,1257,204.9999999999999) translate(32.82716049382716 30.77777777777778)"/><path d="M900 306a6 6 0 0 1 6-6h76a6 6 0 0 1 6 6v49.33a6 6 0 0 1-6 6h-76a6 6 0 0 1-6-6z" stroke="#3a414a" fill="#fff0f0"/><use xlink:href="#b" transform="matrix(1,0,0,1,905,305.0000000000001) translate(32.82716049382716 30.77777777777778)"/><path d="M988 306a6 6 0 0 1 6-6h76a6 6 0 0 1 6 6v49.33a6 6 0 0 1-6 6h-76a6 6 0 0 1-6-6z" stroke="#3a414a" fill="#fff0f0"/><use xlink:href="#c" transform="matrix(1,0,0,1,993,305) translate(32.82716049382716 30.77777777777778)"/><path d="M1076 306a6 6 0 0 1 6-6h76a6 6 0 0 1 6 6v49.33a6 6 0 0 1-6 6h-76a6 6 0 0 1-6-6z" stroke="#3a414a" fill="#fff0f0"/><use xlink:href="#d" transform="matrix(1,0,0,1,1081,305) translate(32.82716049382716 30.77777777777778)"/><path d="M1164 306a6 6 0 0 1 6-6h76a6 6 0 0 1 6 6v49.33a6 6 0 0 1-6 6h-76a6 6 0 0 1-6-6z" stroke="#3a414a" fill="#fff0f0"/><use xlink:href="#e" transform="matrix(1,0,0,1,1169,305) translate(32.82716049382716 30.77777777777778)"/><path d="M1252 306a6 6 0 0 1 6-6h76a6 6 0 0 1 6 6v49.33a6 6 0 0 1-6 6h-76a6 6 0 0 1-6-6z" stroke="#3a414a" fill-opacity="0"/><use xlink:href="#a" transform="matrix(1,0,0,1,1257,305.0000000000001) translate(32.82716049382716 30.77777777777778)"/><path d="M900 406a6 6 0 0 1 6-6h76a6 6 0 0 1 6 6v49.33a6 6 0 0 1-6 6h-76a6 6 0 0 1-6-6z" stroke="#3a414a" fill="#fff0f0"/><use xlink:href="#c" transform="matrix(1,0,0,1,905,405.0000000000002) translate(32.82716049382716 30.77777777777778)"/><path d="M988 406a6 6 0 0 1 6-6h76a6 6 0 0 1 6 6v49.33a6 6 0 0 1-6 6h-76a6 6 0 0 1-6-6z" stroke="#3a414a" fill="#fff0f0"/><use xlink:href="#d" transform="matrix(1,0,0,1,993,405.0000000000001) translate(32.82716049382716 30.77777777777778)"/><path d="M1076 406a6 6 0 0 1 6-6h76a6 6 0 0 1 6 6v49.33a6 6 0 0 1-6 6h-76a6 6 0 0 1-6-6z" stroke="#3a414a" fill="#fff0f0"/><use xlink:href="#e" transform="matrix(1,0,0,1,1081,405.0000000000001) translate(32.82716049382716 30.77777777777778)"/><path d="M1164 406a6 6 0 0 1 6-6h76a6 6 0 0 1 6 6v49.33a6 6 0 0 1-6 6h-76a6 6 0 0 1-6-6z" stroke="#3a414a" fill-opacity="0"/><use xlink:href="#b" transform="matrix(1,0,0,1,1169,405.0000000000001) translate(32.82716049382716 30.77777777777778)"/><path d="M1252 406a6 6 0 0 1 6-6h76a6 6 0 0 1 6 6v49.33a6 6 0 0 1-6 6h-76a6 6 0 0 1-6-6z" stroke="#3a414a" fill-opacity="0"/><use xlink:href="#a" transform="matrix(1,0,0,1,1257,405.0000000000002) translate(32.82716049382716 30.77777777777778)"/><path d="M900 506a6 6 0 0 1 6-6h76a6 6 0 0 1 6 6v49.33a6 6 0 0 1-6 6h-76a6 6 0 0 1-6-6z" stroke="#3a414a" fill="#fff0f0"/><use xlink:href="#d" transform="matrix(1,0,0,1,905,505.00000000000034) translate(32.82716049382716 30.77777777777778)"/><path d="M988 506a6 6 0 0 1 6-6h76a6 6 0 0 1 6 6v49.33a6 6 0 0 1-6 6h-76a6 6 0 0 1-6-6z" stroke="#3a414a" fill="#fff0f0"/><use xlink:href="#e" transform="matrix(1,0,0,1,993,505.00000000000034) translate(32.82716049382716 30.77777777777778)"/><path d="M1076 506a6 6 0 0 1 6-6h76a6 6 0 0 1 6 6v49.33a6 6 0 0 1-6 6h-76a6 6 0 0 1-6-6z" stroke="#3a414a" fill-opacity="0"/><use xlink:href="#c" transform="matrix(1,0,0,1,1081,505.00000000000034) translate(32.82716049382716 30.77777777777778)"/><path d="M1164 506a6 6 0 0 1 6-6h76a6 6 0 0 1 6 6v49.33a6 6 0 0 1-6 6h-76a6 6 0 0 1-6-6z" stroke="#3a414a" fill-opacity="0"/><use xlink:href="#b" transform="matrix(1,0,0,1,1169,505.00000000000034) translate(32.82716049382716 30.77777777777778)"/><path d="M1252 506a6 6 0 0 1 6-6h76a6 6 0 0 1 6 6v49.33a6 6 0 0 1-6 6h-76a6 6 0 0 1-6-6z" stroke="#3a414a" fill-opacity="0"/><use xlink:href="#a" transform="matrix(1,0,0,1,1257,505.00000000000034) translate(32.82716049382716 30.77777777777778)"/><path d="M900 606a6 6 0 0 1 6-6h76a6 6 0 0 1 6 6v49.33a6 6 0 0 1-6 6h-76a6 6 0 0 1-6-6z" stroke="#3a414a" fill-opacity="0"/><use xlink:href="#e" transform="matrix(1,0,0,1,905,605.0000000000006) translate(32.82716049382716 30.77777777777778)"/><path d="M988 606a6 6 0 0 1 6-6h76a6 6 0 0 1 6 6v49.33a6 6 0 0 1-6 6h-76a6 6 0 0 1-6-6z" stroke="#3a414a" fill-opacity="0"/><use xlink:href="#d" transform="matrix(1,0,0,1,993,605.0000000000006) translate(32.82716049382716 30.77777777777778)"/><path d="M1076 606a6 6 0 0 1 6-6h76a6 6 0 0 1 6 6v49.33a6 6 0 0 1-6 6h-76a6 6 0 0 1-6-6z" stroke="#3a414a" fill-opacity="0"/><use xlink:href="#c" transform="matrix(1,0,0,1,1081,605.0000000000006) translate(32.82716049382716 30.77777777777778)"/><path d="M1164 606a6 6 0 0 1 6-6h76a6 6 0 0 1 6 6v49.33a6 6 0 0 1-6 6h-76a6 6 0 0 1-6-6z" stroke="#3a414a" fill-opacity="0"/><use xlink:href="#b" transform="matrix(1,0,0,1,1169,605.0000000000006) translate(32.82716049382716 30.77777777777778)"/><path d="M1252 606a6 6 0 0 1 6-6h76a6 6 0 0 1 6 6v49.33a6 6 0 0 1-6 6h-76a6 6 0 0 1-6-6z" stroke="#3a414a" fill-opacity="0"/><use xlink:href="#a" transform="matrix(1,0,0,1,1257,605.0000000000006) translate(32.82716049382716 30.77777777777778)"/><path d="M740 146a6 6 0 0 1 6-6h168a6 6 0 0 1 6 6v48a6 6 0 0 1-6 6H746a6 6 0 0 1-6-6z" stroke="#000" stroke-opacity="0" fill="#fff" fill-opacity="0"/><use xlink:href="#f" transform="matrix(1,0,0,1,745,145) translate(27.65432098765431 30.27777777777778)"/><path d="M700 506a6 6 0 0 1 6-6h228a6 6 0 0 1 6 6v48a6 6 0 0 1-6 6H706a6 6 0 0 1-6-6z" stroke="#000" stroke-opacity="0" fill="#fff" fill-opacity="0"/><use xlink:href="#e" transform="matrix(1,0,0,1,705,505.00000000000034) translate(108.82716049382717 30.27777777777778)"/><path d="M700 307.33a6 6 0 0 1 6-6h228a6 6 0 0 1 6 6v48a6 6 0 0 1-6 6H706a6 6 0 0 1-6-6z" stroke="#000" stroke-opacity="0" fill="#fff" fill-opacity="0"/><use xlink:href="#c" transform="matrix(1,0,0,1,705,306.33333333333337) translate(108.82716049382717 30.27777777777778)"/><path d="M700 407.33a6 6 0 0 1 6-6h228a6 6 0 0 1 6 6v48a6 6 0 0 1-6 6H706a6 6 0 0 1-6-6z" stroke="#000" stroke-opacity="0" fill="#fff" fill-opacity="0"/><use xlink:href="#d" transform="matrix(1,0,0,1,705,406.3333333333336) translate(108.82716049382717 30.27777777777778)"/><path d="M700 207.33a6 6 0 0 1 6-6h228a6 6 0 0 1 6 6v48a6 6 0 0 1-6 6H706a6 6 0 0 1-6-6z" stroke="#000" stroke-opacity="0" fill="#fff" fill-opacity="0"/><use xlink:href="#b" transform="matrix(1,0,0,1,705,206.33333333333337) translate(108.82716049382717 30.27777777777778)"/><path d="M700 606a6 6 0 0 1 6-6h228a6 6 0 0 1 6 6v48a6 6 0 0 1-6 6H706a6 6 0 0 1-6-6z" stroke="#000" stroke-opacity="0" fill="#fff" fill-opacity="0"/><use xlink:href="#g" transform="matrix(1,0,0,1,705,605.0000000000006) translate(108.82716049382717 30.27777777777778)"/><defs><path fill="#3a414a" d="M54-142c48-35 137-8 131 61C196 18 31 33 14-55l32-4c7 23 22 37 52 37 35-1 51-22 54-58 4-55-73-65-99-34H22l8-134h141v27H59" id="h"/><use transform="matrix(0.06172839506172839,0,0,0.06172839506172839,0,0)" xlink:href="#h" id="a"/><path fill="#3a414a" d="M155-56V0h-30v-56H8v-25l114-167h33v167h35v25h-35zm-30-156c-27 46-58 90-88 131h88v-131" id="i"/><use transform="matrix(0.06172839506172839,0,0,0.06172839506172839,0,0)" xlink:href="#i" id="b"/><path fill="#3a414a" d="M126-127c33 6 58 20 58 59 0 88-139 92-164 29-3-8-5-16-6-25l32-3c6 27 21 44 54 44 32 0 52-15 52-46 0-38-36-46-79-43v-28c39 1 72-4 72-42 0-27-17-43-46-43-28 0-47 15-49 41l-32-3c6-42 35-63 81-64 48-1 79 21 79 65 0 36-21 52-52 59" id="j"/><use transform="matrix(0.06172839506172839,0,0,0.06172839506172839,0,0)" xlink:href="#j" id="c"/><path fill="#3a414a" d="M101-251c82-7 93 87 43 132L82-64C71-53 59-42 53-27h129V0H18c2-99 128-94 128-182 0-28-16-43-45-43s-46 15-49 41l-32-3c6-41 34-60 81-64" id="k"/><use transform="matrix(0.06172839506172839,0,0,0.06172839506172839,0,0)" xlink:href="#k" id="d"/><path fill="#3a414a" d="M27 0v-27h64v-190l-56 39v-29l58-41h29v221h61V0H27" id="l"/><use transform="matrix(0.06172839506172839,0,0,0.06172839506172839,0,0)" xlink:href="#l" id="e"/><path fill="#3a414a" d="M14 0l48-248h34L48 0H14" id="m"/><path fill="#3a414a" d="M67-158c22-48 132-52 116 29L158 0h-32l25-140c3-38-53-32-70-12C52-117 51-52 38 0H6l36-190h30" id="n"/><path fill="#3a414a" d="M89 0H52L20-190h33L74-25l89-165h34" id="o"/><path fill="#3a414a" d="M111-194c62-3 86 47 72 106H45c-7 38 6 69 45 68 27-1 43-14 53-32l24 11C152-15 129 4 87 4 38 3 12-23 12-71c0-70 32-119 99-123zm44 81c14-66-71-72-95-28-4 8-8 17-11 28h106" id="p"/><path fill="#3a414a" d="M66-151c12-25 30-51 66-40l-6 26C45-176 58-65 38 0H6l36-190h30" id="q"/><path fill="#3a414a" d="M55-144c13 50 104 24 104 88C159 21 15 23 1-39l26-10c6 40 102 42 102-4-13-50-104-23-104-87 0-71 143-71 148-8l-29 4c-5-35-85-37-89 0" id="r"/><path fill="#3a414a" d="M50-231l6-30h32l-6 30H50zM6 0l37-190h31L37 0H6" id="s"/><path fill="#3a414a" d="M30-147c31-64 166-65 159 27C183-49 158 1 86 4 9 8 1-88 30-147zM88-20c53 0 68-48 68-100 0-31-11-51-44-50-52 1-68 46-68 97 0 32 13 53 44 53" id="t"/><g id="f"><use transform="matrix(0.06172839506172839,0,0,0.06172839506172839,0,0)" xlink:href="#m"/><use transform="matrix(0.06172839506172839,0,0,0.06172839506172839,6.172839506172839,0)" xlink:href="#n"/><use transform="matrix(0.06172839506172839,0,0,0.06172839506172839,18.51851851851852,0)" xlink:href="#o"/><use transform="matrix(0.06172839506172839,0,0,0.06172839506172839,29.62962962962963,0)" xlink:href="#p"/><use transform="matrix(0.06172839506172839,0,0,0.06172839506172839,41.97530864197531,0)" xlink:href="#q"/><use transform="matrix(0.06172839506172839,0,0,0.06172839506172839,49.32098765432099,0)" xlink:href="#r"/><use transform="matrix(0.06172839506172839,0,0,0.06172839506172839,60.4320987654321,0)" xlink:href="#s"/><use transform="matrix(0.06172839506172839,0,0,0.06172839506172839,65.30864197530865,0)" xlink:href="#t"/><use transform="matrix(0.06172839506172839,0,0,0.06172839506172839,77.65432098765433,0)" xlink:href="#n"/><use transform="matrix(0.06172839506172839,0,0,0.06172839506172839,90.00000000000001,0)" xlink:href="#p"/><use transform="matrix(0.06172839506172839,0,0,0.06172839506172839,102.3456790123457,0)" xlink:href="#n"/></g><path fill="#3a414a" d="M101-251c68 0 85 55 85 127S166 4 100 4C33 4 14-52 14-124c0-73 17-127 87-127zm-1 229c47 0 54-49 54-102s-4-102-53-102c-51 0-55 48-55 102 0 53 5 102 54 102" id="u"/><use transform="matrix(0.06172839506172839,0,0,0.06172839506172839,0,0)" xlink:href="#u" id="g"/></defs></g></svg>