<svg xmlns="http://www.w3.org/2000/svg" xmlns:xlink="http://www.w3.org/1999/xlink" xmlns:lucid="lucid" width="1160.5" height="981.88"><g transform="translate(-699.4999999601787 -279.4999999741511)" lucid:page-tab-id="0_0"><path d="M940 286a6 6 0 0 1 6-6h76a6 6 0 0 1 6 6v49.33a6 6 0 0 1-6 6h-76a6 6 0 0 1-6-6z" stroke="#3a414a" fill-opacity="0"/><use xlink:href="#a" transform="matrix(1,0,0,1,945,285) translate(32.82716049382716 30.77777777777778)"/><path d="M1028 286a6 6 0 0 1 6-6h76a6 6 0 0 1 6 6v49.33a6 6 0 0 1-6 6h-76a6 6 0 0 1-6-6z" stroke="#3a414a" fill-opacity="0"/><use xlink:href="#b" transform="matrix(1,0,0,1,1033,285) translate(32.82716049382716 30.77777777777778)"/><path d="M1116 286a6 6 0 0 1 6-6h76a6 6 0 0 1 6 6v49.33a6 6 0 0 1-6 6h-76a6 6 0 0 1-6-6z" stroke="#3a414a" fill-opacity="0"/><use xlink:href="#c" transform="matrix(1,0,0,1,1121,285) translate(32.82716049382716 30.77777777777778)"/><path d="M1204 286a6 6 0 0 1 6-6h76a6 6 0 0 1 6 6v49.33a6 6 0 0 1-6 6h-76a6 6 0 0 1-6-6z" stroke="#3a414a" fill-opacity="0"/><use xlink:href="#d" transform="matrix(1,0,0,1,1209,285) translate(32.82716049382716 30.77777777777778)"/><path d="M1292 286a6 6 0 0 1 6-6h76a6 6 0 0 1 6 6v49.33a6 6 0 0 1-6 6h-76a6 6 0 0 1-6-6z" stroke="#3a414a" fill="#fff"/><use xlink:href="#e" transform="matrix(1,0,0,1,1297,285) translate(32.82716049382716 30.77777777777778)"/><path d="M1380 286a6 6 0 0 1 6-6h76a6 6 0 0 1 6 6v49.33a6 6 0 0 1-6 6h-76a6 6 0 0 1-6-6z" stroke="#3a414a" fill="#fff"/><use xlink:href="#f" transform="matrix(1,0,0,1,1385,285) translate(32.82716049382716 30.77777777777778)"/><path d="M780 446a6 6 0 0 1 6-6h76a6 6 0 0 1 6 6v49.33a6 6 0 0 1-6 6h-76a6 6 0 0 1-6-6z" stroke="#3a414a" fill-opacity="0"/><use xlink:href="#a" transform="matrix(1,0,0,1,785,445) translate(32.82716049382716 30.77777777777778)"/><path d="M868 446a6 6 0 0 1 6-6h76a6 6 0 0 1 6 6v49.33a6 6 0 0 1-6 6h-76a6 6 0 0 1-6-6z" stroke="#3a414a" fill-opacity="0"/><use xlink:href="#b" transform="matrix(1,0,0,1,873,445) translate(32.82716049382716 30.77777777777778)"/><path d="M956 446a6 6 0 0 1 6-6h76a6 6 0 0 1 6 6v49.33a6 6 0 0 1-6 6h-76a6 6 0 0 1-6-6z" stroke="#3a414a" fill-opacity="0"/><use xlink:href="#c" transform="matrix(1,0,0,1,961,445) translate(32.82716049382716 30.77777777777778)"/><path d="M1358 446a6 6 0 0 1 6-6h76a6 6 0 0 1 6 6v49.33a6 6 0 0 1-6 6h-76a6 6 0 0 1-6-6z" stroke="#3a414a" fill-opacity="0"/><use xlink:href="#d" transform="matrix(1,0,0,1,1363,445) translate(32.82716049382716 30.77777777777778)"/><path d="M1446 446a6 6 0 0 1 6-6h76a6 6 0 0 1 6 6v49.33a6 6 0 0 1-6 6h-76a6 6 0 0 1-6-6z" stroke="#3a414a" fill="#fff"/><use xlink:href="#e" transform="matrix(1,0,0,1,1451,445) translate(32.82716049382716 30.77777777777778)"/><path d="M1534 446a6 6 0 0 1 6-6h76a6 6 0 0 1 6 6v49.33a6 6 0 0 1-6 6h-76a6 6 0 0 1-6-6z" stroke="#3a414a" fill="#fff"/><use xlink:href="#f" transform="matrix(1,0,0,1,1539,445) translate(32.82716049382716 30.77777777777778)"/><path d="M700 746a6 6 0 0 1 6-6h76a6 6 0 0 1 6 6v49.33a6 6 0 0 1-6 6h-76a6 6 0 0 1-6-6z" stroke="#3a414a" fill-opacity="0"/><use xlink:href="#a" transform="matrix(1,0,0,1,705,745) translate(32.82716049382716 30.77777777777778)"/><path d="M940 606a6 6 0 0 1 6-6h76a6 6 0 0 1 6 6v49.33a6 6 0 0 1-6 6h-76a6 6 0 0 1-6-6z" stroke="#3a414a" fill-opacity="0"/><use xlink:href="#b" transform="matrix(1,0,0,1,945,605) translate(32.82716049382716 30.77777777777778)"/><path d="M1028 606a6 6 0 0 1 6-6h76a6 6 0 0 1 6 6v49.33a6 6 0 0 1-6 6h-76a6 6 0 0 1-6-6z" stroke="#3a414a" fill-opacity="0"/><use xlink:href="#c" transform="matrix(1,0,0,1,1033,605) translate(32.82716049382716 30.77777777777778)"/><path d="M1300 746a6 6 0 0 1 6-6h76a6 6 0 0 1 6 6v49.33a6 6 0 0 1-6 6h-76a6 6 0 0 1-6-6z" stroke="#3a414a" fill-opacity="0"/><use xlink:href="#d" transform="matrix(1,0,0,1,1305,745) translate(32.82716049382716 30.77777777777778)"/><path d="M1506 606a6 6 0 0 1 6-6h76a6 6 0 0 1 6 6v49.33a6 6 0 0 1-6 6h-76a6 6 0 0 1-6-6z" stroke="#3a414a" fill="#fff"/><use xlink:href="#e" transform="matrix(1,0,0,1,1511,605) translate(32.82716049382716 30.77777777777778)"/><path d="M1594 606a6 6 0 0 1 6-6h76a6 6 0 0 1 6 6v49.33a6 6 0 0 1-6 6h-76a6 6 0 0 1-6-6z" stroke="#3a414a" fill="#fff"/><use xlink:href="#f" transform="matrix(1,0,0,1,1599,605) translate(32.82716049382716 30.77777777777778)"/><path d="M860 746a6 6 0 0 1 6-6h76a6 6 0 0 1 6 6v49.33a6 6 0 0 1-6 6h-76a6 6 0 0 1-6-6z" stroke="#3a414a" fill-opacity="0"/><use xlink:href="#b" transform="matrix(1,0,0,1,865,745) translate(32.82716049382716 30.77777777777778)"/><path d="M1012 746a6 6 0 0 1 6-6h76a6 6 0 0 1 6 6v49.33a6 6 0 0 1-6 6h-76a6 6 0 0 1-6-6z" stroke="#3a414a" fill-opacity="0"/><use xlink:href="#c" transform="matrix(1,0,0,1,1017,745) translate(32.82716049382716 30.77777777777778)"/><path d="M1446 746a6 6 0 0 1 6-6h76a6 6 0 0 1 6 6v49.33a6 6 0 0 1-6 6h-76a6 6 0 0 1-6-6z" stroke="#3a414a" fill="#fff"/><use xlink:href="#e" transform="matrix(1,0,0,1,1451,745) translate(32.82716049382716 30.77777777777778)"/><path d="M1594 746a6 6 0 0 1 6-6h76a6 6 0 0 1 6 6v49.33a6 6 0 0 1-6 6h-76a6 6 0 0 1-6-6z" stroke="#3a414a" fill="#fff"/><use xlink:href="#f" transform="matrix(1,0,0,1,1599,745) translate(32.82716049382716 30.77777777777778)"/><path d="M1204.93 340.1l-292.46 99.24" stroke="#3a414a" fill="none"/><path d="M1205.4 339.93l.42.36-.75.25-.3-.9.3-.1zM912.54 439.5h-2.02l1.8-.62z" stroke="#3a414a" stroke-width=".05" fill="#3a414a"/><path d="M1205.88 340.1l283.65 99.23" stroke="#3a414a" fill="none"/><path d="M1206.04 339.65l-.22.64-.42-.37-.6-.72zM1491.44 439.5h-1.98l.2-.62z" stroke="#3a414a" stroke-width=".05" fill="#3a414a"/><path d="M912.38 502.16l112.2 97.72" stroke="#3a414a" fill="none"/><path d="M912.08 502.53l-.8-.7h1.4zM1027.53 601.82l-.3.33-.63-.75-.78-.66-.87-.53-.5-.2.43-.5z" stroke="#3a414a" stroke-width=".05" fill="#3a414a"/><path d="M911.7 502.24L744.3 739.1" stroke="#3a414a" fill="none"/><path d="M912.1 502.53l-.78-.55.1-.15h1.16zM744.68 739.36l-.1.14h-1.16l.5-.7z" stroke="#3a414a" stroke-width=".05" fill="#3a414a"/><path d="M1490.35 502.2l102.84 102.83" stroke="#3a414a" fill="none"/><path d="M1490.7 501.86l-.67.67-.7-.7h1.34zM1593.63 604.8l-.05.18-.08 1v.02l-.65-.65.67-.67z" stroke="#3a414a" stroke-width=".05" fill="#3a414a"/><path d="M1489.74 502.26l-141.6 236.8" stroke="#3a414a" fill="none"/><path d="M1490.14 502.52l-.8-.5.1-.2h1.1zM1348.57 739.3l-.12.2h-1.1l.4-.68z" stroke="#3a414a" stroke-width=".05" fill="#3a414a"/><path d="M1031.9 661.88l27.5 77.15" stroke="#3a414a" fill="none"/><path d="M1032 661.52l.3.07.06.14-.9.3-.3-.87zM1060.07 739.5h-1l-.13-.32.9-.32z" stroke="#3a414a" stroke-width=".05" fill="#3a414a"/><path d="M1031.3 661.68l-124.54 77.56" stroke="#3a414a" fill="none"/><path d="M1032 661.52l.34.08-.8.5-.5-.82.16-.1zM906.94 739.5h-1.5l1.08-.67z" stroke="#3a414a" stroke-width=".05" fill="#3a414a"/><path d="M1590.24 661.56l-99.85 77.63" stroke="#3a414a" fill="none"/><path d="M1593.3 659.8l-2.78 2.15-.38-.5.8-.32.88-.54.78-.67.42-.5zM1490.65 739.5h-1.42l.88-.7z" stroke="#3a414a" stroke-width=".05" fill="#3a414a"/><path d="M1597.28 661.57l40.5 77.5" stroke="#3a414a" fill="none"/><path d="M1597.05 661.13l.62.25-.8.42-.6-1.16zM1638.54 739.5h-1.08l-.12-.23.84-.44z" stroke="#3a414a" stroke-width=".05" fill="#3a414a"/><path d="M896 886a6 6 0 0 1 6-6h76a6 6 0 0 1 6 6v49.33a6 6 0 0 1-6 6h-76a6 6 0 0 1-6-6z" stroke="#3a414a" fill-opacity="0"/><use xlink:href="#c" transform="matrix(1,0,0,1,901,885) translate(32.82716049382716 30.77777777777778)"/><path d="M984 886a6 6 0 0 1 6-6h76a6 6 0 0 1 6 6v49.33a6 6 0 0 1-6 6h-76a6 6 0 0 1-6-6z" stroke="#3a414a" fill-opacity="0"/><use xlink:href="#b" transform="matrix(1,0,0,1,989,885) translate(32.82716049382716 30.77777777777778)"/><path d="M1480 886a6 6 0 0 1 6-6h76a6 6 0 0 1 6 6v49.33a6 6 0 0 1-6 6h-76a6 6 0 0 1-6-6z" stroke="#3a414a" fill="#fff"/><use xlink:href="#f" transform="matrix(1,0,0,1,1485,885) translate(32.82716049382716 30.77777777777778)"/><path d="M1568 886a6 6 0 0 1 6-6h76a6 6 0 0 1 6 6v49.33a6 6 0 0 1-6 6h-76a6 6 0 0 1-6-6z" stroke="#3a414a" fill="#fff"/><use xlink:href="#e" transform="matrix(1,0,0,1,1573,885) translate(32.82716049382716 30.77777777777778)"/><path d="M904.35 802.2l74.44 77.05" stroke="#3a414a" fill="none"/><path d="M904.7 801.87l-.7.66-.66-.7h1.32zM980 879.8l-.98-.22-.55-.05.65-.62z" stroke="#3a414a" stroke-width=".05" fill="#3a414a"/><path d="M1055.67 802.2l-67.6 77.34" stroke="#3a414a" fill="none"/><path d="M1056.02 802.53l-.7-.62.05-.07h1.26zM988.3 879.74l-.3.08-.95.4-.4.24 1.07-1.24z" stroke="#3a414a" stroke-width=".05" fill="#3a414a"/><path d="M1490.35 802.2l75.52 78.52" stroke="#3a414a" fill="none"/><path d="M1490.7 801.87l-.7.66-.66-.7h1.32zM1568.64 882.9l-.65.63-.2-.48-.54-.87-.66-.78-.77-.66.38-.36z" stroke="#3a414a" stroke-width=".05" fill="#3a414a"/><path d="M1637.67 802.2l-68.22 79.15" stroke="#3a414a" fill="none"/><path d="M1638.03 802.53l-.72-.62.07-.07h1.26zM1569.47 881.35l-.07.05-.66.78-.53.87-.37.9-.3.36-.72-.6 2.3-2.67z" stroke="#3a414a" stroke-width=".05" fill="#3a414a"/><path d="M868 1026a6 6 0 0 1 6-6h76a6 6 0 0 1 6 6v49.33a6 6 0 0 1-6 6h-76a6 6 0 0 1-6-6z" stroke="#3a414a" fill-opacity="0"/><use xlink:href="#c" transform="matrix(1,0,0,1,873,1025) translate(32.82716049382716 30.77777777777778)"/><path d="M956 1026a6 6 0 0 1 6-6h76a6 6 0 0 1 6 6v49.33a6 6 0 0 1-6 6h-76a6 6 0 0 1-6-6z" stroke="#3a414a" fill-opacity="0"/><use xlink:href="#b" transform="matrix(1,0,0,1,961,1025) translate(32.82716049382716 30.77777777777778)"/><path d="M780 1026a6 6 0 0 1 6-6h76a6 6 0 0 1 6 6v49.33a6 6 0 0 1-6 6h-76a6 6 0 0 1-6-6z" stroke="#3a414a" fill-opacity="0"/><use xlink:href="#a" transform="matrix(1,0,0,1,785,1024.9999999999998) translate(32.82716049382716 30.77777777777778)"/><path d="M744.24 802.27l120.47 217.5" stroke="#3a414a" fill="none"/><path d="M744.66 802.05l-.83.46-.37-.67h1.08zM865.77 1020.7l-.82-.5-.6-.24.77-.43z" stroke="#3a414a" stroke-width=".05" fill="#3a414a"/><path d="M989.34 942.16l-77 77" stroke="#3a414a" fill="none"/><path d="M989.98 941.83h.36l-.68.68-.67-.66.07-.08zM912.7 1019.47l-.03.03h-1.34l.7-.7z" stroke="#3a414a" stroke-width=".05" fill="#3a414a"/><path d="M1358 1026a6 6 0 0 1 6-6h76a6 6 0 0 1 6 6v49.33a6 6 0 0 1-6 6h-76a6 6 0 0 1-6-6z" stroke="#3a414a" fill="#fff"/><use xlink:href="#f" transform="matrix(1,0,0,1,1363,1024.9999999999995) translate(32.82716049382716 30.77777777777778)"/><path d="M1534 1026a6 6 0 0 1 6-6h76a6 6 0 0 1 6 6v49.33a6 6 0 0 1-6 6h-76a6 6 0 0 1-6-6z" stroke="#3a414a" fill="#fff"/><use xlink:href="#e" transform="matrix(1,0,0,1,1539,1024.9999999999995) translate(32.82716049382716 30.77777777777778)"/><path d="M1446 1026a6 6 0 0 1 6-6h76a6 6 0 0 1 6 6v49.33a6 6 0 0 1-6 6h-76a6 6 0 0 1-6-6z" stroke="#3a414a" fill-opacity="0"/><use xlink:href="#d" transform="matrix(1,0,0,1,1451,1024.9999999999995) translate(32.82716049382716 30.77777777777778)"/><path d="M1344.28 802.25l145.44 216.84" stroke="#3a414a" fill="none"/><path d="M1344.68 802l-.8.52-.45-.7h1.14zM1490.57 1019.5h-1.14l-.1-.16.78-.53z" stroke="#3a414a" stroke-width=".05" fill="#3a414a"/><path d="M1568.78 939.97l-78.43 79.17" stroke="#3a414a" fill="none"/><path d="M1569.4 939.93l.05.04-.34.34-.66-.65.38-.4zM1490.7 1019.47l-.03.03h-1.34l.7-.7z" stroke="#3a414a" stroke-width=".05" fill="#3a414a"/><path d="M1116 1206a6 6 0 0 1 6-6h76a6 6 0 0 1 6 6v48.88a6 6 0 0 1-6 6h-76a6 6 0 0 1-6-6z" stroke="#3a414a" fill-opacity="0"/><use xlink:href="#c" transform="matrix(1,0,0,1,1121,1205) translate(32.82716049382716 30.52777777777778)"/><path d="M1292 1206a6 6 0 0 1 6-6h76a6 6 0 0 1 6 6v48.88a6 6 0 0 1-6 6h-76a6 6 0 0 1-6-6z" stroke="#3a414a" fill-opacity="0"/><use xlink:href="#b" transform="matrix(1,0,0,1,1297,1205.0000000000005) translate(32.82716049382716 30.52777777777778)"/><path d="M940 1206a6 6 0 0 1 6-6h76a6 6 0 0 1 6 6v48.88a6 6 0 0 1-6 6h-76a6 6 0 0 1-6-6z" stroke="#3a414a" fill-opacity="0"/><use xlink:href="#a" transform="matrix(1,0,0,1,945,1205.0000000000005) translate(32.82716049382716 30.52777777777778)"/><path d="M1028 1206a6 6 0 0 1 6-6h76a6 6 0 0 1 6 6v48.88a6 6 0 0 1-6 6h-76a6 6 0 0 1-6-6z" stroke="#3a414a" fill="#fff"/><use xlink:href="#f" transform="matrix(1,0,0,1,1033,1205) translate(32.82716049382716 30.52777777777778)"/><path d="M1380 1206a6 6 0 0 1 6-6h76a6 6 0 0 1 6 6v48.88a6 6 0 0 1-6 6h-76a6 6 0 0 1-6-6z" stroke="#3a414a" fill="#fff"/><use xlink:href="#e" transform="matrix(1,0,0,1,1385,1205.0000000000005) translate(32.82716049382716 30.52777777777778)"/><path d="M1204 1206a6 6 0 0 1 6-6h76a6 6 0 0 1 6 6v48.88a6 6 0 0 1-6 6h-76a6 6 0 0 1-6-6z" stroke="#3a414a" fill-opacity="0"/><use xlink:href="#d" transform="matrix(1,0,0,1,1209,1205.0000000000005) translate(32.82716049382716 30.52777777777778)"/><path d="M1489.54 1082.03l-278.42 117.28" stroke="#3a414a" fill="none"/><path d="M1489.7 1082.47l-.26-.64h1.78zM1211.22 1199.5h-1.24l-.67.05 1.65-.7z" stroke="#3a414a" stroke-width=".05" fill="#3a414a"/><path d="M912.46 1082.02l288.9 118.53" stroke="#3a414a" fill="none"/><path d="M912.3 1082.47l-1.55-.64h1.8zM1204.77 1201.44l-.36.88-1.58-.66-.22-.26-.78-.66-.45-.27.15-.37z" stroke="#3a414a" stroke-width=".05" fill="#3a414a"/><path d="M1720 286a6 6 0 0 1 6-6h128a6 6 0 0 1 6 6v468a6 6 0 0 1-6 6h-128a6 6 0 0 1-6-6z" fill="none"/><path d="M1720 760c5.52 0 10-4.48 10-10V530c0-5.52 4.48-10 10-10-5.52 0-10-4.48-10-10V290c0-5.52-4.48-10-10-10" stroke="#3a414a" fill="none"/><use xlink:href="#g" transform="matrix(1,0,0,1,1755,285) translate(0 239.44444444444443)"/><path d="M1720 846a6 6 0 0 1 6-6h128a6 6 0 0 1 6 6v408a6 6 0 0 1-6 6h-128a6 6 0 0 1-6-6z" fill="none"/><path d="M1720 1260c5.52 0 10-4.48 10-10v-190c0-5.52 4.48-10 10-10-5.52 0-10-4.48-10-10V850c0-5.52-4.48-10-10-10" stroke="#3a414a" fill="none"/><use xlink:href="#h" transform="matrix(1,0,0,1,1755,845) translate(0 209.44444444444443)"/><defs><path fill="#3a414a" d="M27 0v-27h64v-190l-56 39v-29l58-41h29v221h61V0H27" id="i"/><use transform="matrix(0.06172839506172839,0,0,0.06172839506172839,0,0)" xlink:href="#i" id="a"/><path fill="#3a414a" d="M54-142c48-35 137-8 131 61C196 18 31 33 14-55l32-4c7 23 22 37 52 37 35-1 51-22 54-58 4-55-73-65-99-34H22l8-134h141v27H59" id="j"/><use transform="matrix(0.06172839506172839,0,0,0.06172839506172839,0,0)" xlink:href="#j" id="b"/><path fill="#3a414a" d="M126-127c33 6 58 20 58 59 0 88-139 92-164 29-3-8-5-16-6-25l32-3c6 27 21 44 54 44 32 0 52-15 52-46 0-38-36-46-79-43v-28c39 1 72-4 72-42 0-27-17-43-46-43-28 0-47 15-49 41l-32-3c6-42 35-63 81-64 48-1 79 21 79 65 0 36-21 52-52 59" id="k"/><use transform="matrix(0.06172839506172839,0,0,0.06172839506172839,0,0)" xlink:href="#k" id="c"/><path fill="#3a414a" d="M155-56V0h-30v-56H8v-25l114-167h33v167h35v25h-35zm-30-156c-27 46-58 90-88 131h88v-131" id="l"/><use transform="matrix(0.06172839506172839,0,0,0.06172839506172839,0,0)" xlink:href="#l" id="d"/><path fill="#3a414a" d="M64 0c3-98 48-159 88-221H18v-27h164v26C143-157 98-101 97 0H64" id="m"/><use transform="matrix(0.06172839506172839,0,0,0.06172839506172839,0,0)" xlink:href="#m" id="e"/><path fill="#3a414a" d="M101-251c82-7 93 87 43 132L82-64C71-53 59-42 53-27h129V0H18c2-99 128-94 128-182 0-28-16-43-45-43s-46 15-49 41l-32-3c6-41 34-60 81-64" id="n"/><use transform="matrix(0.06172839506172839,0,0,0.06172839506172839,0,0)" xlink:href="#n" id="f"/><path fill="#3a414a" d="M250-142C247-53 197 0 108 0H6l48-248c105-5 200 3 196 106zm-49 2c1-57-42-72-103-68L66-40c84 6 135-22 135-100" id="o"/><path fill="#3a414a" d="M50-224l7-37h49l-7 37H50zM6 0l37-190h49L55 0H6" id="p"/><path fill="#3a414a" d="M109 0H50L19-190h51L86-37l77-153h54" id="q"/><path fill="#3a414a" d="M132-28C118-9 101 4 69 4 30 4 10-23 10-62c0-70 24-129 92-132 31-1 47 14 56 35l19-102h49L179 0h-49zM62-69c0 22 7 39 29 39 45-2 54-45 57-90 2-27-10-40-33-40-44 0-53 48-53 91" id="r"/><path fill="#3a414a" d="M114-194c63-2 87 48 72 110H63c-3 28 1 55 31 54 21-1 32-13 37-29l44 13C160-14 137 4 91 4 41 4 11-22 11-73c0-71 33-119 103-121zm30 77c14-47-50-61-67-22-3 6-6 13-8 22h75" id="s"/><g id="g"><use transform="matrix(0.06172839506172839,0,0,0.06172839506172839,0,0)" xlink:href="#o"/><use transform="matrix(0.06172839506172839,0,0,0.06172839506172839,15.987654320987653,0)" xlink:href="#p"/><use transform="matrix(0.06172839506172839,0,0,0.06172839506172839,22.160493827160494,0)" xlink:href="#q"/><use transform="matrix(0.06172839506172839,0,0,0.06172839506172839,34.50617283950617,0)" xlink:href="#p"/><use transform="matrix(0.06172839506172839,0,0,0.06172839506172839,40.67901234567901,0)" xlink:href="#r"/><use transform="matrix(0.06172839506172839,0,0,0.06172839506172839,54.19753086419753,0)" xlink:href="#s"/></g><path fill="#3a414a" d="M212 0l43-212L151 0h-37L90-212C82-137 65-70 52 0H6l48-248h70l20 187 93-187h69L258 0h-46" id="t"/><path fill="#3a414a" d="M84-151c13-25 34-51 72-40l-8 41C67-170 71-64 56 0H6l36-190h47" id="u"/><path fill="#3a414a" d="M45-171c29-32 103-29 114 14 2-11 5-23 8-33h47L176-2c-3 70-92 96-155 64C9 56 1 42-1 25l50-5c2 28 48 27 63 11 13-13 20-45 21-66-13 20-30 35-62 36-87 3-60-134-26-172zM94-35c41-3 55-43 55-86 0-24-12-39-35-39-43 0-51 48-51 90 0 22 9 37 31 35" id="v"/><g id="h"><use transform="matrix(0.06172839506172839,0,0,0.06172839506172839,0,0)" xlink:href="#t"/><use transform="matrix(0.06172839506172839,0,0,0.06172839506172839,18.456790123456788,0)" xlink:href="#s"/><use transform="matrix(0.06172839506172839,0,0,0.06172839506172839,30.80246913580247,0)" xlink:href="#u"/><use transform="matrix(0.06172839506172839,0,0,0.06172839506172839,39.44444444444444,0)" xlink:href="#v"/><use transform="matrix(0.06172839506172839,0,0,0.06172839506172839,52.96296296296296,0)" xlink:href="#s"/></g></defs></g></svg>