<svg xmlns="http://www.w3.org/2000/svg" xmlns:xlink="http://www.w3.org/1999/xlink" xmlns:lucid="lucid" width="441" height="942.33"><g transform="translate(-939.4999999601787 -279.4999999741511)" lucid:page-tab-id="0_0"><path d="M940 286a6 6 0 0 1 6-6h76a6 6 0 0 1 6 6v49.33a6 6 0 0 1-6 6h-76a6 6 0 0 1-6-6z" stroke="#3a414a" fill-opacity="0"/><use xlink:href="#a" transform="matrix(1,0,0,1,945,285) translate(32.82716049382716 30.77777777777778)"/><path d="M1028 286a6 6 0 0 1 6-6h76a6 6 0 0 1 6 6v49.33a6 6 0 0 1-6 6h-76a6 6 0 0 1-6-6z" stroke="#3a414a" fill-opacity="0"/><use xlink:href="#b" transform="matrix(1,0,0,1,1033,285) translate(32.82716049382716 30.77777777777778)"/><path d="M1116 286a6 6 0 0 1 6-6h76a6 6 0 0 1 6 6v49.33a6 6 0 0 1-6 6h-76a6 6 0 0 1-6-6z" stroke="#3a414a" fill-opacity="0"/><use xlink:href="#c" transform="matrix(1,0,0,1,1121,285) translate(32.82716049382716 30.77777777777778)"/><path d="M1204 286a6 6 0 0 1 6-6h76a6 6 0 0 1 6 6v49.33a6 6 0 0 1-6 6h-76a6 6 0 0 1-6-6z" stroke="#3a414a" fill-opacity="0"/><use xlink:href="#d" transform="matrix(1,0,0,1,1209,285) translate(32.82716049382716 30.77777777777778)"/><path d="M1292 286a6 6 0 0 1 6-6h76a6 6 0 0 1 6 6v49.33a6 6 0 0 1-6 6h-76a6 6 0 0 1-6-6z" stroke="#3a414a" fill="#f2f3f5"/><use xlink:href="#e" transform="matrix(1,0,0,1,1297,285) translate(32.82716049382716 30.77777777777778)"/><path d="M1310.48 366a6 6 0 0 1 6-6h36a6 6 0 0 1 6 6v32.56a6 6 0 0 1-6 6h-36a6 6 0 0 1-6-6z" stroke="#000" stroke-opacity="0" fill="#fff" fill-opacity="0"/><use xlink:href="#f" transform="matrix(1,0,0,1,1315.480354957498,365) translate(16.561728395061728 22.15277777777778)"/><path d="M1224.96 372.17a6 6 0 0 1 6-6h36a6 6 0 0 1 6 6v20.22a6 6 0 0 1-6 6h-36a6 6 0 0 1-6-6z" stroke="#000" stroke-opacity="0" fill="#fff" fill-opacity="0"/><use xlink:href="#g" transform="matrix(1,0,0,1,1229.9607099149962,371.1677400925354) translate(16.561728395061728 19.21527777777778)"/><path d="M1289.35 382.28h4.75" stroke="#3a414a" fill="none"/><path d="M1274.58 382.28l14.27-4.64v9.27zM1308.86 382.28l-14.26 4.63v-9.26z" stroke="#3a414a" fill="#3a414a"/><path d="M940 446a6 6 0 0 1 6-6h76a6 6 0 0 1 6 6v49.33a6 6 0 0 1-6 6h-76a6 6 0 0 1-6-6z" stroke="#3a414a" fill-opacity="0"/><use xlink:href="#a" transform="matrix(1,0,0,1,945,444.9999999999999) translate(32.82716049382716 30.77777777777778)"/><path d="M1028 446a6 6 0 0 1 6-6h76a6 6 0 0 1 6 6v49.33a6 6 0 0 1-6 6h-76a6 6 0 0 1-6-6z" stroke="#3a414a" fill-opacity="0"/><use xlink:href="#b" transform="matrix(1,0,0,1,1033,444.9999999999999) translate(32.82716049382716 30.77777777777778)"/><path d="M1116 446a6 6 0 0 1 6-6h76a6 6 0 0 1 6 6v49.33a6 6 0 0 1-6 6h-76a6 6 0 0 1-6-6z" stroke="#3a414a" fill-opacity="0"/><use xlink:href="#c" transform="matrix(1,0,0,1,1121,444.9999999999999) translate(32.82716049382716 30.77777777777778)"/><path d="M1204 446a6 6 0 0 1 6-6h76a6 6 0 0 1 6 6v49.33a6 6 0 0 1-6 6h-76a6 6 0 0 1-6-6z" stroke="#3a414a" fill="#f2f3f5"/><use xlink:href="#d" transform="matrix(1,0,0,1,1209,444.9999999999999) translate(32.82716049382716 30.77777777777778)"/><path d="M1084.96 540.5v23.12M1084.96 540.5v-.5" stroke="#3a414a" fill="none"/><path d="M1084.96 578.38l-4.63-14.26h9.27z" stroke="#3a414a" fill="#3a414a"/><path d="M940 646a6 6 0 0 1 6-6h76a6 6 0 0 1 6 6v49.33a6 6 0 0 1-6 6h-76a6 6 0 0 1-6-6z" stroke="#3a414a" fill-opacity="0"/><use xlink:href="#a" transform="matrix(1,0,0,1,945,644.9999999999999) translate(32.82716049382716 30.77777777777778)"/><path d="M1028 646a6 6 0 0 1 6-6h76a6 6 0 0 1 6 6v49.33a6 6 0 0 1-6 6h-76a6 6 0 0 1-6-6z" stroke="#3a414a" fill-opacity="0"/><use xlink:href="#b" transform="matrix(1,0,0,1,1033,644.9999999999999) translate(32.82716049382716 30.77777777777778)"/><path d="M1116 646a6 6 0 0 1 6-6h76a6 6 0 0 1 6 6v49.33a6 6 0 0 1-6 6h-76a6 6 0 0 1-6-6z" stroke="#3a414a" fill-opacity="0"/><use xlink:href="#c" transform="matrix(1,0,0,1,1121,644.9999999999999) translate(32.82716049382716 30.77777777777778)"/><path d="M1204 646a6 6 0 0 1 6-6h76a6 6 0 0 1 6 6v49.33a6 6 0 0 1-6 6h-76a6 6 0 0 1-6-6z" stroke="#3a414a" fill="#f2f3f5"/><use xlink:href="#d" transform="matrix(1,0,0,1,1209,644.9999999999999) translate(32.82716049382716 30.77777777777778)"/><path d="M1023.04 726a6 6 0 0 1 6-6H1110a6 6 0 0 1 6 6v28a6 6 0 0 1-6 6h-80.96a6 6 0 0 1-6-6z" stroke="#000" stroke-opacity="0" fill="#fff" fill-opacity="0"/><use xlink:href="#f" transform="matrix(1,0,0,1,1028.0392900850038,725) translate(39.06172839506173 19.65277777777778)"/><path d="M1111.04 726a6 6 0 0 1 6-6H1198a6 6 0 0 1 6 6v28a6 6 0 0 1-6 6h-80.96a6 6 0 0 1-6-6z" stroke="#000" stroke-opacity="0" fill="#fff" fill-opacity="0"/><use xlink:href="#g" transform="matrix(1,0,0,1,1116.0392900850038,725) translate(39.06172839506173 19.65277777777778)"/><path d="M1078.43 624.93l1-.94 1.28-1.06 1.46-1.06 1.65-1.07 1.9-1.08 2.18-1.08 2.48-1.06 2.84-1.04 3.23-.97 3.62-.86 4-.72 4.35-.53 4.58-.3 4.68-.03 4.63.22 4.4.47 4.13.68 3.73.83 3.34.95 2.95 1.02 2.6 1.06 2.24 1.08 1.96 1.1 1.72 1.07 1.5 1.06 1.33 1.06 1.16 1.02.2.2" stroke="#3a414a" stroke-linejoin="round" fill="none"/><path d="M1072.65 638.02l1.52-14.92 8.48 3.74zM1159.35 638.02l-10-11.18 8.48-3.74z" stroke="#3a414a" fill="#3a414a"/><path d="M940 806a6 6 0 0 1 6-6h76a6 6 0 0 1 6 6v49.33a6 6 0 0 1-6 6h-76a6 6 0 0 1-6-6z" stroke="#3a414a" fill-opacity="0"/><use xlink:href="#a" transform="matrix(1,0,0,1,945,805) translate(32.82716049382716 30.77777777777778)"/><path d="M1028 806a6 6 0 0 1 6-6h76a6 6 0 0 1 6 6v49.33a6 6 0 0 1-6 6h-76a6 6 0 0 1-6-6z" stroke="#3a414a" fill-opacity="0"/><use xlink:href="#c" transform="matrix(1,0,0,1,1033,805) translate(32.82716049382716 30.77777777777778)"/><path d="M1116 806a6 6 0 0 1 6-6h76a6 6 0 0 1 6 6v49.33a6 6 0 0 1-6 6h-76a6 6 0 0 1-6-6z" stroke="#3a414a" fill-opacity="0"/><use xlink:href="#b" transform="matrix(1,0,0,1,1121,805) translate(32.82716049382716 30.77777777777778)"/><path d="M1204 806a6 6 0 0 1 6-6h76a6 6 0 0 1 6 6v49.33a6 6 0 0 1-6 6h-76a6 6 0 0 1-6-6z" stroke="#3a414a" fill="#f2f3f5"/><use xlink:href="#d" transform="matrix(1,0,0,1,1209,805) translate(32.82716049382716 30.77777777777778)"/><path d="M1125.52 907.33a6 6 0 0 1 6-6h36a6 6 0 0 1 6 6v32.56a6 6 0 0 1-6 6h-36a6 6 0 0 1-6-6z" stroke="#000" stroke-opacity="0" fill="#fff" fill-opacity="0"/><use xlink:href="#f" transform="matrix(1,0,0,1,1130.519645042502,906.3333333333333) translate(16.561728395061728 22.15277777777778)"/><path d="M1040 913.5a6 6 0 0 1 6-6h36a6 6 0 0 1 6 6v20.22a6 6 0 0 1-6 6h-36a6 6 0 0 1-6-6z" stroke="#000" stroke-opacity="0" fill="#fff" fill-opacity="0"/><use xlink:href="#g" transform="matrix(1,0,0,1,1045,912.5010734258686) translate(16.561728395061728 19.21527777777778)"/><path d="M1104.38 923.6h4.76" stroke="#3a414a" fill="none"/><path d="M1089.62 923.6l14.26-4.62v9.27zM1123.9 923.6l-14.26 4.65v-9.27z" stroke="#3a414a" fill="#3a414a"/><path d="M940 986a6 6 0 0 1 6-6h76a6 6 0 0 1 6 6v49.33a6 6 0 0 1-6 6h-76a6 6 0 0 1-6-6z" stroke="#3a414a" fill-opacity="0"/><use xlink:href="#a" transform="matrix(1,0,0,1,945,985) translate(32.82716049382716 30.77777777777778)"/><path d="M1028 986a6 6 0 0 1 6-6h76a6 6 0 0 1 6 6v49.33a6 6 0 0 1-6 6h-76a6 6 0 0 1-6-6z" stroke="#3a414a" fill-opacity="0"/><use xlink:href="#c" transform="matrix(1,0,0,1,1033,985) translate(32.82716049382716 30.77777777777778)"/><path d="M1116 986a6 6 0 0 1 6-6h76a6 6 0 0 1 6 6v49.33a6 6 0 0 1-6 6h-76a6 6 0 0 1-6-6z" stroke="#3a414a" fill="#f2f3f5"/><use xlink:href="#d" transform="matrix(1,0,0,1,1121,985) translate(32.82716049382716 30.77777777777778)"/><path d="M1204 986a6 6 0 0 1 6-6h76a6 6 0 0 1 6 6v49.33a6 6 0 0 1-6 6h-76a6 6 0 0 1-6-6z" stroke="#3a414a" fill="#fff"/><use xlink:href="#b" transform="matrix(1,0,0,1,1209,985) translate(32.82716049382716 30.77777777777778)"/><path d="M1028 1080.5v23.12M1028 1080.5v-.5" stroke="#3a414a" fill="none"/><path d="M1028 1118.38l-4.63-14.26h9.26z" stroke="#3a414a" fill="#3a414a"/><path d="M940 1166a6 6 0 0 1 6-6h76a6 6 0 0 1 6 6v49.33a6 6 0 0 1-6 6h-76a6 6 0 0 1-6-6z" stroke="#3a414a" fill-opacity="0"/><use xlink:href="#a" transform="matrix(1,0,0,1,945,1165) translate(32.82716049382716 30.77777777777778)"/><path d="M1028 1166a6 6 0 0 1 6-6h76a6 6 0 0 1 6 6v49.33a6 6 0 0 1-6 6h-76a6 6 0 0 1-6-6z" stroke="#3a414a" fill="#f2f3f5"/><use xlink:href="#c" transform="matrix(1,0,0,1,1033,1165) translate(32.82716049382716 30.77777777777778)"/><defs><path fill="#3a414a" d="M27 0v-27h64v-190l-56 39v-29l58-41h29v221h61V0H27" id="h"/><use transform="matrix(0.06172839506172839,0,0,0.06172839506172839,0,0)" xlink:href="#h" id="a"/><path fill="#3a414a" d="M54-142c48-35 137-8 131 61C196 18 31 33 14-55l32-4c7 23 22 37 52 37 35-1 51-22 54-58 4-55-73-65-99-34H22l8-134h141v27H59" id="i"/><use transform="matrix(0.06172839506172839,0,0,0.06172839506172839,0,0)" xlink:href="#i" id="b"/><path fill="#3a414a" d="M126-127c33 6 58 20 58 59 0 88-139 92-164 29-3-8-5-16-6-25l32-3c6 27 21 44 54 44 32 0 52-15 52-46 0-38-36-46-79-43v-28c39 1 72-4 72-42 0-27-17-43-46-43-28 0-47 15-49 41l-32-3c6-42 35-63 81-64 48-1 79 21 79 65 0 36-21 52-52 59" id="j"/><use transform="matrix(0.06172839506172839,0,0,0.06172839506172839,0,0)" xlink:href="#j" id="c"/><path fill="#3a414a" d="M155-56V0h-30v-56H8v-25l114-167h33v167h35v25h-35zm-30-156c-27 46-58 90-88 131h88v-131" id="k"/><use transform="matrix(0.06172839506172839,0,0,0.06172839506172839,0,0)" xlink:href="#k" id="d"/><path fill="#3a414a" d="M64 0c3-98 48-159 88-221H18v-27h164v26C143-157 98-101 97 0H64" id="l"/><use transform="matrix(0.06172839506172839,0,0,0.06172839506172839,0,0)" xlink:href="#l" id="e"/><path fill="#3a414a" d="M24-231v-30h32v30H24zM24 0v-190h32V0H24" id="m"/><use transform="matrix(0.06172839506172839,0,0,0.06172839506172839,0,0)" xlink:href="#m" id="f"/><path fill="#3a414a" d="M24-231v-30h32v30H24zM-9 49c24 4 33-6 33-30v-209h32V24c2 40-23 58-65 49V49" id="n"/><use transform="matrix(0.06172839506172839,0,0,0.06172839506172839,0,0)" xlink:href="#n" id="g"/></defs></g></svg>