<svg xmlns="http://www.w3.org/2000/svg" xmlns:xlink="http://www.w3.org/1999/xlink" xmlns:lucid="lucid" width="624.44" height="1186.85"><g transform="translate(-894.5392900451825 -153.15041172764825)" lucid:page-tab-id="0_0"><path d="M900 206a6 6 0 0 1 6-6h76a6 6 0 0 1 6 6v49.33a6 6 0 0 1-6 6h-76a6 6 0 0 1-6-6z" stroke="#3a414a" fill-opacity="0"/><use xlink:href="#a" transform="matrix(1,0,0,1,905,204.9999999999999) translate(32.82716049382716 30.77777777777778)"/><path d="M988 206a6 6 0 0 1 6-6h76a6 6 0 0 1 6 6v49.33a6 6 0 0 1-6 6h-76a6 6 0 0 1-6-6z" stroke="#3a414a" fill-opacity="0"/><use xlink:href="#b" transform="matrix(1,0,0,1,993,204.99999999999983) translate(32.82716049382716 30.77777777777778)"/><path d="M1076 206a6 6 0 0 1 6-6h76a6 6 0 0 1 6 6v49.33a6 6 0 0 1-6 6h-76a6 6 0 0 1-6-6z" stroke="#3a414a" fill-opacity="0"/><use xlink:href="#c" transform="matrix(1,0,0,1,1081,204.99999999999983) translate(32.82716049382716 30.77777777777778)"/><path d="M1164 206a6 6 0 0 1 6-6h76a6 6 0 0 1 6 6v49.33a6 6 0 0 1-6 6h-76a6 6 0 0 1-6-6z" stroke="#3a414a" fill-opacity="0"/><use xlink:href="#d" transform="matrix(1,0,0,1,1169,204.99999999999983) translate(32.82716049382716 30.77777777777778)"/><path d="M1252 206a6 6 0 0 1 6-6h76a6 6 0 0 1 6 6v49.33a6 6 0 0 1-6 6h-76a6 6 0 0 1-6-6z" stroke="#3a414a" fill-opacity="0"/><use xlink:href="#e" transform="matrix(1,0,0,1,1257,204.9999999999999) translate(32.82716049382716 30.77777777777778)"/><path d="M1340 206a6 6 0 0 1 6-6h76a6 6 0 0 1 6 6v49.33a6 6 0 0 1-6 6h-76a6 6 0 0 1-6-6z" stroke="#3a414a" fill-opacity="0"/><use xlink:href="#f" transform="matrix(1,0,0,1,1345,204.9999999999999) translate(32.82716049382716 30.77777777777778)"/><path d="M1428 206a6 6 0 0 1 6-6h76a6 6 0 0 1 6 6v49.33a6 6 0 0 1-6 6h-76a6 6 0 0 1-6-6z" stroke="#3a414a" fill="#f2f3f5"/><use xlink:href="#g" transform="matrix(1,0,0,1,1433,204.9999999999999) translate(32.82716049382716 30.77777777777778)"/><path d="M985.52 286a6 6 0 0 1 6-6h80.96a6 6 0 0 1 6 6v28a6 6 0 0 1-6 6h-80.96a6 6 0 0 1-6-6z" stroke="#000" stroke-opacity="0" fill="#fff" fill-opacity="0"/><use xlink:href="#h" transform="matrix(1,0,0,1,990.5196450425019,285) translate(39.06172839506173 19.65277777777778)"/><path d="M1335.04 286a6 6 0 0 1 6-6H1422a6 6 0 0 1 6 6v28a6 6 0 0 1-6 6h-80.96a6 6 0 0 1-6-6z" stroke="#000" stroke-opacity="0" fill="#fff" fill-opacity="0"/><use xlink:href="#i" transform="matrix(1,0,0,1,1340.0392900850038,285) translate(39.06172839506173 19.65277777777778)"/><path d="M1035.57 184.44l.55-.58.82-.8.94-.84 1.1-.9 1.3-.98 1.5-1.05 1.82-1.15 2.17-1.24 2.63-1.36 3.23-1.5 4-1.67 5.07-1.86 6.46-2.06 8.4-2.3 11-2.55 14.6-2.74 19.3-2.77 24.9-2.54 30.38-1.8 33.63-.6 32.98.77 28.9 1.88 23.37 2.5 18.17 2.73 13.9 2.7 10.7 2.52 8.27 2.32 6.5 2.13 5.16 1.93 4.15 1.76 3.4 1.6 2.8 1.46 2.32 1.35 1.96 1.26 1.66 1.17 1.42 1.08 1.23 1.03 1.06.96.6.6" stroke="#3a414a" stroke-linejoin="round" fill="none"/><path d="M1032.37 197.92l-1.22-14.95 9.02 2.14zM1383.38 198l-9.75-11.4 8.56-3.55z" stroke="#3a414a" fill="#3a414a"/><path d="M900 370.56a6 6 0 0 1 6-6h76a6 6 0 0 1 6 6v49.33a6 6 0 0 1-6 6h-76a6 6 0 0 1-6-6z" stroke="#3a414a" fill-opacity="0"/><use xlink:href="#a" transform="matrix(1,0,0,1,905,369.55627117280125) translate(32.82716049382716 30.77777777777778)"/><path d="M988 370.56a6 6 0 0 1 6-6h76a6 6 0 0 1 6 6v49.33a6 6 0 0 1-6 6h-76a6 6 0 0 1-6-6z" stroke="#3a414a" fill-opacity="0"/><use xlink:href="#f" transform="matrix(1,0,0,1,993,369.5562711728012) translate(32.82716049382716 30.77777777777778)"/><path d="M1076 370.56a6 6 0 0 1 6-6h76a6 6 0 0 1 6 6v49.33a6 6 0 0 1-6 6h-76a6 6 0 0 1-6-6z" stroke="#3a414a" fill-opacity="0"/><use xlink:href="#c" transform="matrix(1,0,0,1,1081,369.5562711728012) translate(32.82716049382716 30.77777777777778)"/><path d="M1164 370.56a6 6 0 0 1 6-6h76a6 6 0 0 1 6 6v49.33a6 6 0 0 1-6 6h-76a6 6 0 0 1-6-6z" stroke="#3a414a" fill-opacity="0"/><use xlink:href="#d" transform="matrix(1,0,0,1,1169,369.5562711728012) translate(32.82716049382716 30.77777777777778)"/><path d="M1252 370.56a6 6 0 0 1 6-6h76a6 6 0 0 1 6 6v49.33a6 6 0 0 1-6 6h-76a6 6 0 0 1-6-6z" stroke="#3a414a" fill-opacity="0"/><use xlink:href="#e" transform="matrix(1,0,0,1,1257,369.55627117280125) translate(32.82716049382716 30.77777777777778)"/><path d="M1340 370.56a6 6 0 0 1 6-6h76a6 6 0 0 1 6 6v49.33a6 6 0 0 1-6 6h-76a6 6 0 0 1-6-6z" stroke="#3a414a" fill-opacity="0"/><use xlink:href="#b" transform="matrix(1,0,0,1,1345,369.55627117280125) translate(32.82716049382716 30.77777777777778)"/><path d="M1428 370.56a6 6 0 0 1 6-6h76a6 6 0 0 1 6 6v49.33a6 6 0 0 1-6 6h-76a6 6 0 0 1-6-6z" stroke="#3a414a" fill="#f2f3f5"/><use xlink:href="#g" transform="matrix(1,0,0,1,1433,369.55627117280125) translate(32.82716049382716 30.77777777777778)"/><path d="M1159.04 450.56a6 6 0 0 1 6-6H1246a6 6 0 0 1 6 6v28a6 6 0 0 1-6 6h-80.96a6 6 0 0 1-6-6z" stroke="#000" stroke-opacity="0" fill="#fff" fill-opacity="0"/><use xlink:href="#h" transform="matrix(1,0,0,1,1164.0392900850038,449.55627117280136) translate(39.06172839506173 19.65277777777778)"/><path d="M1252 450.56a6 6 0 0 1 6-6h80.96a6 6 0 0 1 6 6v28a6 6 0 0 1-6 6H1258a6 6 0 0 1-6-6z" stroke="#000" stroke-opacity="0" fill="#fff" fill-opacity="0"/><use xlink:href="#i" transform="matrix(1,0,0,1,1257,449.55627117280136) translate(39.06172839506173 19.65277777777778)"/><path d="M1210.95 348l.2-.56.95-2.3 1.07-2.2 1.16-2.1 1.28-2.02 1.38-1.92 1.48-1.84 1.57-1.74 1.68-1.66 1.8-1.58 1.88-1.47 1.98-1.38 2.08-1.28 2.16-1.17 2.26-1.06 2.33-.92 2.4-.8 2.46-.7 2.5-.53 2.54-.4 2.56-.25 2.56-.1 2.55.04 2.52.18 2.48.33 2.45.46 2.4.6 2.3.72 2.27.84 2.2.96 2.1 1.08 2.05 1.18 1.96 1.3 1.9 1.4 1.8 1.53 1.74 1.64 1.66 1.75 1.6 1.86 1.5 2 1.42 2.14 1.35 2.3 1.26 2.44 1.18 2.63.3.8" stroke="#3a414a" stroke-linejoin="round" fill="none"/><path d="M1208.3 362.46l-2-14.86 9.13 1.67zM1295.62 362.48l-7.82-12.8 9.02-2.15z" stroke="#3a414a" fill="#3a414a"/><path d="M902.48 526a6 6 0 0 1 6-6h76a6 6 0 0 1 6 6v49.33a6 6 0 0 1-6 6h-76a6 6 0 0 1-6-6z" stroke="#3a414a" fill-opacity="0"/><use xlink:href="#a" transform="matrix(1,0,0,1,907.4803549574981,525) translate(32.82716049382716 30.77777777777778)"/><path d="M990.48 526a6 6 0 0 1 6-6h76a6 6 0 0 1 6 6v49.33a6 6 0 0 1-6 6h-76a6 6 0 0 1-6-6z" stroke="#3a414a" fill-opacity="0"/><use xlink:href="#f" transform="matrix(1,0,0,1,995.4803549574981,525) translate(32.82716049382716 30.77777777777778)"/><path d="M1078.48 526a6 6 0 0 1 6-6h76a6 6 0 0 1 6 6v49.33a6 6 0 0 1-6 6h-76a6 6 0 0 1-6-6z" stroke="#3a414a" fill-opacity="0"/><use xlink:href="#c" transform="matrix(1,0,0,1,1083.480354957498,525) translate(32.82716049382716 30.77777777777778)"/><path d="M1166.48 526a6 6 0 0 1 6-6h76a6 6 0 0 1 6 6v49.33a6 6 0 0 1-6 6h-76a6 6 0 0 1-6-6z" stroke="#3a414a" fill-opacity="0"/><use xlink:href="#e" transform="matrix(1,0,0,1,1171.480354957498,525) translate(32.82716049382716 30.77777777777778)"/><path d="M1254.48 526a6 6 0 0 1 6-6h76a6 6 0 0 1 6 6v49.33a6 6 0 0 1-6 6h-76a6 6 0 0 1-6-6z" stroke="#3a414a" fill-opacity="0"/><use xlink:href="#d" transform="matrix(1,0,0,1,1259.480354957498,525) translate(32.82716049382716 30.77777777777778)"/><path d="M1342.48 526a6 6 0 0 1 6-6h76a6 6 0 0 1 6 6v49.33a6 6 0 0 1-6 6h-76a6 6 0 0 1-6-6z" stroke="#3a414a" fill-opacity="0"/><use xlink:href="#b" transform="matrix(1,0,0,1,1347.480354957498,525) translate(32.82716049382716 30.77777777777778)"/><path d="M1430.48 526a6 6 0 0 1 6-6h76a6 6 0 0 1 6 6v49.33a6 6 0 0 1-6 6h-76a6 6 0 0 1-6-6z" stroke="#3a414a" fill="#f2f3f5"/><use xlink:href="#g" transform="matrix(1,0,0,1,1435.480354957498,525) translate(32.82716049382716 30.77777777777778)"/><path d="M1268 606a6 6 0 0 1 6-6h36a6 6 0 0 1 6 6v32.56a6 6 0 0 1-6 6h-36a6 6 0 0 1-6-6z" stroke="#000" stroke-opacity="0" fill="#fff" fill-opacity="0"/><use xlink:href="#h" transform="matrix(1,0,0,1,1273,605.0000000000001) translate(16.561728395061728 22.15277777777778)"/><path d="M1182.48 612.17a6 6 0 0 1 6-6h36a6 6 0 0 1 6 6v20.22a6 6 0 0 1-6 6h-36a6 6 0 0 1-6-6z" stroke="#000" stroke-opacity="0" fill="#fff" fill-opacity="0"/><use xlink:href="#i" transform="matrix(1,0,0,1,1187.480354957498,611.1677400925355) translate(16.561728395061728 19.21527777777778)"/><path d="M1246.86 622.28h4.76" stroke="#3a414a" fill="none"/><path d="M1232.1 622.28l14.26-4.64v9.27zM1266.38 622.28l-14.26 4.63v-9.26z" stroke="#3a414a" fill="#3a414a"/><path d="M900 678.22a6 6 0 0 1 6-6h76a6 6 0 0 1 6 6v49.33a6 6 0 0 1-6 6h-76a6 6 0 0 1-6-6z" stroke="#3a414a" fill-opacity="0"/><use xlink:href="#a" transform="matrix(1,0,0,1,905,677.2207909877305) translate(32.82716049382716 30.77777777777778)"/><path d="M988 678.22a6 6 0 0 1 6-6h76a6 6 0 0 1 6 6v49.33a6 6 0 0 1-6 6h-76a6 6 0 0 1-6-6z" stroke="#3a414a" fill-opacity="0"/><use xlink:href="#f" transform="matrix(1,0,0,1,993,677.2207909877305) translate(32.82716049382716 30.77777777777778)"/><path d="M1076 678.22a6 6 0 0 1 6-6h76a6 6 0 0 1 6 6v49.33a6 6 0 0 1-6 6h-76a6 6 0 0 1-6-6z" stroke="#3a414a" fill-opacity="0"/><use xlink:href="#c" transform="matrix(1,0,0,1,1081,677.2207909877305) translate(32.82716049382716 30.77777777777778)"/><path d="M1164 678.22a6 6 0 0 1 6-6h76a6 6 0 0 1 6 6v49.33a6 6 0 0 1-6 6h-76a6 6 0 0 1-6-6z" stroke="#3a414a" fill-opacity="0"/><use xlink:href="#e" transform="matrix(1,0,0,1,1169,677.2207909877305) translate(32.82716049382716 30.77777777777778)"/><path d="M1252 678.22a6 6 0 0 1 6-6h76a6 6 0 0 1 6 6v49.33a6 6 0 0 1-6 6h-76a6 6 0 0 1-6-6z" stroke="#3a414a" fill="#f2f3f5"/><use xlink:href="#g" transform="matrix(1,0,0,1,1257,677.2207909877305) translate(32.82716049382716 30.77777777777778)"/><path d="M1340 678.22a6 6 0 0 1 6-6h76a6 6 0 0 1 6 6v49.33a6 6 0 0 1-6 6h-76a6 6 0 0 1-6-6z" stroke="#3a414a" fill="#fff"/><use xlink:href="#b" transform="matrix(1,0,0,1,1345,677.2207909877305) translate(32.82716049382716 30.77777777777778)"/><path d="M1428 678.22a6 6 0 0 1 6-6h76a6 6 0 0 1 6 6v49.33a6 6 0 0 1-6 6h-76a6 6 0 0 1-6-6z" stroke="#3a414a" fill="#fff"/><use xlink:href="#d" transform="matrix(1,0,0,1,1433,677.2207909877305) translate(32.82716049382716 30.77777777777778)"/><path d="M1076 752.72v63.12M1076 752.73v-.5" stroke="#3a414a" fill="none"/><path d="M1076 830.6l-4.63-14.26h9.27z" stroke="#3a414a" fill="#3a414a"/><path d="M895.04 866a6 6 0 0 1 6-6h76a6 6 0 0 1 6 6v49.33a6 6 0 0 1-6 6h-76a6 6 0 0 1-6-6z" stroke="#3a414a" fill-opacity="0"/><use xlink:href="#a" transform="matrix(1,0,0,1,900.0392900850038,865) translate(32.82716049382716 30.77777777777778)"/><path d="M983.04 866a6 6 0 0 1 6-6h76a6 6 0 0 1 6 6v49.33a6 6 0 0 1-6 6h-76a6 6 0 0 1-6-6z" stroke="#3a414a" fill-opacity="0"/><use xlink:href="#f" transform="matrix(1,0,0,1,988.0392900850038,865) translate(32.82716049382716 30.77777777777778)"/><path d="M1071.04 866a6 6 0 0 1 6-6h76a6 6 0 0 1 6 6v49.33a6 6 0 0 1-6 6h-76a6 6 0 0 1-6-6z" stroke="#3a414a" fill-opacity="0"/><use xlink:href="#c" transform="matrix(1,0,0,1,1076.0392900850038,865) translate(32.82716049382716 30.77777777777778)"/><path d="M1159.04 866a6 6 0 0 1 6-6h76a6 6 0 0 1 6 6v49.33a6 6 0 0 1-6 6h-76a6 6 0 0 1-6-6z" stroke="#3a414a" fill-opacity="0"/><use xlink:href="#e" transform="matrix(1,0,0,1,1164.0392900850038,865) translate(32.82716049382716 30.77777777777778)"/><path d="M1247.04 866a6 6 0 0 1 6-6h76a6 6 0 0 1 6 6v49.33a6 6 0 0 1-6 6h-76a6 6 0 0 1-6-6z" stroke="#3a414a" fill="#f2f3f5"/><use xlink:href="#g" transform="matrix(1,0,0,1,1252.0392900850038,865) translate(32.82716049382716 30.77777777777778)"/><path d="M1265.52 946a6 6 0 0 1 6-6h36a6 6 0 0 1 6 6v32.56a6 6 0 0 1-6 6h-36a6 6 0 0 1-6-6z" stroke="#000" stroke-opacity="0" fill="#fff" fill-opacity="0"/><use xlink:href="#h" transform="matrix(1,0,0,1,1270.519645042502,945) translate(16.561728395061728 22.15277777777778)"/><path d="M1180 952.17a6 6 0 0 1 6-6h36a6 6 0 0 1 6 6v20.22a6 6 0 0 1-6 6h-36a6 6 0 0 1-6-6z" stroke="#000" stroke-opacity="0" fill="#fff" fill-opacity="0"/><use xlink:href="#i" transform="matrix(1,0,0,1,1185,951.1677400925354) translate(16.561728395061728 19.21527777777778)"/><path d="M1244.38 962.28h4.76" stroke="#3a414a" fill="none"/><path d="M1229.62 962.28l14.26-4.64v9.27zM1263.9 962.28l-14.26 4.63v-9.26z" stroke="#3a414a" fill="#3a414a"/><path d="M895.04 1026a6 6 0 0 1 6-6h76a6 6 0 0 1 6 6v49.33a6 6 0 0 1-6 6h-76a6 6 0 0 1-6-6z" stroke="#3a414a" fill-opacity="0"/><use xlink:href="#a" transform="matrix(1,0,0,1,900.0392900850038,1025) translate(32.82716049382716 30.77777777777778)"/><path d="M983.04 1026a6 6 0 0 1 6-6h76a6 6 0 0 1 6 6v49.33a6 6 0 0 1-6 6h-76a6 6 0 0 1-6-6z" stroke="#3a414a" fill-opacity="0"/><use xlink:href="#f" transform="matrix(1,0,0,1,988.0392900850038,1025) translate(32.82716049382716 30.77777777777778)"/><path d="M1071.04 1026a6 6 0 0 1 6-6h76a6 6 0 0 1 6 6v49.33a6 6 0 0 1-6 6h-76a6 6 0 0 1-6-6z" stroke="#3a414a" fill-opacity="0"/><use xlink:href="#c" transform="matrix(1,0,0,1,1076.0392900850038,1025) translate(32.82716049382716 30.77777777777778)"/><path d="M1159.04 1026a6 6 0 0 1 6-6h76a6 6 0 0 1 6 6v49.33a6 6 0 0 1-6 6h-76a6 6 0 0 1-6-6z" stroke="#3a414a" fill="#f2f3f5"/><use xlink:href="#e" transform="matrix(1,0,0,1,1164.0392900850038,1025) translate(32.82716049382716 30.77777777777778)"/><path d="M1247.04 1026a6 6 0 0 1 6-6h76a6 6 0 0 1 6 6v49.33a6 6 0 0 1-6 6h-76a6 6 0 0 1-6-6z" stroke="#3a414a" fill="#fff"/><use xlink:href="#g" transform="matrix(1,0,0,1,1252.0392900850038,1025) translate(32.82716049382716 30.77777777777778)"/><path d="M1040 1120.5v23.12M1040 1120.5v-.5" stroke="#3a414a" fill="none"/><path d="M1040 1158.38l-4.63-14.26h9.27z" stroke="#3a414a" fill="#3a414a"/><path d="M895.04 1226a6 6 0 0 1 6-6h76a6 6 0 0 1 6 6v49.33a6 6 0 0 1-6 6h-76a6 6 0 0 1-6-6z" stroke="#3a414a" fill-opacity="0"/><use xlink:href="#a" transform="matrix(1,0,0,1,900.0392900850038,1225) translate(32.82716049382716 30.77777777777778)"/><path d="M983.04 1226a6 6 0 0 1 6-6h76a6 6 0 0 1 6 6v49.33a6 6 0 0 1-6 6h-76a6 6 0 0 1-6-6z" stroke="#3a414a" fill-opacity="0"/><use xlink:href="#f" transform="matrix(1,0,0,1,988.0392900850038,1225) translate(32.82716049382716 30.77777777777778)"/><path d="M1071.04 1226a6 6 0 0 1 6-6h76a6 6 0 0 1 6 6v49.33a6 6 0 0 1-6 6h-76a6 6 0 0 1-6-6z" stroke="#3a414a" fill-opacity="0"/><use xlink:href="#c" transform="matrix(1,0,0,1,1076.0392900850038,1225) translate(32.82716049382716 30.77777777777778)"/><path d="M1159.04 1226a6 6 0 0 1 6-6h76a6 6 0 0 1 6 6v49.33a6 6 0 0 1-6 6h-76a6 6 0 0 1-6-6z" stroke="#3a414a" fill="#f2f3f5"/><use xlink:href="#e" transform="matrix(1,0,0,1,1164.0392900850038,1225) translate(32.82716049382716 30.77777777777778)"/><path d="M1247.04 1226a6 6 0 0 1 6-6h76a6 6 0 0 1 6 6v49.33a6 6 0 0 1-6 6h-76a6 6 0 0 1-6-6z" stroke="#3a414a" fill="#fff"/><use xlink:href="#g" transform="matrix(1,0,0,1,1252.0392900850038,1225) translate(32.82716049382716 30.77777777777778)"/><path d="M978.08 1306a6 6 0 0 1 6-6h80.96a6 6 0 0 1 6 6v28a6 6 0 0 1-6 6h-80.96a6 6 0 0 1-6-6z" stroke="#000" stroke-opacity="0" fill="#fff" fill-opacity="0"/><use xlink:href="#h" transform="matrix(1,0,0,1,983.0785801700076,1305) translate(39.06172839506173 19.65277777777778)"/><path d="M1066.08 1306a6 6 0 0 1 6-6h80.96a6 6 0 0 1 6 6v28a6 6 0 0 1-6 6h-80.96a6 6 0 0 1-6-6z" stroke="#000" stroke-opacity="0" fill="#fff" fill-opacity="0"/><use xlink:href="#i" transform="matrix(1,0,0,1,1071.0785801700076,1305) translate(39.06172839506173 19.65277777777778)"/><path d="M1033.47 1204.93l1-.94 1.28-1.06 1.45-1.06 1.65-1.07 1.9-1.08 2.17-1.08 2.48-1.07 2.84-1.03 3.23-.97 3.62-.86 4-.72 4.34-.53 4.58-.3 4.68-.03 4.63.22 4.42.47 4.1.68 3.75.83 3.34.95 2.95 1.02 2.58 1.06 2.25 1.08 1.97 1.1 1.72 1.07 1.5 1.07 1.33 1.05 1.15 1.02.2.2" stroke="#3a414a" stroke-linejoin="round" fill="none"/><path d="M1027.7 1218.02l1.5-14.92 8.5 3.74zM1114.4 1218.02l-10-11.18 8.47-3.74z" stroke="#3a414a" fill="#3a414a"/><defs><path fill="#3a414a" d="M27 0v-27h64v-190l-56 39v-29l58-41h29v221h61V0H27" id="j"/><use transform="matrix(0.06172839506172839,0,0,0.06172839506172839,0,0)" xlink:href="#j" id="a"/><path fill="#3a414a" d="M134-131c28 9 52 24 51 62-1 50-34 73-85 73S17-19 16-69c0-36 21-54 49-61-75-25-45-126 34-121 46 3 78 18 79 63 0 33-17 51-44 57zm-34-11c31 1 46-15 46-44 0-28-17-43-47-42-29 0-46 13-45 42 1 28 16 44 46 44zm1 122c35 0 51-18 51-52 0-30-18-46-53-46-33 0-51 17-51 47 0 34 19 51 53 51" id="k"/><use transform="matrix(0.06172839506172839,0,0,0.06172839506172839,0,0)" xlink:href="#k" id="b"/><path fill="#3a414a" d="M126-127c33 6 58 20 58 59 0 88-139 92-164 29-3-8-5-16-6-25l32-3c6 27 21 44 54 44 32 0 52-15 52-46 0-38-36-46-79-43v-28c39 1 72-4 72-42 0-27-17-43-46-43-28 0-47 15-49 41l-32-3c6-42 35-63 81-64 48-1 79 21 79 65 0 36-21 52-52 59" id="l"/><use transform="matrix(0.06172839506172839,0,0,0.06172839506172839,0,0)" xlink:href="#l" id="c"/><path fill="#3a414a" d="M99-251c64 0 84 50 84 122C183-37 130 33 47-8c-14-7-20-23-25-40l30-5c6 39 69 39 84 7 9-19 16-44 16-74-10 22-31 35-62 35-49 0-73-33-73-83 0-54 28-83 82-83zm-1 141c31-1 51-18 51-49 0-36-14-67-51-67-34 0-49 23-49 58 0 34 15 58 49 58" id="m"/><use transform="matrix(0.06172839506172839,0,0,0.06172839506172839,0,0)" xlink:href="#m" id="d"/><path fill="#3a414a" d="M155-56V0h-30v-56H8v-25l114-167h33v167h35v25h-35zm-30-156c-27 46-58 90-88 131h88v-131" id="n"/><use transform="matrix(0.06172839506172839,0,0,0.06172839506172839,0,0)" xlink:href="#n" id="e"/><path fill="#3a414a" d="M54-142c48-35 137-8 131 61C196 18 31 33 14-55l32-4c7 23 22 37 52 37 35-1 51-22 54-58 4-55-73-65-99-34H22l8-134h141v27H59" id="o"/><use transform="matrix(0.06172839506172839,0,0,0.06172839506172839,0,0)" xlink:href="#o" id="f"/><path fill="#3a414a" d="M64 0c3-98 48-159 88-221H18v-27h164v26C143-157 98-101 97 0H64" id="p"/><use transform="matrix(0.06172839506172839,0,0,0.06172839506172839,0,0)" xlink:href="#p" id="g"/><path fill="#3a414a" d="M24-231v-30h32v30H24zM24 0v-190h32V0H24" id="q"/><use transform="matrix(0.06172839506172839,0,0,0.06172839506172839,0,0)" xlink:href="#q" id="h"/><path fill="#3a414a" d="M24-231v-30h32v30H24zM-9 49c24 4 33-6 33-30v-209h32V24c2 40-23 58-65 49V49" id="r"/><use transform="matrix(0.06172839506172839,0,0,0.06172839506172839,0,0)" xlink:href="#r" id="i"/></defs></g></svg>