<svg xmlns="http://www.w3.org/2000/svg" xmlns:xlink="http://www.w3.org/1999/xlink" xmlns:lucid="lucid" width="585.62" height="428.55"><g transform="translate(-824.8774087067877 -35.61629731549949)" lucid:page-tab-id="0_0"><path d="M1270 346a6 6 0 0 1 6-6h128a6 6 0 0 1 6 6v48a6 6 0 0 1-6 6h-128a6 6 0 0 1-6-6z" stroke="#3a414a" fill="#fff"/><use xlink:href="#a" transform="matrix(1,0,0,1,1282,352) translate(48.123456790123456 22.27777777777778)"/><path d="M1270 406a6 6 0 0 1 6-6h58a6 6 0 0 1 6 6v48a6 6 0 0 1-6 6h-58a6 6 0 0 1-6-6z" stroke="#3a414a" fill="#fff"/><path d="M1315 430c0 5.52-4.48 10-10 10s-10-4.48-10-10 4.48-10 10-10 10 4.48 10 10z" stroke="#3a414a" fill="#3a414a"/><path d="M1109 386a6 6 0 0 1 6-6h60a6 6 0 0 1 6 6v35.33a6 6 0 0 1-6 6h-60a6 6 0 0 1-6-6z" stroke="#000" stroke-opacity="0" fill="#fff" fill-opacity="0"/><use xlink:href="#b" transform="matrix(1,0,0,1,1114,385) translate(22.24074074074074 22.52777777777778)"/><path d="M1020.96 433.47l63.95-27.08" stroke="#3a414a" fill="none"/><path d="M1021.16 433.9l-.66.28v-1.03l.3-.12z" stroke="#3a414a" stroke-width=".05" fill="#3a414a"/><path d="M1098.5 400.63l-11.32 9.83-3.6-8.53z" stroke="#3a414a" fill="#3a414a"/><path d="M1176.06 423.5l63.53-21.84M1176.07 423.5l-.5.17" stroke="#3a414a" fill="none"/><path d="M1253.55 396.86l-11.98 9.02-3-8.77z" stroke="#3a414a" fill="#3a414a"/><path d="M840 66a6 6 0 0 1 6-6h228a6 6 0 0 1 6 6v48a6 6 0 0 1-6 6H846a6 6 0 0 1-6-6z" stroke="#000" stroke-opacity="0" fill="#fff" fill-opacity="0"/><use xlink:href="#c" transform="matrix(1,0,0,1,845,65) translate(90.30864197530865 30.27777777777778)"/><path d="M1261.75 437h-61.37M1261.74 437h.5" stroke="#3a414a" fill="none"/><path d="M1185.62 437l14.26-4.63v9.26z" stroke="#3a414a" fill="#3a414a"/><path d="M1120.42 441h-61.37M1120.4 441h.52" stroke="#3a414a" fill="none"/><path d="M1044.3 441l14.25-4.63v9.26z" stroke="#3a414a" fill="#3a414a"/><path d="M1340 406a6 6 0 0 1 6-6h58a6 6 0 0 1 6 6v48a6 6 0 0 1-6 6h-58a6 6 0 0 1-6-6z" stroke="#3a414a" fill="#fff"/><path d="M1385 430c0 5.52-4.48 10-10 10s-10-4.48-10-10 4.48-10 10-10 10 4.48 10 10z" stroke="#3a414a" fill="#3a414a"/><path d="M880 349.67a6 6 0 0 1 6-6h128a6 6 0 0 1 6 6v48a6 6 0 0 1-6 6H886a6 6 0 0 1-6-6z" stroke="#3a414a" fill="#fff"/><use xlink:href="#d" transform="matrix(1,0,0,1,892.0000000000002,355.66666666666663) translate(48.123456790123456 22.27777777777778)"/><path d="M880 409.67a6 6 0 0 1 6-6h58a6 6 0 0 1 6 6v48a6 6 0 0 1-6 6h-58a6 6 0 0 1-6-6zM950 409.67a6 6 0 0 1 6-6h58a6 6 0 0 1 6 6v48a6 6 0 0 1-6 6h-58a6 6 0 0 1-6-6z" stroke="#3a414a" fill="#fff"/><path d="M995 433.67c0 5.52-4.48 10-10 10s-10-4.48-10-10c0-5.53 4.48-10 10-10s10 4.47 10 10zM927 433.67c0 5.52-4.48 10-10 10s-10-4.48-10-10c0-5.53 4.48-10 10-10s10 4.47 10 10z" stroke="#3a414a" fill="#3a414a"/><path d="M880 126a6 6 0 0 1 6-6h128a6 6 0 0 1 6 6v48a6 6 0 0 1-6 6H886a6 6 0 0 1-6-6z" stroke="#3a414a" fill="#fff"/><use xlink:href="#e" transform="matrix(1,0,0,1,892,132) translate(40.77777777777778 22.27777777777778)"/><path d="M880 186a6 6 0 0 1 6-6h58a6 6 0 0 1 6 6v48a6 6 0 0 1-6 6h-58a6 6 0 0 1-6-6zM950 186a6 6 0 0 1 6-6h58a6 6 0 0 1 6 6v48a6 6 0 0 1-6 6h-58a6 6 0 0 1-6-6z" stroke="#3a414a" fill="#fff"/><path d="M995 210c0 5.52-4.48 10-10 10s-10-4.48-10-10 4.48-10 10-10 10 4.48 10 10zM926 210c0 5.52-4.48 10-10 10s-10-4.48-10-10 4.48-10 10-10 10 4.48 10 10z" stroke="#3a414a" fill="#3a414a"/><path d="M984.84 240.97l-29.55 86.7" stroke="#3a414a" fill="none"/><path d="M985.28 241.14l-.9-.3.12-.34h1z" stroke="#3a414a" stroke-width=".05" fill="#3a414a"/><path d="M950.52 341.63l.22-15 8.77 3z" stroke="#3a414a" fill="#3a414a"/><path d="M914.63 240.85l-3.55 3.36-3.6 3.14-3.3 2.65-3.08 2.24-2.86 1.9-2.67 1.64-2.5 1.4-2.36 1.17-2.22 1-2.1.85-2.02.7-1.92.6-1.84.48-1.77.38-1.7.3-1.64.2-1.6.14-1.56.07h-1.5l-1.48-.05-1.45-.1-1.4-.2-1.4-.22-1.38-.3-1.37-.33-1.35-.4-1.34-.47-1.34-.52-1.33-.6-1.34-.64-1.33-.73-1.33-.8-1.34-.87-1.34-.97-1.36-1.07-1.36-1.17-1.37-1.28-1.38-1.4-1.4-1.54-1.4-1.67-1.4-1.85-1.42-2.02-1.4-2.2-1.42-2.43-1.4-2.65-1.36-2.9-1.34-3.15-1.3-3.44-1.22-3.75-1.14-4.03-1.03-4.35-.9-4.66-.75-4.95-.57-5.25-.36-5.5-.14-5.75.1-5.94.36-6.07.63-6.2.9-6.25 1.18-6.26 1.44-6.25 1.7-6.18 1.95-6.1 2.2-6 2.43-5.83 2.66-5.7 2.87-5.53 3.08-5.37 3.27-5.2 3.46-5 3.65-4.84 3.84-4.67 4-4.5 4.22-4.32 4.4-4.16 4.6-4 4.8-3.83 5-3.67 5.25-3.5 5.48-3.35 5.75-3.2 6.03-3 6.33-2.85 6.66-2.67 7.03-2.46 7.43-2.27 7.87-2.05 8.37-1.8 8.9-1.54 9.54-1.24 10.2-.9 11-.5 11.88-.02 12.9.5 14.03 1.13 15.36 1.9 16.9 2.8 18.7 3.9 3.44.82 61.5 15.93 39.55 12.04 27.8 9.77 20.7 8.28 16.1 7.22 12.9 6.45 10.58 5.86 8.85 5.42 7.54 5.04 6.5 4.76 5.67 4.53 5 4.34 4.45 4.2 3.98 4.1 3.6 4.02 3.25 3.97 2.98 3.93 2.72 3.95 2.5 3.97 2.3 4.02 2.12 4.1 1.96 4.2 1.8 4.36 1.68 4.54 1.54 4.76 1.4 5.06 1.23 5.4 1.1 5.9.93 6.47.73 7.28.5 8.37.16 9.97-.33 12.53-1.2 17.5-3.93 34.9-2.64 19.44" stroke="#3a414a" stroke-linejoin="round" fill="none"/><path d="M914.95 241.2l-.65-.7h1.4z" stroke="#3a414a" stroke-width=".05" fill="#3a414a"/><path d="M1340.22 337.9l-2.68-14.76 9.2 1.24z" stroke="#3a414a" fill="#3a414a"/><defs><path fill="#3a414a" d="M141 0L90-78 38 0H4l68-98-65-92h35l48 74 47-74h35l-64 92 68 98h-35" id="f"/><path fill="#3a414a" d="M117-194c89-4 53 116 60 194h-32v-121c0-31-8-49-39-48C34-167 62-67 57 0H25l-1-190h30c1 10-1 24 2 32 11-22 29-35 61-36" id="g"/><g id="a"><use transform="matrix(0.06172839506172839,0,0,0.06172839506172839,0,0)" xlink:href="#f"/><use transform="matrix(0.043209876543209874,0,0,0.043209876543209874,11.11111111111111,3.1111111111111107)" xlink:href="#g"/></g><path fill="#3a414a" d="M33 0v-38h34V0H33" id="h"/><g id="b"><use transform="matrix(0.06172839506172839,0,0,0.06172839506172839,0,0)" xlink:href="#h"/><use transform="matrix(0.06172839506172839,0,0,0.06172839506172839,6.172839506172839,0)" xlink:href="#h"/><use transform="matrix(0.06172839506172839,0,0,0.06172839506172839,12.345679012345679,0)" xlink:href="#h"/></g><path fill="#3a414a" d="M67-158c15-20 31-36 64-36 94 0 33 127 27 194h-32l25-140c3-38-53-32-70-12C52-117 51-51 37 0H6l51-261h31" id="i"/><path fill="#3a414a" d="M111-194c62-3 86 47 72 106H45c-7 38 6 69 45 68 27-1 43-14 53-32l24 11C152-15 129 4 87 4 38 3 12-23 12-71c0-70 32-119 99-123zm44 81c14-66-71-72-95-28-4 8-8 17-11 28h106" id="j"/><path fill="#3a414a" d="M165-48c-4 18 1 34 23 27l-3 20c-29 8-62 0-52-35h-2C116-14 99 4 63 4 30 4 8-16 8-49c0-68 71-67 138-67 10-26 0-56-31-54-26 1-42 9-47 31l-32-5c8-67 160-71 144 15-5 28-9 54-15 81zM42-50c3 52 80 24 89-6 7-12 7-24 11-38-47 1-103-4-100 44" id="k"/><path fill="#3a414a" d="M133-28C103 26-5 8 13-77c13-62 24-115 90-117 29-1 46 15 56 35l19-102h32L160 0h-30zM45-64c-2 27 10 43 35 43 54-1 69-50 69-103 0-29-15-46-42-46-53-1-58 58-62 106" id="l"/><g id="c"><use transform="matrix(0.06172839506172839,0,0,0.06172839506172839,0,0)" xlink:href="#i"/><use transform="matrix(0.06172839506172839,0,0,0.06172839506172839,12.345679012345679,0)" xlink:href="#j"/><use transform="matrix(0.06172839506172839,0,0,0.06172839506172839,24.691358024691358,0)" xlink:href="#k"/><use transform="matrix(0.06172839506172839,0,0,0.06172839506172839,37.03703703703704,0)" xlink:href="#l"/></g><path fill="#3a414a" d="M27 0v-27h64v-190l-56 39v-29l58-41h29v221h61V0H27" id="m"/><g id="d"><use transform="matrix(0.06172839506172839,0,0,0.06172839506172839,0,0)" xlink:href="#f"/><use transform="matrix(0.043209876543209874,0,0,0.043209876543209874,11.11111111111111,3.1111111111111107)" xlink:href="#m"/></g><path fill="#3a414a" d="M84 4C-5 8 30-112 23-190h32v120c0 31 7 50 39 49 72-2 45-101 50-169h31l1 190h-30c-1-10 1-25-2-33-11 22-28 36-60 37" id="n"/><path fill="#3a414a" d="M24 0v-261h32V0H24" id="o"/><g id="e"><use transform="matrix(0.06172839506172839,0,0,0.06172839506172839,0,0)" xlink:href="#g"/><use transform="matrix(0.06172839506172839,0,0,0.06172839506172839,12.345679012345679,0)" xlink:href="#n"/><use transform="matrix(0.06172839506172839,0,0,0.06172839506172839,24.691358024691358,0)" xlink:href="#o"/><use transform="matrix(0.06172839506172839,0,0,0.06172839506172839,29.5679012345679,0)" xlink:href="#o"/></g></defs></g></svg>