<svg xmlns="http://www.w3.org/2000/svg" xmlns:xlink="http://www.w3.org/1999/xlink" xmlns:lucid="lucid" width="801" height="321"><g transform="translate(-719.4994495859569 -209.4994495859569)" lucid:page-tab-id="0_0"><path d="M1120 250c0 22.1-17.9 40-40 40s-40-17.9-40-40 17.9-40 40-40 40 17.9 40 40z" stroke="#3a414a" fill="#fff"/><use xlink:href="#a" transform="matrix(1,0,0,1,1045,215) translate(28.82716049382716 39.65277777777778)"/><path d="M940 330c0 22.1-17.9 40-40 40s-40-17.9-40-40 17.9-40 40-40 40 17.9 40 40z" stroke="#3a414a" fill="#fff"/><use xlink:href="#b" transform="matrix(1,0,0,1,865,295) translate(28.82716049382716 39.65277777777778)"/><path d="M800 410c0 22.1-17.9 40-40 40s-40-17.9-40-40 17.9-40 40-40 40 17.9 40 40z" stroke="#3a414a" fill="#fff"/><use xlink:href="#c" transform="matrix(1,0,0,1,725,375) translate(28.82716049382716 39.65277777777778)"/><path d="M1080 400c0 22.1-17.9 40-40 40s-40-17.9-40-40 17.9-40 40-40 40 17.9 40 40z" stroke="#3a414a" fill="#fff"/><use xlink:href="#d" transform="matrix(1,0,0,1,1005,365) translate(28.82716049382716 39.65277777777778)"/><path d="M1280 330c0 22.1-17.9 40-40 40s-40-17.9-40-40 17.9-40 40-40 40 17.9 40 40z" stroke="#3a414a" fill="#fff"/><use xlink:href="#e" transform="matrix(1,0,0,1,1205,295) translate(28.82716049382716 39.65277777777778)"/><path d="M1420 400c0 22.1-17.9 40-40 40s-40-17.9-40-40 17.9-40 40-40 40 17.9 40 40z" stroke="#3a414a" fill="#fff"/><use xlink:href="#f" transform="matrix(1,0,0,1,1345,365) translate(28.82716049382716 39.65277777777778)"/><path d="M1520 490c0 22.1-17.9 40-40 40s-40-17.9-40-40 17.9-40 40-40 40 17.9 40 40z" stroke="#3a414a" fill="#fff"/><use xlink:href="#g" transform="matrix(1,0,0,1,1445,455) translate(28.82716049382716 39.65277777777778)"/><path d="M1039.04 250.2l-114.8 46.83" stroke="#3a414a" fill="none"/><path d="M1039.5 250l.02.5-.32.13-.36-.88.7-.28zM924.44 297.47l-.24.1-.53-.44-.36-.23.78-.3z" stroke="#3a414a" stroke-width=".05" fill="#3a414a"/><path d="M1120.95 250.22l94.24 47.3" stroke="#3a414a" fill="none"/><path d="M1121.17 249.8l-.42.85-.28-.13.03-.5-.02-.56zM1216.07 297.42l-.86.63-.23-.12.42-.85z" stroke="#3a414a" stroke-width=".05" fill="#3a414a"/><path d="M859.08 330.27L785 377.6" stroke="#3a414a" fill="none"/><path d="M859.5 330l.02.55-.2.13-.5-.8.72-.47zM785.26 378l-.3.2-.77-.64.55-.36z" stroke="#3a414a" stroke-width=".05" fill="#3a414a"/><path d="M940.95 330.22l75.44 36.4" stroke="#3a414a" fill="none"/><path d="M941.17 329.8l-.4.85-.3-.14.03-.5-.02-.54zM1017.28 366.53l-.87.64-.22-.1.4-.87z" stroke="#3a414a" stroke-width=".05" fill="#3a414a"/><path d="M1280.94 330.23l73.5 37.83" stroke="#3a414a" fill="none"/><path d="M1281.17 329.8l-.43.86-.27-.14.03-.5-.02-.56zM1355.3 367.98l-.85.63-.24-.12.44-.85z" stroke="#3a414a" stroke-width=".05" fill="#3a414a"/><path d="M1420.8 398.35l58.82 50.82" stroke="#3a414a" fill="none"/><path d="M1421.13 398l-.62.72-.05-.05-.04-1.3zM1480.78 449.55l-.77-.05-.7.02.62-.7z" stroke="#3a414a" stroke-width=".05" fill="#3a414a"/><path d="M980 490c0 22.1-17.9 40-40 40s-40-17.9-40-40 17.9-40 40-40 40 17.9 40 40z" stroke="#3a414a" fill="#fff"/><use xlink:href="#h" transform="matrix(1,0,0,1,905,455) translate(28.82716049382716 39.65277777777778)"/><path d="M999.1 400.32l-58.72 48.86" stroke="#3a414a" fill="none"/><path d="M999.5 400l.02.6-.1.1-.62-.74.74-.6zM940.7 449.54l-.7-.04-.78.03.87-.72z" stroke="#3a414a" stroke-width=".05" fill="#3a414a"/><path d="M1320 490c0 22.1-17.9 40-40 40s-40-17.9-40-40 17.9-40 40-40 40 17.9 40 40z" stroke="#3a414a" fill="#fff"/><use xlink:href="#i" transform="matrix(1,0,0,1,1245,455) translate(28.82716049382716 39.65277777777778)"/><path d="M1339.12 400.32l-58.74 48.86" stroke="#3a414a" fill="none"/><path d="M1339.5 400l.02.6-.1.1-.62-.74.74-.6zM1280.7 449.54l-.7-.04-.78.03.87-.72z" stroke="#3a414a" stroke-width=".05" fill="#3a414a"/><defs><path fill="#3a414a" d="M110-160c48 1 74 30 74 79 0 53-28 85-80 85-65 0-83-55-86-122-5-90 50-162 133-122 14 7 22 21 27 39l-31 6c-5-40-67-38-82-6-9 19-15 44-15 74 11-20 30-34 60-33zm-7 138c34 0 49-23 49-58s-16-56-50-56c-29 0-50 16-49 49 1 36 15 65 50 65" id="j"/><use transform="matrix(0.06172839506172839,0,0,0.06172839506172839,0,0)" xlink:href="#j" id="a"/><path fill="#3a414a" d="M27 0v-27h64v-190l-56 39v-29l58-41h29v221h61V0H27" id="k"/><use transform="matrix(0.06172839506172839,0,0,0.06172839506172839,0,0)" xlink:href="#k" id="b"/><path fill="#3a414a" d="M54-142c48-35 137-8 131 61C196 18 31 33 14-55l32-4c7 23 22 37 52 37 35-1 51-22 54-58 4-55-73-65-99-34H22l8-134h141v27H59" id="l"/><use transform="matrix(0.06172839506172839,0,0,0.06172839506172839,0,0)" xlink:href="#l" id="c"/><path fill="#3a414a" d="M155-56V0h-30v-56H8v-25l114-167h33v167h35v25h-35zm-30-156c-27 46-58 90-88 131h88v-131" id="m"/><use transform="matrix(0.06172839506172839,0,0,0.06172839506172839,0,0)" xlink:href="#m" id="d"/><path fill="#3a414a" d="M64 0c3-98 48-159 88-221H18v-27h164v26C143-157 98-101 97 0H64" id="n"/><use transform="matrix(0.06172839506172839,0,0,0.06172839506172839,0,0)" xlink:href="#n" id="e"/><path fill="#3a414a" d="M99-251c64 0 84 50 84 122C183-37 130 33 47-8c-14-7-20-23-25-40l30-5c6 39 69 39 84 7 9-19 16-44 16-74-10 22-31 35-62 35-49 0-73-33-73-83 0-54 28-83 82-83zm-1 141c31-1 51-18 51-49 0-36-14-67-51-67-34 0-49 23-49 58 0 34 15 58 49 58" id="o"/><use transform="matrix(0.06172839506172839,0,0,0.06172839506172839,0,0)" xlink:href="#o" id="f"/><path fill="#3a414a" d="M134-131c28 9 52 24 51 62-1 50-34 73-85 73S17-19 16-69c0-36 21-54 49-61-75-25-45-126 34-121 46 3 78 18 79 63 0 33-17 51-44 57zm-34-11c31 1 46-15 46-44 0-28-17-43-47-42-29 0-46 13-45 42 1 28 16 44 46 44zm1 122c35 0 51-18 51-52 0-30-18-46-53-46-33 0-51 17-51 47 0 34 19 51 53 51" id="p"/><use transform="matrix(0.06172839506172839,0,0,0.06172839506172839,0,0)" xlink:href="#p" id="g"/><path fill="#3a414a" d="M101-251c82-7 93 87 43 132L82-64C71-53 59-42 53-27h129V0H18c2-99 128-94 128-182 0-28-16-43-45-43s-46 15-49 41l-32-3c6-41 34-60 81-64" id="q"/><use transform="matrix(0.06172839506172839,0,0,0.06172839506172839,0,0)" xlink:href="#q" id="h"/><path fill="#3a414a" d="M126-127c33 6 58 20 58 59 0 88-139 92-164 29-3-8-5-16-6-25l32-3c6 27 21 44 54 44 32 0 52-15 52-46 0-38-36-46-79-43v-28c39 1 72-4 72-42 0-27-17-43-46-43-28 0-47 15-49 41l-32-3c6-42 35-63 81-64 48-1 79 21 79 65 0 36-21 52-52 59" id="r"/><use transform="matrix(0.06172839506172839,0,0,0.06172839506172839,0,0)" xlink:href="#r" id="i"/></defs></g></svg>