<svg xmlns="http://www.w3.org/2000/svg" xmlns:xlink="http://www.w3.org/1999/xlink" xmlns:lucid="lucid" width="681" height="391"><g transform="translate(-699.4994495859569 -209.4994495859569)" lucid:page-tab-id="0_0"><path d="M1120 250c0 22.1-17.9 40-40 40s-40-17.9-40-40 17.9-40 40-40 40 17.9 40 40z" stroke="#3a414a" fill="#fff"/><use xlink:href="#a" transform="matrix(1,0,0,1,1045,215) translate(28.82716049382716 39.65277777777778)"/><path d="M900 360c0 22.1-17.9 40-40 40s-40-17.9-40-40 17.9-40 40-40 40 17.9 40 40z" stroke="#3a414a" fill="#fff"/><use xlink:href="#b" transform="matrix(1,0,0,1,825,325) translate(28.82716049382716 39.65277777777778)"/><path d="M780 440c0 22.1-17.9 40-40 40s-40-17.9-40-40 17.9-40 40-40 40 17.9 40 40z" stroke="#3a414a" fill="#fff"/><use xlink:href="#c" transform="matrix(1,0,0,1,705,405) translate(28.82716049382716 39.65277777777778)"/><path d="M1020 440c0 22.1-17.9 40-40 40s-40-17.9-40-40 17.9-40 40-40 40 17.9 40 40z" stroke="#3a414a" fill="#fff"/><use xlink:href="#d" transform="matrix(1,0,0,1,945,405) translate(28.82716049382716 39.65277777777778)"/><path d="M1380 360c0 22.1-17.9 40-40 40s-40-17.9-40-40 17.9-40 40-40 40 17.9 40 40z" stroke="#3a414a" fill="#fff"/><use xlink:href="#e" transform="matrix(1,0,0,1,1305,325) translate(28.82716049382716 39.65277777777778)"/><path d="M1260 440c0 22.1-17.9 40-40 40s-40-17.9-40-40 17.9-40 40-40 40 17.9 40 40z" stroke="#3a414a" fill="#fff"/><use xlink:href="#f" transform="matrix(1,0,0,1,1185,405) translate(28.82716049382716 39.65277777777778)"/><path d="M1360 560c0 22.1-17.9 40-40 40s-40-17.9-40-40 17.9-40 40-40 40 17.9 40 40z" stroke="#3a414a" fill="#fff"/><use xlink:href="#g" transform="matrix(1,0,0,1,1285,525) translate(28.82716049382716 39.65277777777778)"/><path d="M1039.05 250.22L884.23 327" stroke="#3a414a" fill="none"/><path d="M1039.5 250l.02.52-.27.13-.42-.85.7-.35zM884.45 327.42l-.27.13-.5-.42-.35-.2.7-.36z" stroke="#3a414a" stroke-width=".05" fill="#3a414a"/><path d="M1120.96 250.2l194.2 77.35" stroke="#3a414a" fill="none"/><path d="M1121.15 249.75l-.35.88-.33-.13.03-.5-.02-.52zM1316.1 327.4l-.9.67-.2-.08.34-.9z" stroke="#3a414a" stroke-width=".05" fill="#3a414a"/><path d="M819.12 360.33l-54.17 47.22" stroke="#3a414a" fill="none"/><path d="M819.5 360l.02.6-.1.1-.62-.72.74-.65zM765.28 407.9l-.33.28-.75-.6.45-.4z" stroke="#3a414a" stroke-width=".05" fill="#3a414a"/><path d="M900.9 360.32l55.56 46.2" stroke="#3a414a" fill="none"/><path d="M901.2 359.96l-.6.73-.14-.1.04-.6-.02-.64zM957.24 406.56l-.8.58-.3-.25.6-.74z" stroke="#3a414a" stroke-width=".05" fill="#3a414a"/><path d="M1299.15 360.35l-50.45 50.45" stroke="#3a414a" fill="none"/><path d="M1299.5 360l.02.65-.05.05-.67-.67.74-.75zM1249.05 411.12l-.37.38-.66-.7.36-.35z" stroke="#3a414a" stroke-width=".05" fill="#3a414a"/><path d="M1246.92 470.86l45.42 58.98" stroke="#3a414a" fill="none"/><path d="M1247.3 470.58l-.75.58-.28-.37.7-.66zM1293 529.9l-.7.66-.35-.44.76-.58z" stroke="#3a414a" stroke-width=".05" fill="#3a414a"/><path d="M880 540c0 22.1-17.9 40-40 40s-40-17.9-40-40 17.9-40 40-40 40 17.9 40 40z" stroke="#3a414a" fill="#fff"/><use xlink:href="#h" transform="matrix(1,0,0,1,805,505) translate(28.82716049382716 39.65277777777778)"/><path d="M780.85 440.35l58.8 58.8" stroke="#3a414a" fill="none"/><path d="M781.2 440.03l-.67.67-.07-.07.04-.62-.02-.7zM840.72 499.54l-.7-.04-.67.02-.05-.05.67-.67z" stroke="#3a414a" stroke-width=".05" fill="#3a414a"/><path d="M1160 560c0 22.1-17.9 40-40 40s-40-17.9-40-40 17.9-40 40-40 40 17.9 40 40z" stroke="#3a414a" fill="#fff"/><use xlink:href="#i" transform="matrix(1,0,0,1,1085,525) translate(28.82716049382716 39.65277777777778)"/><path d="M1193.8 471.44l-47.6 57.12" stroke="#3a414a" fill="none"/><path d="M1194.5 471.36l-.34.4-.73-.62.32-.4zM1146.57 528.86l-.32.4-.74-.62.34-.4z" stroke="#3a414a" stroke-width=".05" fill="#3a414a"/><defs><path fill="#3a414a" d="M126-127c33 6 58 20 58 59 0 88-139 92-164 29-3-8-5-16-6-25l32-3c6 27 21 44 54 44 32 0 52-15 52-46 0-38-36-46-79-43v-28c39 1 72-4 72-42 0-27-17-43-46-43-28 0-47 15-49 41l-32-3c6-42 35-63 81-64 48-1 79 21 79 65 0 36-21 52-52 59" id="j"/><use transform="matrix(0.06172839506172839,0,0,0.06172839506172839,0,0)" xlink:href="#j" id="a"/><path fill="#3a414a" d="M155-56V0h-30v-56H8v-25l114-167h33v167h35v25h-35zm-30-156c-27 46-58 90-88 131h88v-131" id="k"/><use transform="matrix(0.06172839506172839,0,0,0.06172839506172839,0,0)" xlink:href="#k" id="b"/><path fill="#3a414a" d="M54-142c48-35 137-8 131 61C196 18 31 33 14-55l32-4c7 23 22 37 52 37 35-1 51-22 54-58 4-55-73-65-99-34H22l8-134h141v27H59" id="l"/><use transform="matrix(0.06172839506172839,0,0,0.06172839506172839,0,0)" xlink:href="#l" id="c"/><path fill="#3a414a" d="M64 0c3-98 48-159 88-221H18v-27h164v26C143-157 98-101 97 0H64" id="m"/><use transform="matrix(0.06172839506172839,0,0,0.06172839506172839,0,0)" xlink:href="#m" id="d"/><path fill="#3a414a" d="M101-251c82-7 93 87 43 132L82-64C71-53 59-42 53-27h129V0H18c2-99 128-94 128-182 0-28-16-43-45-43s-46 15-49 41l-32-3c6-41 34-60 81-64" id="n"/><use transform="matrix(0.06172839506172839,0,0,0.06172839506172839,0,0)" xlink:href="#n" id="e"/><path fill="#3a414a" d="M110-160c48 1 74 30 74 79 0 53-28 85-80 85-65 0-83-55-86-122-5-90 50-162 133-122 14 7 22 21 27 39l-31 6c-5-40-67-38-82-6-9 19-15 44-15 74 11-20 30-34 60-33zm-7 138c34 0 49-23 49-58s-16-56-50-56c-29 0-50 16-49 49 1 36 15 65 50 65" id="o"/><use transform="matrix(0.06172839506172839,0,0,0.06172839506172839,0,0)" xlink:href="#o" id="f"/><path fill="#3a414a" d="M99-251c64 0 84 50 84 122C183-37 130 33 47-8c-14-7-20-23-25-40l30-5c6 39 69 39 84 7 9-19 16-44 16-74-10 22-31 35-62 35-49 0-73-33-73-83 0-54 28-83 82-83zm-1 141c31-1 51-18 51-49 0-36-14-67-51-67-34 0-49 23-49 58 0 34 15 58 49 58" id="p"/><use transform="matrix(0.06172839506172839,0,0,0.06172839506172839,0,0)" xlink:href="#p" id="g"/><path fill="#3a414a" d="M134-131c28 9 52 24 51 62-1 50-34 73-85 73S17-19 16-69c0-36 21-54 49-61-75-25-45-126 34-121 46 3 78 18 79 63 0 33-17 51-44 57zm-34-11c31 1 46-15 46-44 0-28-17-43-47-42-29 0-46 13-45 42 1 28 16 44 46 44zm1 122c35 0 51-18 51-52 0-30-18-46-53-46-33 0-51 17-51 47 0 34 19 51 53 51" id="q"/><use transform="matrix(0.06172839506172839,0,0,0.06172839506172839,0,0)" xlink:href="#q" id="h"/><path fill="#3a414a" d="M27 0v-27h64v-190l-56 39v-29l58-41h29v221h61V0H27" id="r"/><use transform="matrix(0.06172839506172839,0,0,0.06172839506172839,0,0)" xlink:href="#r" id="i"/></defs></g></svg>