<svg xmlns="http://www.w3.org/2000/svg" xmlns:xlink="http://www.w3.org/1999/xlink" xmlns:lucid="lucid" width="620" height="361"><g transform="translate(-900 -99.49999998672622)" lucid:page-tab-id="0_0"><path d="M940 106a6 6 0 0 1 6-6h148a6 6 0 0 1 6 6v108a6 6 0 0 1-6 6H946a6 6 0 0 1-6-6z" stroke="#3a414a" fill="#fff"/><use xlink:href="#a" transform="matrix(1,0,0,1,952,112) translate(56.27160493827161 53.77777777777778)"/><path d="M940 346a6 6 0 0 1 6-6h148a6 6 0 0 1 6 6v108a6 6 0 0 1-6 6H946a6 6 0 0 1-6-6z" stroke="#3a414a" fill="#fff"/><use xlink:href="#b" transform="matrix(1,0,0,1,952,352) translate(47.24074074074074 53.77777777777778)"/><path d="M900 226a6 6 0 0 1 6-6h228a6 6 0 0 1 6 6v78a6 6 0 0 1-6 6H906a6 6 0 0 1-6-6z" stroke="#000" stroke-opacity="0" fill="#fff" fill-opacity="0"/><use xlink:href="#c" transform="matrix(1,0,0,1,905,225) translate(111.91358024691358 20.27777777777778)"/><use xlink:href="#c" transform="matrix(1,0,0,1,905,225) translate(111.91358024691358 46.94444444444444)"/><use xlink:href="#d" transform="matrix(1,0,0,1,905,225) translate(111.91358024691358 73.61111111111111)"/><path d="M1120.5 160h62.62M1120.5 160h-.5" stroke="#3a414a" fill="none"/><path d="M1197.88 160l-14.26 4.63v-9.26z" stroke="#3a414a" fill="#3a414a"/><path d="M1200 146a6 6 0 0 1 6-6h68a6 6 0 0 1 6 6v28a6 6 0 0 1-6 6h-68a6 6 0 0 1-6-6z" stroke="#3a414a" fill="#fff"/><use xlink:href="#e" transform="matrix(1,0,0,1,1205,145) translate(24.506172839506174 19.65277777777778)"/><path d="M1281 160h22.12" stroke="#3a414a" fill="none"/><path d="M1281 160.47h-.5v-.94h.5z" stroke="#3a414a" stroke-width=".05" fill="#3a414a"/><path d="M1317.88 160l-14.26 4.63v-9.26z" stroke="#3a414a" fill="#3a414a"/><path d="M1439.5 146a6 6 0 0 1 6-6h68a6 6 0 0 1 6 6v28a6 6 0 0 1-6 6h-68a6 6 0 0 1-6-6z" stroke="#3a414a" fill="#fff"/><use xlink:href="#f" transform="matrix(1,0,0,1,1444.5000499999967,145) translate(17.6141975308642 19.65277777777778)"/><path d="M1400.5 160h22.12M1400.5 160h-.5" stroke="#3a414a" fill="none"/><path d="M1437.38 160l-14.26 4.63v-9.26z" stroke="#3a414a" fill="#3a414a"/><path d="M1100.5 400h62.62M1100.5 400h-.5" stroke="#3a414a" fill="none"/><path d="M1177.88 400l-14.26 4.63v-9.26z" stroke="#3a414a" fill="#3a414a"/><path d="M1180 386a6 6 0 0 1 6-6h68a6 6 0 0 1 6 6v28a6 6 0 0 1-6 6h-68a6 6 0 0 1-6-6z" stroke="#3a414a" fill="#fff"/><use xlink:href="#e" transform="matrix(1,0,0,1,1185,385) translate(24.506172839506174 19.65277777777778)"/><path d="M1240 146a6 6 0 0 1 6-6h228a6 6 0 0 1 6 6v48a6 6 0 0 1-6 6h-228a6 6 0 0 1-6-6z" stroke="#000" stroke-opacity="0" fill="#fff" fill-opacity="0"/><g><use xlink:href="#g" transform="matrix(1,0,0,1,1245,145) translate(105.74074074074073 30.27777777777778)"/></g><defs><path fill="#3a414a" d="M160-131c35 5 61 23 61 61C221 17 115-2 30 0v-248c76 3 177-17 177 60 0 33-19 50-47 57zm-97-11c50-1 110 9 110-42 0-47-63-36-110-37v79zm0 115c55-2 124 14 124-45 0-56-70-42-124-44v89" id="h"/><path fill="#3a414a" d="M101-251c68 0 85 55 85 127S166 4 100 4C33 4 14-52 14-124c0-73 17-127 87-127zm-1 229c47 0 54-49 54-102s-4-102-53-102c-51 0-55 48-55 102 0 53 5 102 54 102" id="i"/><g id="a"><use transform="matrix(0.06172839506172839,0,0,0.06172839506172839,0,0)" xlink:href="#h"/><use transform="matrix(0.043209876543209874,0,0,0.043209876543209874,14.814814814814813,3.1111111111111107)" xlink:href="#i"/></g><path fill="#3a414a" d="M210-169c-67 3-38 105-44 169h-31v-121c0-29-5-50-35-48C34-165 62-65 56 0H25l-1-190h30c1 10-1 24 2 32 10-44 99-50 107 0 11-21 27-35 58-36 85-2 47 119 55 194h-31v-121c0-29-5-49-35-48" id="j"/><path fill="#3a414a" d="M16-82v-28h88v28H16" id="k"/><path fill="#3a414a" d="M27 0v-27h64v-190l-56 39v-29l58-41h29v221h61V0H27" id="l"/><g id="b"><use transform="matrix(0.06172839506172839,0,0,0.06172839506172839,0,0)" xlink:href="#h"/><use transform="matrix(0.043209876543209874,0,0,0.043209876543209874,14.814814814814813,3.1111111111111107)" xlink:href="#j"/><use transform="matrix(0.043209876543209874,0,0,0.043209876543209874,27.734567901234566,3.1111111111111107)" xlink:href="#k"/><use transform="matrix(0.043209876543209874,0,0,0.043209876543209874,32.876543209876544,3.1111111111111107)" xlink:href="#l"/></g><path fill="#3a414a" d="M33 0v-38h34V0H33" id="m"/><use transform="matrix(0.06172839506172839,0,0,0.06172839506172839,0,0)" xlink:href="#m" id="c"/><use transform="matrix(0.06172839506172839,0,0,0.06172839506172839,0,0)" xlink:href="#m" id="d"/><path fill="#3a414a" d="M100-194c63 0 86 42 84 106H49c0 40 14 67 53 68 26 1 43-12 49-29l28 8c-11 28-37 45-77 45C44 4 14-33 15-96c1-61 26-98 85-98zm52 81c6-60-76-77-97-28-3 7-6 17-6 28h103" id="n"/><g id="e"><use transform="matrix(0.06172839506172839,0,0,0.06172839506172839,0,0)" xlink:href="#n"/><use transform="matrix(0.043209876543209874,0,0,0.043209876543209874,12.345679012345679,3.1111111111111107)" xlink:href="#i"/></g><path fill="#3a414a" d="M115-194c53 0 69 39 70 98 0 66-23 100-70 100C84 3 66-7 56-30L54 0H23l1-261h32v101c10-23 28-34 59-34zm-8 174c40 0 45-34 45-75 0-40-5-75-45-74-42 0-51 32-51 76 0 43 10 73 51 73" id="o"/><g id="f"><use transform="matrix(0.06172839506172839,0,0,0.06172839506172839,0,0)" xlink:href="#n"/><use transform="matrix(0.043209876543209874,0,0,0.043209876543209874,12.345679012345679,3.1111111111111107)" xlink:href="#o"/><use transform="matrix(0.043209876543209874,0,0,0.043209876543209874,20.98765432098765,3.1111111111111107)" xlink:href="#k"/><use transform="matrix(0.043209876543209874,0,0,0.043209876543209874,26.129629629629626,3.1111111111111107)" xlink:href="#l"/></g><g id="g"><use transform="matrix(0.06172839506172839,0,0,0.06172839506172839,0,0)" xlink:href="#m"/><use transform="matrix(0.06172839506172839,0,0,0.06172839506172839,6.172839506172839,0)" xlink:href="#m"/><use transform="matrix(0.06172839506172839,0,0,0.06172839506172839,12.345679012345679,0)" xlink:href="#m"/></g></defs></g></svg>