<svg xmlns="http://www.w3.org/2000/svg" xmlns:xlink="http://www.w3.org/1999/xlink" xmlns:lucid="lucid" width="620.5" height="901"><g transform="translate(-820 -219.4994495859569)" lucid:page-tab-id="0_0"><path d="M1160 340c0 22.1-17.9 40-40 40s-40-17.9-40-40 17.9-40 40-40 40 17.9 40 40z" stroke="#3a414a" fill="#fff"/><use xlink:href="#a" transform="matrix(1,0,0,1,1085,305) translate(22.654320987654323 39.65277777777778)"/><path d="M1300 260c0 22.1-17.9 40-40 40s-40-17.9-40-40 17.9-40 40-40 40 17.9 40 40z" stroke="#3a414a" fill="#f2f3f5"/><use xlink:href="#b" transform="matrix(1,0,0,1,1225,225) translate(28.82716049382716 39.65277777777778)"/><path d="M1260 440c0 22.1-17.9 40-40 40s-40-17.9-40-40 17.9-40 40-40 40 17.9 40 40z" stroke="#3a414a" fill="#fff"/><use xlink:href="#c" transform="matrix(1,0,0,1,1185,405) translate(28.82716049382716 39.65277777777778)"/><path d="M1040 440c0 22.1-17.9 40-40 40s-40-17.9-40-40 17.9-40 40-40 40 17.9 40 40z" stroke="#3a414a" fill="#fff"/><use xlink:href="#d" transform="matrix(1,0,0,1,965,405) translate(28.82716049382716 39.65277777777778)"/><path d="M1440 340c0 22.1-17.9 40-40 40s-40-17.9-40-40 17.9-40 40-40 40 17.9 40 40z" stroke="#3a414a" fill="#fff"/><use xlink:href="#e" transform="matrix(1,0,0,1,1365,305) translate(28.82716049382716 39.65277777777778)"/><path d="M1291.58 286l74.95 30.37" stroke="#3a414a" fill="none"/><path d="M1291.77 285.55l-.36.88-.6-.24.63-.78zM1367.28 316.15l-.15.18-.4.63-.4-.16.37-.88z" stroke="#3a414a" stroke-width=".05" fill="#3a414a"/><path d="M1226.43 283.4l-73.63 32.15" stroke="#3a414a" fill="none"/><path d="M1227.18 283.6l-.57.25-.37-.87.37-.16zM1153 315.98l-.37.16-.57-.78.56-.25z" stroke="#3a414a" stroke-width=".05" fill="#3a414a"/><path d="M1145.55 372l44.44 40.06" stroke="#3a414a" fill="none"/><path d="M1145.87 371.66l-.63.7-.46-.4.78-.58zM1190.7 412.07l-.34.33-.3.37-.4-.36.64-.7z" stroke="#3a414a" stroke-width=".05" fill="#3a414a"/><path d="M1030.26 412.44l58.15-46.32" stroke="#3a414a" fill="none"/><path d="M1030.57 412.8l-.37.3-.66-.7.43-.34zM1088.9 365.94l.2.23-.4.33-.6-.74.42-.33z" stroke="#3a414a" stroke-width=".05" fill="#3a414a"/><path d="M1140 660c0 22.1-17.9 40-40 40s-40-17.9-40-40 17.9-40 40-40 40 17.9 40 40z" stroke="#3a414a" fill="#f2f3f5"/><use xlink:href="#b" transform="matrix(1,0,0,1,1065,625) translate(28.82716049382716 39.65277777777778)"/><path d="M1280 580c0 22.1-17.9 40-40 40s-40-17.9-40-40 17.9-40 40-40 40 17.9 40 40z" stroke="#3a414a" fill="#fff"/><use xlink:href="#a" transform="matrix(1,0,0,1,1205,545) translate(22.654320987654323 39.65277777777778)"/><path d="M1240 760c0 22.1-17.9 40-40 40s-40-17.9-40-40 17.9-40 40-40 40 17.9 40 40z" stroke="#3a414a" fill="#fff"/><use xlink:href="#c" transform="matrix(1,0,0,1,1165,725) translate(28.82716049382716 39.65277777777778)"/><path d="M1020 760c0 22.1-17.9 40-40 40s-40-17.9-40-40 17.9-40 40-40 40 17.9 40 40z" stroke="#3a414a" fill="#fff"/><use xlink:href="#d" transform="matrix(1,0,0,1,945,725) translate(28.82716049382716 39.65277777777778)"/><path d="M1420 660c0 22.1-17.9 40-40 40s-40-17.9-40-40 17.9-40 40-40 40 17.9 40 40z" stroke="#3a414a" fill="#fff"/><use xlink:href="#e" transform="matrix(1,0,0,1,1345,625) translate(28.82716049382716 39.65277777777778)"/><path d="M1271.58 606l74.95 30.37" stroke="#3a414a" fill="none"/><path d="M1271.77 605.55l-.36.88-.6-.24.63-.78zM1347.28 636.15l-.15.18-.4.63-.4-.16.37-.88z" stroke="#3a414a" stroke-width=".05" fill="#3a414a"/><path d="M1206.43 603.4l-73.63 32.15" stroke="#3a414a" fill="none"/><path d="M1207.18 603.6l-.57.25-.37-.87.37-.16zM1133 635.98l-.37.16-.57-.78.56-.25z" stroke="#3a414a" stroke-width=".05" fill="#3a414a"/><path d="M1125.55 692l44.44 40.06" stroke="#3a414a" fill="none"/><path d="M1125.87 691.66l-.63.7-.46-.4.78-.58zM1170.7 732.07l-.34.33-.3.37-.4-.36.64-.7z" stroke="#3a414a" stroke-width=".05" fill="#3a414a"/><path d="M1010.26 732.44l58.15-46.32" stroke="#3a414a" fill="none"/><path d="M1010.57 732.8l-.37.3-.66-.7.44-.34zM1068.9 685.95l.2.22-.4.33-.6-.74.42-.33z" stroke="#3a414a" stroke-width=".05" fill="#3a414a"/><path d="M1140 980c0 22.1-17.9 40-40 40s-40-17.9-40-40 17.9-40 40-40 40 17.9 40 40z" stroke="#3a414a" fill="#fff"/><use xlink:href="#c" transform="matrix(1,0,0,1,1065,945) translate(28.82716049382716 39.65277777777778)"/><path d="M1280 900c0 22.1-17.9 40-40 40s-40-17.9-40-40 17.9-40 40-40 40 17.9 40 40z" stroke="#3a414a" fill="#fff"/><use xlink:href="#a" transform="matrix(1,0,0,1,1205,865) translate(22.654320987654323 39.65277777777778)"/><path d="M1240 1080c0 22.1-17.9 40-40 40s-40-17.9-40-40 17.9-40 40-40 40 17.9 40 40z" stroke="#3a414a" fill="#f2f3f5"/><use xlink:href="#b" transform="matrix(1,0,0,1,1165,1045) translate(28.82716049382716 39.65277777777778)"/><path d="M1020 1080c0 22.1-17.9 40-40 40s-40-17.9-40-40 17.9-40 40-40 40 17.9 40 40z" stroke="#3a414a" fill="#fff"/><use xlink:href="#d" transform="matrix(1,0,0,1,945,1045) translate(28.82716049382716 39.65277777777778)"/><path d="M1420 980c0 22.1-17.9 40-40 40s-40-17.9-40-40 17.9-40 40-40 40 17.9 40 40z" stroke="#3a414a" fill="#fff"/><use xlink:href="#e" transform="matrix(1,0,0,1,1345,945) translate(28.82716049382716 39.65277777777778)"/><path d="M1271.58 926l74.95 30.37" stroke="#3a414a" fill="none"/><path d="M1271.77 925.55l-.36.88-.6-.24.63-.78zM1347.28 956.15l-.15.18-.4.63-.4-.16.37-.88z" stroke="#3a414a" stroke-width=".05" fill="#3a414a"/><path d="M1206.43 923.4l-73.63 32.15" stroke="#3a414a" fill="none"/><path d="M1207.18 923.6l-.57.25-.37-.87.37-.16zM1133 955.98l-.37.16-.57-.78.56-.25z" stroke="#3a414a" stroke-width=".05" fill="#3a414a"/><path d="M1125.55 1012l44.44 40.06" stroke="#3a414a" fill="none"/><path d="M1125.87 1011.66l-.63.7-.46-.4.78-.58zM1170.7 1052.07l-.34.33-.3.37-.4-.36.64-.7z" stroke="#3a414a" stroke-width=".05" fill="#3a414a"/><path d="M1010.26 1052.44l58.15-46.32" stroke="#3a414a" fill="none"/><path d="M1010.57 1052.8l-.37.3-.66-.7.44-.34zM1068.9 1005.95l.2.22-.4.33-.6-.74.42-.33z" stroke="#3a414a" stroke-width=".05" fill="#3a414a"/><path d="M820 236a6 6 0 0 1 6-6h228a6 6 0 0 1 6 6v48a6 6 0 0 1-6 6H826a6 6 0 0 1-6-6z" stroke="#000" stroke-opacity="0" fill="#fff" fill-opacity="0"/><use xlink:href="#f" transform="matrix(1,0,0,1,825,235) translate(105.15432098765432 30.27777777777778)"/><path d="M820 556a6 6 0 0 1 6-6h228a6 6 0 0 1 6 6v48a6 6 0 0 1-6 6H826a6 6 0 0 1-6-6z" stroke="#000" stroke-opacity="0" fill="#fff" fill-opacity="0"/><use xlink:href="#g" transform="matrix(1,0,0,1,825,555) translate(105.15432098765432 30.27777777777778)"/><path d="M820 876a6 6 0 0 1 6-6h228a6 6 0 0 1 6 6v48a6 6 0 0 1-6 6H826a6 6 0 0 1-6-6z" stroke="#000" stroke-opacity="0" fill="#fff" fill-opacity="0"/><use xlink:href="#h" transform="matrix(1,0,0,1,825,875) translate(105.15432098765432 30.27777777777778)"/><defs><path fill="#3a414a" d="M27 0v-27h64v-190l-56 39v-29l58-41h29v221h61V0H27" id="i"/><path fill="#3a414a" d="M101-251c82-7 93 87 43 132L82-64C71-53 59-42 53-27h129V0H18c2-99 128-94 128-182 0-28-16-43-45-43s-46 15-49 41l-32-3c6-41 34-60 81-64" id="j"/><g id="a"><use transform="matrix(0.06172839506172839,0,0,0.06172839506172839,0,0)" xlink:href="#i"/><use transform="matrix(0.06172839506172839,0,0,0.06172839506172839,12.345679012345679,0)" xlink:href="#j"/></g><path fill="#3a414a" d="M155-56V0h-30v-56H8v-25l114-167h33v167h35v25h-35zm-30-156c-27 46-58 90-88 131h88v-131" id="k"/><use transform="matrix(0.06172839506172839,0,0,0.06172839506172839,0,0)" xlink:href="#k" id="b"/><path fill="#3a414a" d="M99-251c64 0 84 50 84 122C183-37 130 33 47-8c-14-7-20-23-25-40l30-5c6 39 69 39 84 7 9-19 16-44 16-74-10 22-31 35-62 35-49 0-73-33-73-83 0-54 28-83 82-83zm-1 141c31-1 51-18 51-49 0-36-14-67-51-67-34 0-49 23-49 58 0 34 15 58 49 58" id="l"/><use transform="matrix(0.06172839506172839,0,0,0.06172839506172839,0,0)" xlink:href="#l" id="c"/><path fill="#3a414a" d="M134-131c28 9 52 24 51 62-1 50-34 73-85 73S17-19 16-69c0-36 21-54 49-61-75-25-45-126 34-121 46 3 78 18 79 63 0 33-17 51-44 57zm-34-11c31 1 46-15 46-44 0-28-17-43-47-42-29 0-46 13-45 42 1 28 16 44 46 44zm1 122c35 0 51-18 51-52 0-30-18-46-53-46-33 0-51 17-51 47 0 34 19 51 53 51" id="m"/><use transform="matrix(0.06172839506172839,0,0,0.06172839506172839,0,0)" xlink:href="#m" id="d"/><use transform="matrix(0.06172839506172839,0,0,0.06172839506172839,0,0)" xlink:href="#i" id="e"/><path fill="#3a414a" d="M23 0v-37h61v-169l-59 37v-38l62-41h46v211h57V0H23" id="n"/><path fill="#3a414a" d="M35-132v-50h50v50H35zM35 0v-49h50V0H35" id="o"/><g id="f"><use transform="matrix(0.06172839506172839,0,0,0.06172839506172839,0,0)" xlink:href="#n"/><use transform="matrix(0.06172839506172839,0,0,0.06172839506172839,12.345679012345679,0)" xlink:href="#o"/></g><path fill="#3a414a" d="M182-182c0 78-84 86-111 141h115V0H12c-6-101 99-100 120-180 1-22-12-31-33-32-23 0-32 14-35 34l-49-3c5-45 32-70 84-70 51 0 83 22 83 69" id="p"/><g id="g"><use transform="matrix(0.06172839506172839,0,0,0.06172839506172839,0,0)" xlink:href="#p"/><use transform="matrix(0.06172839506172839,0,0,0.06172839506172839,12.345679012345679,0)" xlink:href="#o"/></g><path fill="#3a414a" d="M128-127c34 4 56 21 59 58 7 91-148 94-172 28-4-9-6-17-7-26l51-5c1 24 16 35 40 36 23 0 39-12 38-36-1-31-31-36-65-34v-40c32 2 59-3 59-33 0-20-13-33-34-33s-33 13-35 32l-50-3c6-44 37-68 86-68 50 0 83 20 83 66 0 35-22 52-53 58" id="q"/><g id="h"><use transform="matrix(0.06172839506172839,0,0,0.06172839506172839,0,0)" xlink:href="#q"/><use transform="matrix(0.06172839506172839,0,0,0.06172839506172839,12.345679012345679,0)" xlink:href="#o"/></g></defs></g></svg>