<svg xmlns="http://www.w3.org/2000/svg" xmlns:xlink="http://www.w3.org/1999/xlink" xmlns:lucid="lucid" width="740.5" height="846.32"><g transform="translate(-539.4994495859569 -299.49944958595694)" lucid:page-tab-id="0_0"><path d="M740 346a6 6 0 0 1 6-6h228a6 6 0 0 1 6 6v48a6 6 0 0 1-6 6H746a6 6 0 0 1-6-6z" stroke="#000" stroke-opacity="0" fill="#fff" fill-opacity="0"/><path d="M980 340c0 22.1-17.9 40-40 40s-40-17.9-40-40 17.9-40 40-40 40 17.9 40 40z" stroke="#3a414a" fill="#fff"/><use xlink:href="#a" transform="matrix(1,0,0,1,905,305) translate(22.654320987654323 39.65277777777778)"/><path d="M820 440c0 22.1-17.9 40-40 40s-40-17.9-40-40 17.9-40 40-40 40 17.9 40 40z" stroke="#3a414a" fill="#fff"/><use xlink:href="#b" transform="matrix(1,0,0,1,745,405) translate(28.82716049382716 39.65277777777778)"/><path d="M1140 440c0 22.1-17.9 40-40 40s-40-17.9-40-40 17.9-40 40-40 40 17.9 40 40z" stroke="#3a414a" fill="#fff"/><use xlink:href="#c" transform="matrix(1,0,0,1,1065,405) translate(28.82716049382716 39.65277777777778)"/><path d="M720 540c0 22.1-17.9 40-40 40s-40-17.9-40-40 17.9-40 40-40 40 17.9 40 40z" stroke="#3a414a" fill="#fff"/><use xlink:href="#d" transform="matrix(1,0,0,1,645,505) translate(28.82716049382716 39.65277777777778)"/><path d="M920 540c0 22.1-17.9 40-40 40s-40-17.9-40-40 17.9-40 40-40 40 17.9 40 40z" stroke="#3a414a" fill="#fff"/><use xlink:href="#e" transform="matrix(1,0,0,1,845,505) translate(28.82716049382716 39.65277777777778)"/><path d="M1040 540c0 22.1-17.9 40-40 40s-40-17.9-40-40 17.9-40 40-40 40 17.9 40 40z" stroke="#3a414a" fill="#fff"/><use xlink:href="#f" transform="matrix(1,0,0,1,965,505) translate(28.82716049382716 39.65277777777778)"/><path d="M1240 540c0 22.1-17.9 40-40 40s-40-17.9-40-40 17.9-40 40-40 40 17.9 40 40z" stroke="#3a414a" fill="#fff"/><use xlink:href="#g" transform="matrix(1,0,0,1,1165,505) translate(28.82716049382716 39.65277777777778)"/><path d="M620 640c0 22.1-17.9 40-40 40s-40-17.9-40-40 17.9-40 40-40 40 17.9 40 40z" stroke="#3a414a" fill="#fff"/><use xlink:href="#h" transform="matrix(1,0,0,1,545,605) translate(28.82716049382716 39.65277777777778)"/><path d="M899.1 340.3L810 412.16" stroke="#3a414a" fill="none"/><path d="M899.5 340l.02.6-.12.1-.6-.75.74-.6zM810.3 412.5l-.38.3-.65-.68.43-.35z" stroke="#3a414a" stroke-width=".05" fill="#3a414a"/><path d="M739.25 440.43l-37.53 64.88" stroke="#3a414a" fill="none"/><path d="M739.5 440l.02.6-.7-.4.75-1.26zM702.13 505.54l-.26.45-.8-.5.24-.44z" stroke="#3a414a" stroke-width=".05" fill="#3a414a"/><path d="M820.75 440.44l37.02 65.12" stroke="#3a414a" fill="none"/><path d="M821.17 440.2l-.7.4.03-.6-.04-1.02zM858.42 505.74l-.27.15-.52.37-.28-.5.83-.46z" stroke="#3a414a" stroke-width=".05" fill="#3a414a"/><path d="M639.27 540.45l-33.9 67.43" stroke="#3a414a" fill="none"/><path d="M639.5 540l.02.58-.67-.34.72-1.45zM605.8 608.1l-.3.54-.75-.62.2-.36z" stroke="#3a414a" stroke-width=".05" fill="#3a414a"/><path d="M980.87 340.33l85.55 76.2" stroke="#3a414a" fill="none"/><path d="M981.2 340l-.63.7-.1-.1.03-.6-.02-.66zM1067.05 416.46l-.5.8-.45-.38.63-.7z" stroke="#3a414a" stroke-width=".05" fill="#3a414a"/><path d="M1059.28 440.45l-33.67 67.64" stroke="#3a414a" fill="none"/><path d="M1059.5 440l.02.58-.67-.33.73-1.47zM1026.04 508.3l-.28.55-.75-.62.2-.36z" stroke="#3a414a" stroke-width=".05" fill="#3a414a"/><path d="M1140.72 440.45l32.77 68.33" stroke="#3a414a" fill="none"/><path d="M1141.15 440.26l-.7.33.05-.6-.04-1.2zM1174.07 508.9l-.72.67-.3-.6.87-.4z" stroke="#3a414a" stroke-width=".05" fill="#3a414a"/><path d="M940 366a6 6 0 0 1 6-6h68a6 6 0 0 1 6 6v10.9a6 6 0 0 1-6 6h-68a6 6 0 0 1-6-6z" stroke="#000" stroke-opacity="0" fill="#fff" fill-opacity="0"/><use xlink:href="#i" transform="matrix(1,0,0,1,945,365) translate(28.82716049382716 17.77777777777778)"/><path d="M780 466a6 6 0 0 1 6-6h68a6 6 0 0 1 6 6v10.9a6 6 0 0 1-6 6h-68a6 6 0 0 1-6-6z" stroke="#000" stroke-opacity="0" fill="#fff" fill-opacity="0"/><use xlink:href="#j" transform="matrix(1,0,0,1,785,465) translate(28.82716049382716 17.77777777777778)"/><path d="M1100 466a6 6 0 0 1 6-6h68a6 6 0 0 1 6 6v10.9a6 6 0 0 1-6 6h-68a6 6 0 0 1-6-6z" stroke="#000" stroke-opacity="0" fill="#fff" fill-opacity="0"/><use xlink:href="#k" transform="matrix(1,0,0,1,1105,465) translate(28.82716049382716 17.77777777777778)"/><path d="M680 566a6 6 0 0 1 6-6h68a6 6 0 0 1 6 6v10.9a6 6 0 0 1-6 6h-68a6 6 0 0 1-6-6z" stroke="#000" stroke-opacity="0" fill="#fff" fill-opacity="0"/><use xlink:href="#l" transform="matrix(1,0,0,1,685,565) translate(28.82716049382716 17.77777777777778)"/><path d="M880 566a6 6 0 0 1 6-6h68a6 6 0 0 1 6 6v10.9a6 6 0 0 1-6 6h-68a6 6 0 0 1-6-6z" stroke="#000" stroke-opacity="0" fill="#fff" fill-opacity="0"/><use xlink:href="#m" transform="matrix(1,0,0,1,885,565) translate(28.82716049382716 17.77777777777778)"/><path d="M1000 563.1a6 6 0 0 1 6-6h68a6 6 0 0 1 6 6V574a6 6 0 0 1-6 6h-68a6 6 0 0 1-6-6z" stroke="#000" stroke-opacity="0" fill="#fff" fill-opacity="0"/><use xlink:href="#n" transform="matrix(1,0,0,1,1005,562.0924407144418) translate(28.82716049382716 17.77777777777778)"/><path d="M1200 563.1a6 6 0 0 1 6-6h68a6 6 0 0 1 6 6V574a6 6 0 0 1-6 6h-68a6 6 0 0 1-6-6z" stroke="#000" stroke-opacity="0" fill="#fff" fill-opacity="0"/><use xlink:href="#o" transform="matrix(1,0,0,1,1205,562.0924407144418) translate(28.82716049382716 17.77777777777778)"/><path d="M580 666a6 6 0 0 1 6-6h68a6 6 0 0 1 6 6v10.9a6 6 0 0 1-6 6h-68a6 6 0 0 1-6-6z" stroke="#000" stroke-opacity="0" fill="#fff" fill-opacity="0"/><use xlink:href="#p" transform="matrix(1,0,0,1,585,665) translate(28.82716049382716 17.77777777777778)"/><path d="M812 640c0 22.1-17.9 40-40 40s-40-17.9-40-40 17.9-40 40-40 40 17.9 40 40z" stroke="#3a414a" fill="#f2f3f5"/><use xlink:href="#q" transform="matrix(1,0,0,1,737,605) translate(22.654320987654323 39.65277777777778)"/><path d="M720.7 540.46L747.8 607" stroke="#3a414a" fill="none"/><path d="M721.13 540.3l-.66.27.03-.56-.05-1.38zM748.4 607.17l-.78.58-.24-.58.88-.36z" stroke="#3a414a" stroke-width=".05" fill="#3a414a"/><path d="M780 666a6 6 0 0 1 6-6h68a6 6 0 0 1 6 6v10.9a6 6 0 0 1-6 6h-68a6 6 0 0 1-6-6z" stroke="#000" stroke-opacity="0" fill="#fff" fill-opacity="0"/><use xlink:href="#r" transform="matrix(1,0,0,1,785,665) translate(28.82716049382716 17.77777777777778)"/><path d="M740 808.9a6 6 0 0 1 6-6h228a6 6 0 0 1 6 6v48a6 6 0 0 1-6 6H746a6 6 0 0 1-6-6z" stroke="#000" stroke-opacity="0" fill="#fff" fill-opacity="0"/><path d="M980 802.9c0 22.1-17.9 40-40 40s-40-17.9-40-40c0-22.08 17.9-40 40-40s40 17.92 40 40z" stroke="#3a414a" fill="#fff"/><use xlink:href="#a" transform="matrix(1,0,0,1,905,767.9075592855582) translate(22.654320987654323 39.65277777777778)"/><path d="M820 902.9c0 22.1-17.9 40-40 40s-40-17.9-40-40c0-22.08 17.9-40 40-40s40 17.92 40 40z" stroke="#3a414a" fill="#fff"/><use xlink:href="#b" transform="matrix(1,0,0,1,745,867.9075592855582) translate(28.82716049382716 39.65277777777778)"/><path d="M1140 902.9c0 22.1-17.9 40-40 40s-40-17.9-40-40c0-22.08 17.9-40 40-40s40 17.92 40 40z" stroke="#3a414a" fill="#fff"/><use xlink:href="#c" transform="matrix(1,0,0,1,1065,867.9075592855582) translate(28.82716049382716 39.65277777777778)"/><path d="M720 1002.9c0 22.1-17.9 40-40 40s-40-17.9-40-40c0-22.08 17.9-40 40-40s40 17.92 40 40z" stroke="#3a414a" fill="#f2f3f5"/><use xlink:href="#q" transform="matrix(1,0,0,1,645,967.9075592855582) translate(22.654320987654323 39.65277777777778)"/><path d="M920 1002.9c0 22.1-17.9 40-40 40s-40-17.9-40-40c0-22.08 17.9-40 40-40s40 17.92 40 40z" stroke="#3a414a" fill="#fff"/><use xlink:href="#e" transform="matrix(1,0,0,1,845,967.9075592855582) translate(28.82716049382716 39.65277777777778)"/><path d="M1040 1002.9c0 22.1-17.9 40-40 40s-40-17.9-40-40c0-22.08 17.9-40 40-40s40 17.92 40 40z" stroke="#3a414a" fill="#fff"/><use xlink:href="#f" transform="matrix(1,0,0,1,965,967.9075592855582) translate(28.82716049382716 39.65277777777778)"/><path d="M1240 1002.9c0 22.1-17.9 40-40 40s-40-17.9-40-40c0-22.08 17.9-40 40-40s40 17.92 40 40z" stroke="#3a414a" fill="#fff"/><use xlink:href="#g" transform="matrix(1,0,0,1,1165,967.9075592855582) translate(28.82716049382716 39.65277777777778)"/><path d="M620 1102.9c0 22.1-17.9 40-40 40s-40-17.9-40-40c0-22.08 17.9-40 40-40s40 17.92 40 40z" stroke="#3a414a" fill="#fff"/><use xlink:href="#h" transform="matrix(1,0,0,1,545,1067.9075592855584) translate(28.82716049382716 39.65277777777778)"/><path d="M899.1 803.22L810 875.06" stroke="#3a414a" fill="none"/><path d="M899.5 802.9l.02.6-.12.1-.6-.74.74-.6zM810.3 875.42l-.38.3-.65-.7.43-.34z" stroke="#3a414a" stroke-width=".05" fill="#3a414a"/><path d="M739.25 903.34l-37.53 64.88" stroke="#3a414a" fill="none"/><path d="M739.5 902.9l.02.6-.7-.4.75-1.25zM702.13 968.44l-.26.46-.8-.5.24-.43z" stroke="#3a414a" stroke-width=".05" fill="#3a414a"/><path d="M820.75 903.34l37.02 65.12" stroke="#3a414a" fill="none"/><path d="M821.17 903.12l-.7.4.03-.6-.04-1.04zM858.42 968.65l-.27.15-.52.38-.28-.5.83-.46z" stroke="#3a414a" stroke-width=".05" fill="#3a414a"/><path d="M639.27 1003.35l-33.9 67.44" stroke="#3a414a" fill="none"/><path d="M639.5 1002.9l.02.6-.67-.35.72-1.45zM605.8 1071l-.3.55-.75-.62.2-.36z" stroke="#3a414a" stroke-width=".05" fill="#3a414a"/><path d="M980.87 803.24l85.55 76.2" stroke="#3a414a" fill="none"/><path d="M981.2 802.9l-.63.7-.1-.1.03-.6-.02-.65zM1067.05 879.36l-.5.82-.45-.4.63-.7z" stroke="#3a414a" stroke-width=".05" fill="#3a414a"/><path d="M1059.28 903.36L1025.6 971" stroke="#3a414a" fill="none"/><path d="M1059.5 902.9l.02.6-.67-.35.73-1.46zM1026.04 971.2l-.28.56-.75-.62.2-.36z" stroke="#3a414a" stroke-width=".05" fill="#3a414a"/><path d="M1140.72 903.36l32.77 68.32" stroke="#3a414a" fill="none"/><path d="M1141.15 903.16l-.7.33.05-.6-.04-1.18zM1174.07 971.8l-.72.68-.3-.6.87-.4z" stroke="#3a414a" stroke-width=".05" fill="#3a414a"/><path d="M940 828.9a6 6 0 0 1 6-6h68a6 6 0 0 1 6 6v10.92a6 6 0 0 1-6 6h-68a6 6 0 0 1-6-6z" stroke="#000" stroke-opacity="0" fill="#fff" fill-opacity="0"/><use xlink:href="#i" transform="matrix(1,0,0,1,945,827.9075592855584) translate(28.82716049382716 17.77777777777778)"/><path d="M780 928.9a6 6 0 0 1 6-6h68a6 6 0 0 1 6 6v10.92a6 6 0 0 1-6 6h-68a6 6 0 0 1-6-6z" stroke="#000" stroke-opacity="0" fill="#fff" fill-opacity="0"/><use xlink:href="#j" transform="matrix(1,0,0,1,785,927.9075592855584) translate(28.82716049382716 17.77777777777778)"/><path d="M1100 928.9a6 6 0 0 1 6-6h68a6 6 0 0 1 6 6v10.92a6 6 0 0 1-6 6h-68a6 6 0 0 1-6-6z" stroke="#000" stroke-opacity="0" fill="#fff" fill-opacity="0"/><use xlink:href="#k" transform="matrix(1,0,0,1,1105,927.9075592855584) translate(28.82716049382716 17.77777777777778)"/><path d="M680 1028.9a6 6 0 0 1 6-6h68a6 6 0 0 1 6 6v10.9a6 6 0 0 1-6 6.02h-68a6 6 0 0 1-6-6z" stroke="#000" stroke-opacity="0" fill="#fff" fill-opacity="0"/><use xlink:href="#l" transform="matrix(1,0,0,1,685,1027.9075592855581) translate(28.82716049382716 17.77777777777778)"/><path d="M880 1028.9a6 6 0 0 1 6-6h68a6 6 0 0 1 6 6v10.9a6 6 0 0 1-6 6.02h-68a6 6 0 0 1-6-6z" stroke="#000" stroke-opacity="0" fill="#fff" fill-opacity="0"/><use xlink:href="#m" transform="matrix(1,0,0,1,885,1027.9075592855581) translate(28.82716049382716 17.77777777777778)"/><path d="M1000 1026a6 6 0 0 1 6-6h68a6 6 0 0 1 6 6v10.9a6 6 0 0 1-6 6h-68a6 6 0 0 1-6-6z" stroke="#000" stroke-opacity="0" fill="#fff" fill-opacity="0"/><use xlink:href="#n" transform="matrix(1,0,0,1,1005,1024.9999999999998) translate(28.82716049382716 17.77777777777778)"/><path d="M1200 1026a6 6 0 0 1 6-6h68a6 6 0 0 1 6 6v10.9a6 6 0 0 1-6 6h-68a6 6 0 0 1-6-6z" stroke="#000" stroke-opacity="0" fill="#fff" fill-opacity="0"/><use xlink:href="#o" transform="matrix(1,0,0,1,1205,1024.9999999999998) translate(28.82716049382716 17.77777777777778)"/><path d="M580 1128.9a6 6 0 0 1 6-6h68a6 6 0 0 1 6 6v10.9a6 6 0 0 1-6 6.02h-68a6 6 0 0 1-6-6z" stroke="#000" stroke-opacity="0" fill="#fff" fill-opacity="0"/><use xlink:href="#p" transform="matrix(1,0,0,1,585,1127.9075592855581) translate(28.82716049382716 17.77777777777778)"/><path d="M812 1102.9c0 22.1-17.9 40-40 40s-40-17.9-40-40c0-22.08 17.9-40 40-40s40 17.92 40 40z" stroke="#3a414a" fill="#fff"/><use xlink:href="#s" transform="matrix(1,0,0,1,737,1067.9075592855584) translate(28.82716049382716 39.65277777777778)"/><path d="M720.7 1003.37l27.12 66.54" stroke="#3a414a" fill="none"/><path d="M721.13 1003.2l-.66.28.03-.57-.05-1.37zM748.4 1070.08l-.78.58-.24-.6.88-.34z" stroke="#3a414a" stroke-width=".05" fill="#3a414a"/><path d="M780 1128.9a6 6 0 0 1 6-6h68a6 6 0 0 1 6 6v10.9a6 6 0 0 1-6 6.02h-68a6 6 0 0 1-6-6z" stroke="#000" stroke-opacity="0" fill="#fff" fill-opacity="0"/><use xlink:href="#r" transform="matrix(1,0,0,1,785,1127.9075592855581) translate(28.82716049382716 17.77777777777778)"/><defs><path fill="#3a414a" d="M27 0v-27h64v-190l-56 39v-29l58-41h29v221h61V0H27" id="t"/><path fill="#3a414a" d="M101-251c82-7 93 87 43 132L82-64C71-53 59-42 53-27h129V0H18c2-99 128-94 128-182 0-28-16-43-45-43s-46 15-49 41l-32-3c6-41 34-60 81-64" id="u"/><g id="a"><use transform="matrix(0.06172839506172839,0,0,0.06172839506172839,0,0)" xlink:href="#t"/><use transform="matrix(0.06172839506172839,0,0,0.06172839506172839,12.345679012345679,0)" xlink:href="#u"/></g><path fill="#3a414a" d="M99-251c64 0 84 50 84 122C183-37 130 33 47-8c-14-7-20-23-25-40l30-5c6 39 69 39 84 7 9-19 16-44 16-74-10 22-31 35-62 35-49 0-73-33-73-83 0-54 28-83 82-83zm-1 141c31-1 51-18 51-49 0-36-14-67-51-67-34 0-49 23-49 58 0 34 15 58 49 58" id="v"/><use transform="matrix(0.06172839506172839,0,0,0.06172839506172839,0,0)" xlink:href="#v" id="b"/><path fill="#3a414a" d="M110-160c48 1 74 30 74 79 0 53-28 85-80 85-65 0-83-55-86-122-5-90 50-162 133-122 14 7 22 21 27 39l-31 6c-5-40-67-38-82-6-9 19-15 44-15 74 11-20 30-34 60-33zm-7 138c34 0 49-23 49-58s-16-56-50-56c-29 0-50 16-49 49 1 36 15 65 50 65" id="w"/><use transform="matrix(0.06172839506172839,0,0,0.06172839506172839,0,0)" xlink:href="#w" id="c"/><path fill="#3a414a" d="M155-56V0h-30v-56H8v-25l114-167h33v167h35v25h-35zm-30-156c-27 46-58 90-88 131h88v-131" id="x"/><use transform="matrix(0.06172839506172839,0,0,0.06172839506172839,0,0)" xlink:href="#x" id="d"/><path fill="#3a414a" d="M134-131c28 9 52 24 51 62-1 50-34 73-85 73S17-19 16-69c0-36 21-54 49-61-75-25-45-126 34-121 46 3 78 18 79 63 0 33-17 51-44 57zm-34-11c31 1 46-15 46-44 0-28-17-43-47-42-29 0-46 13-45 42 1 28 16 44 46 44zm1 122c35 0 51-18 51-52 0-30-18-46-53-46-33 0-51 17-51 47 0 34 19 51 53 51" id="y"/><use transform="matrix(0.06172839506172839,0,0,0.06172839506172839,0,0)" xlink:href="#y" id="e"/><path fill="#3a414a" d="M54-142c48-35 137-8 131 61C196 18 31 33 14-55l32-4c7 23 22 37 52 37 35-1 51-22 54-58 4-55-73-65-99-34H22l8-134h141v27H59" id="z"/><use transform="matrix(0.06172839506172839,0,0,0.06172839506172839,0,0)" xlink:href="#z" id="f"/><use transform="matrix(0.06172839506172839,0,0,0.06172839506172839,0,0)" xlink:href="#t" id="g"/><use transform="matrix(0.06172839506172839,0,0,0.06172839506172839,0,0)" xlink:href="#u" id="h"/><path fill="#3a414a" d="M9 0l6-27h63l36-188-63 39 6-31 66-41h29L110-27h60l-5 27H9" id="A"/><use transform="matrix(0.06172839506172839,0,0,0.06172839506172839,0,0)" xlink:href="#A" id="i"/><path fill="#3a414a" d="M123-251c66 0 92 69 53 113C138-94 73-75 39-27h128l-5 27H-2c17-92 123-93 159-163 14-28-1-64-36-62-29 2-46 17-54 41l-30-6c13-36 37-61 86-61" id="B"/><use transform="matrix(0.06172839506172839,0,0,0.06172839506172839,0,0)" xlink:href="#B" id="j"/><path fill="#3a414a" d="M148-71c0-36-31-44-71-41l5-28c46 3 81-6 81-50 0-23-15-35-39-35-30 0-49 17-56 41l-32-3c12-39 42-63 90-64 43 0 69 19 71 60 1 43-30 58-65 66 27 5 49 22 49 53 0 85-133 99-164 35-4-7-7-15-9-22l29-9c8 25 25 45 58 45 34 1 53-17 53-48" id="C"/><use transform="matrix(0.06172839506172839,0,0,0.06172839506172839,0,0)" xlink:href="#C" id="k"/><path fill="#3a414a" d="M149-56L138 0h-32l11-56H2l5-25 144-167h35L154-81h33l-5 25h-33zm-4-147L40-81h82" id="D"/><use transform="matrix(0.06172839506172839,0,0,0.06172839506172839,0,0)" xlink:href="#D" id="l"/><path fill="#3a414a" d="M151-85c6-55-69-56-94-29H26l34-134h141l-5 27H84l-20 79c41-34 127-11 121 53C199 13 30 38 8-54l29-8C52 0 159-13 151-85" id="E"/><use transform="matrix(0.06172839506172839,0,0,0.06172839506172839,0,0)" xlink:href="#E" id="m"/><path fill="#3a414a" d="M184-94c-4 58-33 98-90 98-50 0-74-35-74-86 0-94 36-181 136-167 24 3 39 21 44 47l-29 6c-8-40-68-34-87-5-13 20-24 43-30 73 28-51 135-39 130 34zm-73-42c-35 2-61 22-60 62 1 30 14 52 44 52 38 0 55-31 56-70 1-26-14-46-40-44" id="F"/><use transform="matrix(0.06172839506172839,0,0,0.06172839506172839,0,0)" xlink:href="#F" id="n"/><path fill="#3a414a" d="M206-222l-58 71C115-108 89-62 76 0H43c20-96 77-159 130-221H37l5-27h169" id="G"/><use transform="matrix(0.06172839506172839,0,0,0.06172839506172839,0,0)" xlink:href="#G" id="o"/><path fill="#3a414a" d="M39-185c1-48 36-66 85-66 42 0 74 18 74 59 0 38-25 57-56 64 23 7 40 22 40 52 0 55-39 80-94 80C40 4 10-17 9-63c-1-44 31-60 63-71-20-7-33-25-33-51zm31 3c0 26 17 39 46 39 34 0 48-18 49-48 0-25-18-36-45-36-32 0-50 15-50 45zm79 105c0-29-19-41-50-41-37 0-57 20-57 55 0 29 19 42 49 42 36 0 58-19 58-56" id="H"/><use transform="matrix(0.06172839506172839,0,0,0.06172839506172839,0,0)" xlink:href="#H" id="p"/><path fill="#3a414a" d="M182-182c0 78-84 86-111 141h115V0H12c-6-101 99-100 120-180 1-22-12-31-33-32-23 0-32 14-35 34l-49-3c5-45 32-70 84-70 51 0 83 22 83 69" id="I"/><path fill="#3a414a" d="M101-251c68 0 84 54 84 127C185-50 166 4 99 4S15-52 14-124c-1-75 17-127 87-127zm-1 216c37-5 36-46 36-89s4-89-36-89c-39 0-36 45-36 89 0 43-3 85 36 89" id="J"/><g id="q"><use transform="matrix(0.06172839506172839,0,0,0.06172839506172839,0,0)" xlink:href="#I"/><use transform="matrix(0.06172839506172839,0,0,0.06172839506172839,12.345679012345679,0)" xlink:href="#J"/></g><path fill="#3a414a" d="M40-53c7 41 73 38 88 5 14-18 25-43 30-72-13 20-31 35-60 35-44 0-69-27-69-70 0-57 32-96 91-96 58 0 76 44 72 106C186-56 125 37 35-9c-12-6-19-20-23-36zm62-57c67 0 87-116 17-116-39 0-58 29-58 71 1 27 12 45 41 45" id="K"/><use transform="matrix(0.06172839506172839,0,0,0.06172839506172839,0,0)" xlink:href="#K" id="r"/><use transform="matrix(0.06172839506172839,0,0,0.06172839506172839,0,0)" xlink:href="#x" id="s"/></defs></g></svg>